<svg xmlns="http://www.w3.org/2000/svg" width="148.89" height="159.98" viewBox="0 0 148.89 159.98"><title>Bike</title><path d="M58.46,159.72c-5.23.35-6-.31-6-5.35,0-5.37,0-10.73,0-16.1a25.52,25.52,0,0,0-1.08-8.07c-.71-2.25-1.34-4.91,1.18-6.82,1-.72.57-1.84.58-2.8q0-9,0-18c0-.85.13-2-.34-2.5-3.7-3.77-3.34-8.68-4-13.32-.12-.92.32-2.14-1-2.48-1.18-.29-1.31.92-1.87,1.49-2.16,2.21-4.57,3.47-7.68,2a.68.68,0,0,1,0-.89c1.2-.86,2.9-.53,4-1.68a15.63,15.63,0,0,1,2-1.48c2.65-1.66.44-4.36,1.38-6.38a.58.58,0,0,1,.88,0c1.38.27,2.32,0,2.29-1.71,0-1.43.09-2.86.15-4.29a.71.71,0,0,1,.93.13c1,1.45.16,3.36,1.17,4.8,1.5.23,1.19-1,1.25-1.7.15-2.21,0-4.43.07-6.65-.26-1.84.85-3.68,0-5.53a.77.77,0,0,1,.17-.86c.49-1.14,1.21-2,.84-3.6-.94-4.12,1-8.07,1.5-12.13l.49-.33c3.67.08,7.14,1.6,10.83,1.58,1.34,0,2.69,0,4,0h1.65c2.13-.15,4.4.66,6.84-1.08-2.71-1.26-5.24,0-7.52-.79A10,10,0,0,1,70.07,45c-1.61-.63-3.58,0-5-1.39.12-1.25.86-1.16,1.73-.81,5.72-.55,11.45-1.15,17.16.13a.64.64,0,0,1,.2.56q0,.3-.12.3c-.93.58-1.69,1.18-.35,2.14,1.55,2,3.53,1.18,5.43.86,2.32-.44,4.78-.53,6.53-2.48a1.91,1.91,0,0,1,1-.2,1.76,1.76,0,0,1,1.13,1.11c-1.9,1.79-.6,3.91-.54,5.89,0,.31.6.65.56.92-.88,6,2.3,11,4.18,16.23.37.76-.07,1-.7,1.06-1.8-1.69-2-4.13-3.14-6.19a10.2,10.2,0,0,1,1,5.12c.06,2.63-.1,5.27.13,7.89.14,1.43,3.72,1.68,1.33,4-.54.53.42,1,.89,1.3a.92.92,0,0,0,1.5-.45c.45-1,.2-2.27,1.82-3.13.7,2.41,2.61,4.51.12,7a2.17,2.17,0,0,0-2-.59,7,7,0,0,1-1.41.53c-2.82.3-1.37,1.6-.63,2.74A17.45,17.45,0,0,1,101.2,92c0,1-.84,1.5-1,2.35.48-.53,1-.83,1.35,0a1.21,1.21,0,0,1-.17,1.06c-5.63,8.38-2.45,17.8-2.76,26.74-.07,2.25,2.78,4.85,1.59,7.75S99,135.74,99,138.73c0,5.61-.09,11.21,0,16.82.07,2.76-.92,4-3.7,3.54.73-7.45,0-14.93.37-22.39.06-3.16-.6-6.36.61-9.48.3-.77.4-1.77-.7-2.18a2,2,0,0,0-2.11.21c-1.09,1,.36,1.37.61,2,.87,2.38-1.81,2.09-2.54,3.29-2.63-1-.44-3.06-1.17-4.27-.85,1.37,1.34,3.75-1.11,5-.47-4.34-2.67.22-3.8-.74-1.13-2.23,1.5-2.56,1.93-3.95-1.17,1.28-2.25,2.91-4.47,2.37a13.13,13.13,0,0,1-3.83-1.37c-2.66-1.66-5.17-1.22-7.75,0-2.65.79-5.45,2.77-7.56-.92-.65-1.22-1.79-2.1-2.38-3.37-.7-5.88-.08-11.74-.33-17.48,0,5.49,0,11.1,0,16.72a2.65,2.65,0,0,1-.11,1.22,2.14,2.14,0,0,1-.9.7c-5,.68-5,.68-4.3,5.77.12.89.18,1.73-.84,2.16-3.09-.61-2.13-3.57-3-5.15.38,2.26.91,4.75,3.2,6.37.91,1.82.76,3.76.62,5.69,0,5.13,0,10.25,0,15.37,0,1.48-.28,3.11,1.75,3.61C58.07,158.65,58.52,159,58.46,159.72Z" fill="#0c0c0c"/><path d="M86.13,132.92c1,8.2.17,16.44.46,24.65,0,1.38-.87,1.53-1.93,1.7a58,58,0,0,1-17.88,0c-1.32-.19-2-.59-2-2.05.06-7.62,0-15.23.07-22.84a4.8,4.8,0,0,1,1.31-3,4.85,4.85,0,0,1,.44-1.48c1.47-1.08,2.57-2.93,4.84-2.41a1.64,1.64,0,0,1,.71,1.86c-.73,1.25-2.11,1.69-3.15,2.55-3,2.45-2.72,6,.52,8a13.86,13.86,0,0,0,1.34.66c1.44.7,3.11,1.23,3.09,3.27,0,1.38-1,2-3.84,2.53,2.05,1.42,3.94,1.83,4-1.44q0-6.87-.11-13.75c0-1.33-1.42-2.05-1.34-3.38,2.18-1.5,4.28-2.06,6.11.52a7,7,0,0,0-1.27,3.43c-.07,4.21-.08,8.41-.16,12.62,0,3.16.69,3.44,4.21,2-2-.13-3.79-.12-4-2.29A3,3,0,0,1,80,140.73c3.59-1,4.79-3.57,4.89-7C85.13,133.24,85.45,132.81,86.13,132.92Z" fill="#0e0e0e"/><path d="M23.3,40.71c-1.66.74-3.43.45-5.16.61-2.31.21-3.85-.06-4.14-2.85s.33-4.24,3.3-4.61c4.94-.61,9.84-1.69,14.79-2.15,2.8-.26,2.81-1.24,1.7-3.19C30.66,23,25.28,21.12,19.62,20c-3.77-.72-7.73-.43-11.56-.93S.82,10.21,3,7A3.29,3.29,0,0,1,6.25,5.5c4.1.35,8.21.67,12.31,1.07,3.5.34,5.68,2.21,5.34,5.86-.38,4,1.37,6.1,5,7.45,4.12,1.54,7.35,4.27,8.63,8.71.59,2.06,1.86,2.3,3.69,2,1-.17,2.15-1,3,.32a4.45,4.45,0,0,0,.62,1.66c.29.91,1.08,1.58,1.19,2.58-.54,1.8-1.3,2.77-2.78.69-.48-.68-.72-1.52-1.18-2.22-3.79-2-5.24-1.42-6.07,2.22a3,3,0,0,1-.44.95l-.41.32a1.16,1.16,0,0,1-.94-.28c-.31-.34-.51-1-.95-1-1,.1-.46,1.21-.91,1.73a2.54,2.54,0,0,1-2.95.56c-2.95-2.48-6.47-2.46-9,0,.65,1.5,2.45-.29,3.13,1.1A1.37,1.37,0,0,1,23.3,40.71Z" fill="#2d2d2d"/><path d="M101.42,69.1l.65-.86c1.05,1.85.41,3.89.72,5.82.17,1.11-.8,2.61.83,3.25,1.45.56,1.79-1,2.57-1.65a7.49,7.49,0,0,1,10.14.46,7,7,0,0,1,.52,9.48c-3.34,4.11-8.55,3.79-11.8-.74.79-2-.89-3.91-.16-6-1.37,1.34.82,4.64-2.52,4.34a4.77,4.77,0,0,1-3.78-3.55c-.3-1.53,1.53-.27,2.29-.81-.55-1.11-2.23-.21-2.64-1.48.84-2.09.15-4.3.44-6.43,1.11-1.09,1.55-.14,2,.67-.15.86-.93,1.69-.19,2.59a1.89,1.89,0,0,1,0-1.66C101.29,71.54,99.87,69.93,101.42,69.1Z" fill="#242424"/><path d="M138.73,19.51c-6.1-.09-11.89.94-17,4.59a14.45,14.45,0,0,0-2.67,2c-1.15,1.32-2.41,3-2,4.64s2.57.83,3.93,1.08c4.65.89,9.33,1.57,14,2.28,2.33.35,2.67,1.87,2.45,3.79s-.32,4-3.18,3.4c-.89-.46-2.09-.32-2.63-1.42a4.24,4.24,0,0,1-.29-1.49,6.44,6.44,0,0,0-9.33-.25,3.07,3.07,0,0,1-3.55-.49c-.34-.72.47-2.9-1.69-1.32-2-.39-.76-3-2.55-3.55-1.7-.14-3.45-.69-4.9.76-.58.57-1,1.34-2,1.28a1.86,1.86,0,0,1-.67-1.75c0-.76.63-1.39.58-2.18,3.46-.84,5.94-2.65,8.9-6.56a12.93,12.93,0,0,1,6-4.22c3.86-1.38,6-3.65,5.45-7.92,2.46.95,1.25,3.23,1.77,4.89-.74,2.42-3.19,2.51-4.94,3.45-5,2.71-6.66,4.07-8.38,7.25,1.43-3.71,5.53-5.66,9.56-7.74,1.81-.93,4.14-1.33,4.62-3.88a1.39,1.39,0,0,1,1.86-.45c.94,1.56,2.11,2.56,4.14,2.37C137.21,18,138.57,17.91,138.73,19.51Z" fill="#2b2b2b"/><path d="M66.73,130.86l-.55.52-3.48-2.33c-2.47,8.68-.91,17.39-1.3,26-.1,2.2.05,4.37-2.94,4.68l-.88-.7c.21-1.18,1.41-2.15.76-3.53-.33-5.27.08-10.55-.27-15.8,1.55-3.36.86-7,1.16-10.48,1-1.63.07-3.69,1.2-5.28l.28,0a1.1,1.1,0,0,1,1.61,0c1.49,0,1.71,1.25,2.17,2.25C63.82,128.39,67.68,128.48,66.73,130.86Z" fill="#272727"/><path d="M38.27,87.27a4.73,4.73,0,0,1,0,.53c-3.6-.77-5.14-3.29-5.2-6.66s1.9-5.84,5.2-6.82,6.32-.27,8.18,3.08l-.22,0-.22,0c-1.94-1.21-3.2,1-4.93,1-1.5.1-3.27-.57-4.06,1.46a10.68,10.68,0,0,0,1.14,3,2.22,2.22,0,0,0,2.45.66,9.81,9.81,0,0,0,1.26-.62,2,2,0,0,1,1.86-.31c.52.46,1,.93.53,1.7l-1.42,1.41C41.65,87.11,39.58,86.14,38.27,87.27Z" fill="#212121"/><path d="M96.59,135.86c.15,7.19.23,14.38.52,21.55.07,1.66-1.91.4-1.77,1.68H93.87c-1.56.25-2.71-.06-2.69-2a2.73,2.73,0,0,1,.68-.93c1.45-1.46.76-3.3.85-5,.21-3.83-.29-7.68.29-11.51.74-1.26,1.81-2.44,1.26-4.11C95.19,134.21,95.94,134.53,96.59,135.86Z" fill="#fafafa"/><path d="M96.59,135.86c-.67-.21-1.26-1-2.06-.33.47,3.4-1.47,2.48-3.27,1.83-1.1-1.39.13-3.07-.57-4.51a2.14,2.14,0,0,1-.62.06c-.83-1.7,2.47-1.38,1.54-3.12-.54-.92,2.91-1.81,0-2.89-.29-.11-.34-2.41.09-2.66,1.54-.89,3.35-.67,5.09-.37s.38,1.33.35,1.88C97,129.12,96.22,132.46,96.59,135.86Z" fill="#f2f2f2"/><path d="M42.7,33.1a15.84,15.84,0,0,1,1,1.86c.86,2.26,1.45.93,2.08-.13,3.67.37,7.58,3.9,8.56,7.75a1.05,1.05,0,0,1-.8.58c-2.33-.66-3.31-3.13-5.41-4.1a2.33,2.33,0,0,0-1.66-.52l-5.82.73a12.36,12.36,0,0,1-3.69.21c-2.14,0-2.71-.92-1.63-2.8v-.79C36.48,32.5,38.55,31.72,42.7,33.1Z" fill="#171717"/><path d="M107.35,34.64l1.37-1.5c2.3-1.4,4.48-.61,6.65.37,1,1.19.15,2.22-.33,3.27-1.1.8-2.33.38-3.41.39,1.54.64,3.18-.68,4.83-.07.52,1.53,0,2.4-1.63,2.37s-3.15.27-4.69-.24c-1.78.21-3.42-.47-5.12-.78a2.89,2.89,0,0,0-1.36.22c-2.15,1.13-3.17,3.69-5.63,4.43-.86-.25-1-.88-.9-1.65a22,22,0,0,1,6.14-6.2C104.52,34.32,105.83,33.81,107.35,34.64Z" fill="#131313"/><path d="M138.73,19.51c-.94-.92-2.16-.73-3.2-.56-2.35.38-3.36-.66-3.6-2.83a1.79,1.79,0,0,0-.24-1.49c.17-1.13.24-2.32,1.63-2.73a1.93,1.93,0,0,1,1.22.85c.87,1.42,1.88,2.62,3.8,2.36,1.71,1.36,3.65,2.58,5.73,1.34,2.57-1.53,2.13-4.52,2.59-7,.19-1-.71-1.84-.66-2.86.23-.57.54-.94,1.2-.55,3.79,2.81.94,6.08.57,9.14a4.22,4.22,0,0,1-4.23,4Z" fill="#353535"/><path d="M107.22,30.86c.82.56.72,1.07-.07,1.56-3.78,2.76-7.57,5.52-10.54,9.22-3.87,3.33-8.53,4-12.63,1.84a2.72,2.72,0,0,1,0-.57,19.1,19.1,0,0,0,15.6-7.75C101.5,32.75,104.48,31.94,107.22,30.86Z" fill="#202020"/><path d="M147.2,6l-.95.73a2,2,0,0,1-.92.77c-2.49.74-5.1,0-7.58.65-1.44.38-3,.22-4.39.56-1.25.29-2.87.22-2.88,2.18a25.14,25.14,0,0,1-.69,4.4,1.47,1.47,0,0,1,2.21-.44c.5.44.39.85-.07,1.23a1,1,0,0,0-1.38.74c-.19,1.09-.94.54-1.51.51-1.79-1.38,0-3.74-1.42-5.21C127.38,10,128,8,130.17,7.37A41.34,41.34,0,0,1,147.2,6Z" fill="#363636"/><path d="M44.31,32.4c-.75-.46-.88-1-.08-1.52a22.59,22.59,0,0,1,10.9,7.51,10.37,10.37,0,0,0,7.78,3.89c.24,1.25-.59,1.68-1.55,2A7.83,7.83,0,0,1,55.24,42,53,53,0,0,0,44.31,32.4Z" fill="#1a1a1a"/><path d="M77.92,128.42c-2-1.13-3-1.08-5.12.25-.13.47-.35.73-.83.35l-.72-1.25c-.44-.37-.41-.69.1-1,4.51-3.45,8.09,0,11.94,1.58,1.3.6,1.53,1.93,2.12,3l.72,1.49-.66.75C82.91,132,79.83,131.05,77.92,128.42Z" fill="#404040"/><path d="M90.69,132.85c1.49,1.26.45,3,.89,4.48a3.13,3.13,0,0,1,1.36,2.34c.13,4.6,0,9.2,0,13.81,0,1.2.29,2.52-.81,3.49h-.3l-.29,0a2.72,2.72,0,0,1-1.11-2.27c0-7.07-.47-14.15.26-21.21A.94.94,0,0,0,90.69,132.85Z" fill="#656565"/><path d="M90.73,133.53c0,5.74.08,11.48,0,17.22a18.93,18.93,0,0,0,.83,6.26c-.11,1.64,1.81,1.09,2.29,2.09-2.45,1.87-3.7-.19-3.73-1.82-.11-7.86-.68-15.73.26-23.58C90.41,133.63,90.61,133.59,90.73,133.53Z" fill="#4b4b4b"/><path d="M35.32,36.68c-.13,1.5.07,2.66,2,2.48a23.88,23.88,0,0,1,3.27.11L23.3,40.71l.09-1.5c1-1.25,2.38-.93,3.69-.94a15.53,15.53,0,0,0,7.39-1.38Z" fill="#686868"/><path d="M132,38.52v1.29a2,2,0,0,1-2.31.67c-2.72-1.16-5.53-.19-8.27-.52a.71.71,0,0,1-.61-.14c-.48-1.08-1.47-.6-2.25-.75-1.39-.27-2.43-.73-1.49-2.43a1.15,1.15,0,0,1,1.44.34c1.19,1,2.58.67,3.93.55C125.82,35.83,129,36.75,132,38.52Z" fill="#181818"/><path d="M117,36.8c.33,2.62,2.38,1.32,3.7,1.58,2.16.44-.24,1,.08,1.44-3.55-.15-7.15.49-10.65-.59,1.45,0,2.89-.07,4.33-.12,1.76-.06,2.21-.77,1.09-2.24-.36.38-.66.33-.89-.14.28-.87.55-1.73.83-2.59-.43-.74-1.22-1.35-.9-2.38,3.25.13.65,3.37,2.32,4.33q.31.21.24.45C117.12,36.71,117.07,36.8,117,36.8Z" fill="#636363"/><path d="M121.4,40c3.5-1.79,7-.11,10.58-.15l2.29,1.46A42,42,0,0,1,121.4,40Z" fill="#636363"/><path d="M101.34,95.45c-1.39-1.08-.75,1.68-2.16.88a20.69,20.69,0,0,0,1.32-9.15c-.22-.78.17-1,.86-.87.75.72.58,1.73.81,2.61C102,91.11,102.58,93.39,101.34,95.45Z" fill="#7a7a7a"/><path d="M46.46,38.54c.25-.88.72-1.16,1.52-.55,1.39,1.61,3.07,2.95,4.51,4.51.48.71,1.29,1,1.89,1.59.4.54.84,1.08.41,1.81l0,0C51.17,44.41,49.14,41.1,46.46,38.54Z" fill="#3f3f3f"/><path d="M52.48,61.59l.13,1.12c.38,2.63-1.5,4.67-1.82,7.11a2.65,2.65,0,0,1-1.41,1.61l-.5,0C48.35,67.49,50.05,64.41,52.48,61.59Z" fill="#313131"/><path d="M104.28,37.61l.74.84c-2.24,2.4-4.31,5-7.15,6.75a.92.92,0,0,1-1.15-.42c-.25-1,.6-1.1,1.18-1.4C100.27,41.72,101.83,39.18,104.28,37.61Z" fill="#404040"/><path d="M91.61,129.79c1.94,2.24-.92,2.13-1.54,3.12-.81-.25-.9-.86-.77-1.57,1.36-1.86.22-4.07,1.1-6.76.24,2.2.41,3.72.59,5.24,0,.06.19.14.29.13S91.5,129.84,91.61,129.79Z" fill="#656565"/><path d="M85.41,131.43c-1.22-.65-1.44-2-2.12-3,2,.24,3.07-1.08,4.09-2.58.87,2.27-1.94,2.94-1.88,4.78Z" fill="#929292"/><path d="M61.45,43.67l1.46-1.39a6,6,0,0,1,3.93.5l-1.56.78C64.05,45.28,62.8,46.1,61.45,43.67Z" fill="#616161"/><path d="M102.17,88.92c-1-.6-.83-1.62-.92-2.55a1.56,1.56,0,0,1-.09-2.21l1.91.11Z" fill="#242424"/><path d="M64.39,120c0-5,.74-9.51,5.27-12.84,5.26-3.86,14.3-1.63,15.65,5.59.46,2.45,1.67,4.68,1.81,7.23.15,2.91-1.37,4.15-3.85,3.51a28.33,28.33,0,0,0-15.12,0C65.44,124.27,64.3,122.91,64.39,120Z" fill="#fdfdfd"/><path d="M89.77,72.9a3.67,3.67,0,0,1-1.44,3.48c-2.7,4.08-6.8,5.86-11.35,6.9-2.77.31-5.32-.52-7.86-1.44A26.29,26.29,0,0,1,63.73,77c-1-1.6-2.43-3-1.86-5.17.58-2.67-.23-5.5,1-8.09.78-1.69,1.67-2.67,3.07-.5a17.79,17.79,0,0,1,.16,5.4C66,69.87,65.78,71.1,67,72c1,.64.66,3.22,3,2.17A1.75,1.75,0,0,1,70,75.68c.26-.24.3-.64.62-.84a1.71,1.71,0,0,1,.95,0c2.89,1.53,5.53-.29,8.28-.65,5.6-1.26,6.59-2.65,6.14-8.22-.1-1.3-1.6-3.37,1.39-3.57C90.41,65.36,88.63,69.46,89.77,72.9Z" fill="#f5f5f5"/><path d="M59.9,129.85c.05,2.34.12,4.68.15,7,0,1.07.24,2.36-1.55,2.15,0,4.84,0,9.68,0,14.52,0,1.34.31,2.74-.53,4-2.63,0-1.92-2.13-2-3.46-.19-3.81-.06-7.63-.07-11.44,0-1.36.11-2.74-1.09-3.75a12.1,12.1,0,0,0-.23-5.08,1.21,1.21,0,0,1,.23-1.58c.63-2.79-1.43-5.23-.47-8.29,1.41-.69,3.51-.12,5.58,0,.47,1.57,1.51,3.29-1.08,4,.07.22.23.06.35.09C60.23,128.33,60.72,128.83,59.9,129.85Z" fill="#f2f2f2"/><path d="M59.92,121.67c-4,1.64-5,1.18-5-2.46,0-8.68-.07-17.36,0-26,0-1.36-.64-3.07,1.21-3.92,1.89,0,1.93,1.42,2.08,2.75-.41,8.73-.11,17.46-.15,26.2a3.53,3.53,0,0,0,.58,2.12C59.07,120.79,59.49,121.23,59.92,121.67Z" fill="#d7d7d7"/><path d="M61.5,86.48l2.93-.22c1.71-1,3.49-.41,5.26-.22.5,0-.18-.81,0-.35a6,6,0,0,1-4.52-.75c-.12,0-.28,0-.36-.09a3.07,3.07,0,0,1-.33-.45,7.37,7.37,0,0,1,4.75-.09,19.12,19.12,0,0,0,12.82.06c1.39-.46,3.07-.07,5.42-.07l-3.23,1.32c2.12.48,4.19,1,6.33.43a1.56,1.56,0,0,1,.53,1.27,1.51,1.51,0,0,1-.8,1.1c-6.28.54-12.56.09-18.85.17a87.45,87.45,0,0,1-10-.09C60.31,87.82,60.32,87.15,61.5,86.48Z" fill="#e4e4e4"/><path d="M63.13,111.56c.17-5.2,6.62-9.9,12.81-9.76s12.26,4.74,12.31,9.41C78.7,99.45,70.22,102.29,63.13,111.56Z" fill="#ececec"/><path d="M95.32,89.27c1.33.64,1,1.88,1,3q0,13.86-.1,27.73c0,1.13.47,2.75-1.72,2.3a3.35,3.35,0,0,1-.79-1.2c-.59-9.85-.22-19.72-.19-29.59a3.52,3.52,0,0,1,.53-1.77A1,1,0,0,1,95.32,89.27Z" fill="#f8f8f8"/><path d="M54.8,138.87c2.27-.17,2.22,1.37,2.21,2.95,0,4.1,0,8.21,0,12.31,0,1.19-.42,2.52.73,3.49a1.9,1.9,0,0,1,1.48-.8c1.51,2.28-1.49,1.17-1.65,2.2-2.52,0-3.35-.9-3.09-3.77C55,149.83,54.74,144.34,54.8,138.87Z" fill="#f4f4f4"/><path d="M69,56.23c4.46-.48,8.8-1.15,13.33.53,3,1.1,3.2.45,4.87,2.56a2.46,2.46,0,0,1-1.08,1.86,2.38,2.38,0,0,1-1.09.13C82.3,60.24,80,58.26,76.8,58c-4-.28-7.21,1.48-10.48,3.28a3.11,3.11,0,0,1-2.54-.89C63.89,57,66,56.05,69,56.23Z" fill="#efefef"/><path d="M42,83.24l-.78.89a10.65,10.65,0,0,0-3.91-.7L36,80c.91-2.43,3.63-1,5-2.38.36,0,1,.23,1,.11,1.28-2.22,1.26-2.23,4-.3a29.66,29.66,0,0,1,.43,4.76c-.06,1.07-.19,2.72-2.18,2-.25-.54-.5-1.07-.76-1.61-1.24-.69-1-1.54.31-2.91C42,80.87,42.87,82.38,42,83.24Z" fill="#414141"/><path d="M98.23,43.6l-1.51,1.18a.78.78,0,0,0-.48-.23,37.39,37.39,0,0,1-6.76,2.14A7.16,7.16,0,0,1,83.16,46c-.91-.26-2.57.39-2.21-1.5S83,44,84,43.48c4.61.67,9.07.68,12.72-2.88.75-.29.9.08.78.73s-.24,1.4.77,1.53c.23.17.31.33.22.5S98.31,43.6,98.23,43.6Z" fill="#ededed"/><path d="M90,52.64a22.69,22.69,0,0,1-12.14-2.51c4.8.65,8.18-2.21,12.35-.57,2,.77,2.26,0,1.41,2.28C91.25,52.55,90.81,53,90,52.64Z" fill="#dbdbdb"/><path d="M95.32,89.27l-.86.11c-.88,1.35-.71,2.87-.71,4.36,0,7.86,0,15.73,0,23.59,0,1.46.39,3-.66,4.34-2.1-.26-1.13-1.91-1.14-2.89-.08-8.31,0-16.62-.06-24.93,0-1.22.28-2.48-.31-3.66l-.67-.72a1,1,0,0,1-.53-.7,1,1,0,0,1,.39-.8,1.74,1.74,0,0,1,.08-.6c2-1.68,3.92-.6,5.79.39C96.78,88.77,95.47,88.52,95.32,89.27Z" fill="#6c6c6c"/><path d="M61.45,43.67a3.06,3.06,0,0,0,3.83-.11c1.78.36,3.77-.71,5.37.81.61,1.87-.76,2.08-2,2.41a16.27,16.27,0,0,1-2.42.08c-.57,0-1.15,0-1.73,0-1.49-.07-2.9-.63-4.37-.82A15.31,15.31,0,0,1,54,44.38l-1.31-1.5c.19-.3.38-.3.57,0a1.77,1.77,0,0,0,.65,0c.77-.24.19-2,1.63-1.47C57.37,42.47,59.11,43.82,61.45,43.67Z" fill="#efefef"/><path d="M60,52.06c.89-5,4.7-2.92,7.34-2.7a42.68,42.68,0,0,1,5.51,1.14,21.06,21.06,0,0,1-11.45,2.11c-.44.32-.82.12-1.17-.17Z" fill="#d7d7d7"/><path d="M57.75,91.19c-1.15-.13-.57-1.7-1.6-1.93,1.22-1.15,2.17-.33,3.13.42.74,7,.12,14.08.34,21.11.09,2.84-.29,5.68.25,8.5l.05,2.38-1.51-.12a4.86,4.86,0,0,1-.65-3.22C57.74,109.28,57.76,100.24,57.75,91.19Z" fill="#8d8d8d"/><path d="M71.55,44.49c2.14.5,4.26-1,6.43,0,1,.44,2,.58,1.84,2.11s-1.14,1.59-2.31,1.57c-1.84,0-3.68,0-5.53,0C70.42,47.08,70.31,45.86,71.55,44.49Z" fill="#dedede"/><path d="M61.5,86.48l-.75,1.35a.58.58,0,0,1-.75.24A10.05,10.05,0,0,0,57.06,88c-3.43.94-2.48-2.28-2.67-3.35-.25-1.34,1.69-2,3-1.69C59.34,83.34,61.14,84.15,61.5,86.48Z" fill="#d3d3d3"/><path d="M55.12,72c.26-4.39-.94-8.89,1.25-13.11V72.06Z" fill="#f9f9f9"/><path d="M94.6,58.76a1.77,1.77,0,0,1,1.74,1.92c0,3.36,0,6.72,0,10.08,0,.6,0,1.38-.88,1.26-.73-.1-.88-.8-.88-1.44C94.59,66.66,94.6,62.73,94.6,58.76Z" fill="#f0f0f0"/><path d="M96.62,87.76l-5.79-.4-.24-1.31c-.1-3.23,2.64-3,4.36-2.94C98.41,83.29,96.37,86.06,96.62,87.76Z" fill="#e9e9e9"/><path d="M69,56.23c-2.07.81-4.32,1.4-5.13,3.88A3.75,3.75,0,0,1,62,63.27l-.46-.16A9.5,9.5,0,0,1,71,53.82a11.13,11.13,0,0,0,1.79-.36q.35.26.21.48c-.09.15-.18.22-.26.22Z" fill="#666"/><path d="M91.56,90.19c1.44.85.71,2.24.72,3.36,0,8.23-.08,16.46,0,24.7,0,1.09-.77,2.54.84,3.28a1,1,0,0,1,1.38,0,2.93,2.93,0,0,1,.07.72c-1.74.35-3.07.53-3-2.11C91.63,110.16,91.56,100.17,91.56,90.19Z" fill="#dadada"/><path d="M62.38,72.14c0,1.8,1.32,3,2,4.57-.23.54,0,1.24-.59,1.65-4.59-3.89-4.16-9.1-3.73-14.3.06-.72.84-.79,1.43-1l.17.25C62.92,66.2,61.9,69.23,62.38,72.14Z" fill="#777"/><path d="M69.36,81.11a15.29,15.29,0,0,0,7.9,1.51c1.68-.5,3.49-.52,5-1.51.71-.45,1.67-.72,1.67.75-7.26,3.52-13,3-18-1.47C67.39,79.43,68.22,81,69.36,81.11Z" fill="#919191"/><path d="M60,88.07l.75-.24,30,.14a.5.5,0,0,0,0,.49c-1.89,1.87-4.1,0-6.1.53H64.81c-1.6-.11-3.27.87-4.79-.32C60,88.47,60,88.27,60,88.07Z" fill="#0d0d0d"/><path d="M90,52.64l1.62-.8c.87.45,2.5-.71,2.67,1,.09,1,.53,2.47-.48,3.15s-1.87-.13-2.88-.8c-1.32-.88-3.18-.94-4.82-1.36C87.1,52.53,89,54.26,90,52.64Z" fill="#ececec"/><path d="M59.87,119.29c-1.14-2.74-.52-5.61-.56-8.41-.1-7.07,0-14.13,0-21.2,1,.69.75,1.76.75,2.72C60,101.37,59.92,110.33,59.87,119.29Z" fill="#c4c4c4"/><path d="M86.25,60.88c.07-.68.21-1.31,1-1.56,3.77,4,3.08,8.79,2.55,13.58-2-3.23-.66-7.33-2.76-10.53C86.8,61.85,85.81,61.72,86.25,60.88Z" fill="#bebebe"/><path d="M100.38,72.14A1.79,1.79,0,0,0,99,70.82c-.85-.95,0-2.24-.67-3.22-.25-1.81-.51-3.62-.81-5.8a13.75,13.75,0,0,1,3.86,7.3c-.6,1.09.94,2.67-.8,3.49q-.42,0-.39-.18T100.38,72.14Z" fill="#ebebeb"/><path d="M50.12,69.83c-.06-2.69,1.59-4.77,2.49-7.12.39,0,1.13-1.16,1.12.16a37.31,37.31,0,0,1-.58,4.69c-.68,1.63.33,4.12-2.4,4.7C49.41,71.74,49.91,70.75,50.12,69.83Z" fill="#e7e7e7"/><path d="M64.53,45.86l1.52-.08A1.61,1.61,0,0,1,66,48c-3.88,0-7.55-1-11.23-2.07-.67-.29-.67-.94-.8-1.52a22,22,0,0,1,6.14.84C61.52,46,62.89,46.83,64.53,45.86Z" fill="#acacac"/><path d="M90,123.77c1-6.15-.95-12.36.31-18.51C90.75,111.44,91,117.62,90,123.77Z" fill="#a7a7a7"/><path d="M84,81.86c-2.36-.8-4.35,1.68-6.72.76,4.23-1.13,7.54-3.89,11.07-6.24C88,79.09,86.27,80.7,84,81.86Z" fill="#4b4b4b"/><path d="M62.32,123.89H60.71V105.07c1.39,4.59.67,9.22.68,13.83C61.39,120.65,61.31,122.35,62.32,123.89Z" fill="#b5b5b5"/><path d="M64.44,88.75H84.79c.22.12.29.24.22.36s-.15.17-.23.17H64.45c-.21-.11-.28-.22-.22-.34S64.37,88.75,64.44,88.75Z" fill="#9e9e9e"/><path d="M50.89,72a7.23,7.23,0,0,0,2.26-4.43c.07,2.73.23,5.45.17,8.18,0,2.13-.82,3.43-3.1,1.66.06-.16.11-.32.16-.47.66-1.43.41-3,.46-4.44C50.86,72.33,50.88,72.16,50.89,72Z" fill="#757575"/><path d="M60.09,55.09c-.26,1.8-1.8,1.36-2.48.94-1-.6-.52-2-.41-3,.22-2,1.87-.65,2.84-1a.25.25,0,0,0,0,.41A2,2,0,0,1,60.09,55.09Z" fill="#fcfcfc"/><path d="M83.16,46l6.08-.15a1,1,0,0,1,0,1.52C87,47.85,84.35,50.22,83.16,46Z" fill="#666"/><path d="M89.25,47.41V45.89c2.52.53,4.43-2.15,7-1.34C94.81,47.71,91.87,47.17,89.25,47.41Z" fill="#afafaf"/><path d="M84.78,89.28c0-.17,0-.35,0-.53l5.95-.29.15,1c-1,1.55-1.75,3.86-3.41.44C86.94,88.8,85.65,89.68,84.78,89.28Z" fill="#cbcbcb"/><path d="M71.35,126.82l-.1,1a6.64,6.64,0,0,0-4.52,3.09c-.18-1.84-3.6-2.15-2.24-4.72,1.17,2.35,2.71,2.93,4.83,1.08A1.89,1.89,0,0,1,71.35,126.82Z" fill="#959595"/><path d="M57,77.32A4.43,4.43,0,0,1,57,78.4c-.22,1.07.66,2.54-1.18,3-1,.26-1.06-.31-1.06-.92C54.8,79,54.25,77,57,77.42Z" fill="#d6d6d6"/><path d="M54.8,132.21c-.07.53-.15,1-.23,1.58-2.87-2.07-2.82-5-2.55-8.11C52.73,128,52.48,130.63,54.8,132.21Z" fill="#8e8e8e"/><path d="M94.5,77.44c3.14-.25,2.23,2.08,2,3.56-.14,1.08-1.55.36-1.67.06a11.62,11.62,0,0,1-.44-2.86A.52.52,0,0,1,94.5,77.44Z" fill="#dcdcdc"/><path d="M96.68,75.37c-.77.27-1,.43-1.2.41-1.17-.13-2.33-.31-3.49-.47.08-.33.08-.89.26-1C93.67,73.89,95,74.27,96.68,75.37Z" fill="#f8f8f8"/><path d="M52.55,85.07c-.2.88.32,2-1.08,2.06s-1.42-.78-1.43-1.67a1.75,1.75,0,0,1,1.77-1.94C53,83.53,52.43,84.57,52.55,85.07Z" fill="#efefef"/><path d="M101.16,84.16l.09,2.21-.75.81c-3.16.38-1.57-2.39-1.46-3C99.31,82.54,100.4,84,101.16,84.16Z" fill="#eee"/><path d="M69.36,81.11,66,80.39l-2.22-2c.16-.56-.22-1.32.59-1.65C65.64,78.62,67.76,79.57,69.36,81.11Z" fill="#333"/><path d="M64.44,88.75c0,.17,0,.35,0,.52-2.51,2.18-2.51,2.18-4.43-.6Z" fill="#f2f2f2"/><path d="M62.68,80.17a7.1,7.1,0,0,1,3,2.63C62.91,83.11,62.91,83.11,62.68,80.17Z" fill="#f0f0f0"/><path d="M65.19,84.94c1.79-.33,3.33.57,5,1.32H64.43C64.79,85.89,65.33,85.61,65.19,84.94Z" fill="#787878"/><path d="M55.19,75.53c.4-1.39,1.56-1.06,2.42-1.3s1.74-.76,1.85.63-1,.69-1.54.72C57,75.63,56.1,76.12,55.19,75.53Z" fill="#e9e9e9"/><path d="M94.5,77.44l-.08.76c-1.25.57,0,2.22-1.44,2.89-1.24-.94-.94-2.33-.53-3.46C92.78,76.75,93.72,76.51,94.5,77.44Z" fill="#797979"/><path d="M98.37,67.6c.93.92.45,2.14.67,3.22-.38,2.18.87,4.56-.8,6.58C98.28,74.13,98.32,70.87,98.37,67.6Z" fill="#b0b0b0"/><path d="M60.09,55.09l0-2.63,1.38.15c.83,1.52,2.56.14,3.76,1.28Z" fill="#f2f2f2"/><path d="M66,48l0-2.19,2.27.14c.37,1,2.57.31,2.09,2.17Z" fill="#bcbcbc"/><path d="M59.9,129.85c0-1-2.93-1.93-.06-3.16.36-.15.06-1.82.07-2.78a1,1,0,0,1,.52,0C60.55,125.93,61.44,128,59.9,129.85Z" fill="#141414"/><path d="M57,77.42c2.6-.12,2.7.12,1.46,3.8-1.36-1.08-.22-3-1.48-3.9Z" fill="#727272"/><path d="M70.41,48.09c0-1.44-3.1.19-2.09-2.17,1.18.09,2.39.23,2.33-1.55l.9.12L72,48.13Z" fill="#0d0d0d"/><path d="M72.75,54.16a5.36,5.36,0,0,1,0-.7c2.38.07,4.85-.67,7.23.7Z" fill="#aaa"/><path d="M91.16,71.61a15.09,15.09,0,0,1-.09-7.84A19.06,19.06,0,0,1,91.16,71.61Z" fill="#969696"/><path d="M50.12,69.83c.41.66-.45,1.78.77,2.16l.21.27c-.27,1.67.34,3.48-.77,5l-.11.12c-1.34-1.84-.29-4-.84-6C49.63,70.9,49.87,70.36,50.12,69.83Z" fill="#757575"/><path d="M88.51,80.29c.37,1.58.67,2.71-1,2.83a6.36,6.36,0,0,1-1.6-.26C86.2,81.56,87.36,81.15,88.51,80.29Z" fill="#f6f6f6"/><path d="M38.27,87.27l-1.34-1.15a9.15,9.15,0,0,0,5.9-.51C41.9,87.78,39.91,87,38.27,87.27Z" fill="#858585"/><path d="M72,129c.38.13.69.09.83-.35,1.91-.66,2,.46,2,1.9-.05,5.22-.18,10.46,0,15.67.13,3-1.11,3.12-3.25,2.21a6.89,6.89,0,0,1-4-4,3,3,0,0,1,.82-.07c1.65.4,3.81,2.36,4.73-.29.86-2.44-2-2.12-3.39-2.9-1.67-1-3.65-1.5-3.77-4s.21-5,2.73-6.41C69.74,130.1,70.86,129.58,72,129Z" fill="#f7f7f7"/><path d="M77.92,128.42c2.74,1.44,5.86,2.31,7.55,5.25.65,3.92-.41,6.76-4.68,7.81-1.32.33-3.32.73-2.46,2.85.73,1.78,2.33.84,3.59.52a19.66,19.66,0,0,0,2.19-.89A7.34,7.34,0,0,1,81,147.83c-1.18.72-2.63,1.52-3.83,1s-.53-2.24-.55-3.4c-.07-4.85-.06-9.71,0-14.56C76.65,129.88,76,128.41,77.92,128.42Z" fill="#f7f7f7"/><path d="M71.57,152.58c-2.77.63-4.59-.38-6-3.72C68.33,149.88,69.41,152.16,71.57,152.58Z" fill="#2f2f2f"/><path d="M79.13,152.34c1.54-1.47,3.42-1,5.09-1.29C83,152.63,81.61,153.94,79.13,152.34Z" fill="#323232"/><path d="M66.41,153.69c2.56.43,4.52,2.83,7.2.54C71.51,157.07,69.87,156.91,66.41,153.69Z" fill="#b8b8b8"/><path d="M78.16,155.73a15.17,15.17,0,0,0,7-2.42A5.52,5.52,0,0,1,78.16,155.73Z" fill="#c6c6c6"/><path d="M18.09,12.12c-.09.46-.25.85-.84.75-.77.29-1.1,1.66-2.09,1.15-1.46-.75-1,.84-1.57,1.11-1.07,2.48-5.11,3.72-7.28,2.23-1.48-1-3.18-7.84-2.39-9.44a2,2,0,0,1,2.18-1c5,.19,10,.24,14.81,1.57a1.12,1.12,0,0,1,.4,1.35C20.5,11,19.15,11.34,18.09,12.12Z" fill="#f5f5f5"/><path d="M20.93,16.67c2.86,2.44,6.43,3.59,9.69,5.3,3.61,1.9,5.19,5,6,8.88-2.32-7.66-9.47-9.16-15.28-12.33-1-.53-1.46-1-.43-1.86Z" fill="#c7c7c7"/><path d="M20.24,38.53c-.68-.15-1.64.13-1.87-.78a1.22,1.22,0,0,1,1.16-1.54c2.66-.41,5.32-.87,8-1.08,1.6-.12,1.14,1.51,1.53,2.4A16.81,16.81,0,0,1,20.24,38.53Z" fill="#f2f2f2"/><path d="M55.53,41.36,53.9,42.83c-1.33-4.07-4.78-6-8.13-8-2,.12-1.85-1.09-1.46-2.43C49.43,33.66,52.15,37.92,55.53,41.36Z" fill="#cecece"/><path d="M20.24,38.53l8.82-1c1.11.08,2.26.42,3.2-.53a1.48,1.48,0,0,1,2.23-.14l0,0c-1.64,2.84-4.69,1.43-7,2.25-1.21.43-2.71.07-4.08.07-.8.19-1.59.43-2.41.56C19.8,40,19.88,39.3,20.24,38.53Z" fill="#232323"/><path d="M18.09,12.12C17.88,10,20,10.54,20.9,9.74c2.08,2.32,2.35,4.2.87,6.07A6.4,6.4,0,0,1,18.09,12.12Z" fill="#111"/><path d="M42.7,33.1c-2.56.65-5.93-.82-7.37,2.79.26-3.71,3.67-5.66,7.23-4.08C42.76,31.9,42.66,32.66,42.7,33.1Z" fill="#f0f0f0"/><path d="M13.59,15.13c-.38-3.36,2.25-1.81,3.66-2.26C16.49,14.37,16.51,17.14,13.59,15.13Z" fill="#1b1b1b"/><path d="M16,39c-1.18.09-1-.83-1-1.48s-.39-1.89.82-2.12S17,36.26,17,37.08,17.2,38.84,16,39Z" fill="#dadada"/><path d="M21.77,15.81c1.49-2.28,0-4.13-.87-6.07V8.45c2.6,1.89,2.23,4.73,2.16,7.36,0,1.3-1.45.46-2.14.86h0Z" fill="#7b7b7b"/><path d="M34.49,36.86,32.26,37c-1.26-1.51-.69-2.55,1-2.69C35.4,34.14,34.06,36,34.49,36.86Z" fill="#f5f5f5"/><path d="M108.68,78.78a4.58,4.58,0,0,1,5.06-1.06c1.25.44,2.89.56,1.86,2.52-.84,1.62,1.86,1.56,1.19,3.14-1.23.11-1.91-1-2.82-1.53a4.84,4.84,0,0,0-.47-.21c-.55-.42-1-1.29-1.83-.83-1.42.78-2-.15-2.59-1.1A3,3,0,0,1,108.68,78.78Z" fill="#7f7f7f"/><path d="M108.68,78.78l.91.11c.27,1.31.77,2.62.28,4l-.42.41c-1.74,0-.75-2.64-2.72-2.76-.63,0-.06-1.55.45-2.23C108.06,77.13,108,79.28,108.68,78.78Z" fill="#e1e1e1"/><path d="M114,81.85c-.44,3.27-1.64,3.66-4.52,1.44v.08A4.67,4.67,0,0,1,114,81.89Z" fill="#7f7f7f"/><path d="M100.38,72.14a.37.37,0,0,1,.24.45c.16,1.41,1.45,2.91-.58,4.44C99.76,75.19,99.27,73.65,100.38,72.14Z" fill="#212121"/><path d="M132,38.52l-9.57-1c-.07-1.58.32-2.64,2.28-2.31,2.21.36,4.45.53,6.65.91C133.06,36.43,133.44,37.27,132,38.52Z" fill="#f5f5f5"/><path d="M129,17.37l1.51-.51c.64.42.88.88,0,1.32-1.43.74-2.85,1.49-4.3,2.19-4.8,2.32-9.88,4.33-11,10.66-.29-3.72,1.42-6.34,4.84-8.61C123,20.52,126.45,19.71,129,17.37Z" fill="#cecece"/><path d="M97.48,41.33l-.78-.73c3-3.3,5.71-7.05,10.45-8.18.06.74.13,1.48.2,2.22-3,.06-4.92,2.15-6.93,4Z" fill="#d3d3d3"/><path d="M114.6,31.76a1.75,1.75,0,0,1,.9,2.38l-6.78-1c-.45-1.1-.08-1.64,1.1-1.59C111.42,31.61,113,31.69,114.6,31.76Z" fill="#e5e5e5"/><path d="M134.41,37.19c.13-.61-.38-1.79,1-1.83s1.19,1.06,1.13,1.88c0,.63.32,1.62-.77,1.74S134.26,38.35,134.41,37.19Z" fill="#ddd"/><path d="M117,36.8a.75.75,0,0,0-.09-.71c.35-.61-.44-1.88.92-1.86a1.73,1.73,0,0,1,1.9,1.28c.35,1.29-.37,1.38-1.25,1.47Z" fill="#f7f7f7"/><path d="M59.23,156.82c-.19.82-.8.88-1.48.8,0-5.37-.07-10.74,0-16.11,0-.82-.76-2,.75-2.49,1.42,4.38.32,8.89.64,13.32C59.25,153.83,59.21,155.33,59.23,156.82Z" fill="#0d0d0d"/><path d="M42,83.24a29.37,29.37,0,0,0-.08-3c-.14-1.16.7-1.18,1.38-1.64.93-.63,1.12.1,1.33.52.48.94.3,1.41-1,1.61-1,.16-.42,1.17-.2,1.83Z" fill="#e8e8e8"/><path d="M41,77.59c-.09.51,1.56,1.53-.63,1.47C39,79,37.23,78.71,36,80,36.19,77.94,37.26,77.44,41,77.59Z" fill="#9e9e9e"/><path d="M37.34,83.43a2.83,2.83,0,0,1,3.91.7C39.78,84.85,38.42,84.93,37.34,83.43Z" fill="#8f8f8f"/><path d="M92.17,157,92.35,139a.87.87,0,0,1,1.38-.16c0,5.54.06,11.09,0,16.63C93.72,156.25,94.58,158.56,92.17,157Z" fill="#0c0c0c"/><path d="M93.73,138.88l-1.38.16c-.93-.27-.87-1-.77-1.71,1-.65,3,.5,3-1.8C95.33,136.9,97.57,138.62,93.73,138.88Z" fill="#c6c6c6"/><path d="M43.22,36.76c-2.48,1-2.74,1-6.88.82A12.72,12.72,0,0,1,43.22,36.76Z" fill="#f4f4f4"/><path d="M53.25,42.87,53,43l-.29-.1A10.19,10.19,0,0,1,48,38C50.21,39.11,51.68,41,53.25,42.87Z" fill="#b2b2b2"/><path d="M98.23,43.6c0-.25,0-.5,0-.74,1.79-2,3.23-4.41,6-5.25A30.93,30.93,0,0,1,98.23,43.6Z" fill="#b6b6b6"/><path d="M114.67,36.73l.89.14c-2.38,2.48-4.88-.1-7.34-.14Z" fill="#dedede"/><path d="M145.52,7l.73-.22c1.63,1.93,1.36,8.23-.62,10.09-2.37,2.23-4.87.68-7.27-.12-.75-.25-.41-1-.48-1.62a3,3,0,0,1-.78-1.79,5.91,5.91,0,0,1-.15-1.51,1.14,1.14,0,0,1,.56-.8,2.92,2.92,0,0,1,1.52-.11c2.41.55,4.18-.95,6.09-1.92C145.61,8.4,144.78,7.53,145.52,7Z" fill="#f7f7f7"/><path d="M129.58,10.05c1.66-3.39,4.89-2.07,7.53-2.5a2.3,2.3,0,0,1,2.47.11c.68,2-2,1.61-2.08,3.05a.57.57,0,0,1-.26.67l-.13.16a4.61,4.61,0,0,1-1.57.92,2.52,2.52,0,0,1-1.31.35c-.55.11-.75-.2-.82-.68C132.22,11.28,130.78,10.89,129.58,10.05Z" fill="#f7f7f7"/><path d="M129.58,10.05c1.88-.42,3.43-.21,3.83,2.08L132,14.89c-2.11.64-3.77.84-2.56-2.31A8.43,8.43,0,0,0,129.58,10.05Z" fill="#2b2b2b"/><path d="M134.23,12.81l.77-.71c.94.42,2,.4,2.95.85l-.07,2.17C136.32,16.42,134.81,15.46,134.23,12.81Z" fill="#1e1e1e"/><path d="M139.47,8.16l-2.36-.61A25.06,25.06,0,0,1,145.52,7c-.57.89,1.76,1.16.48,2.21-2.38.62-4.29,2.74-7,2.23l-1.72,0c0-.21,0-.42,0-.63,1.89-1.71,4.31-2.24,6.67-2.87.45-.22-.21-.59.06-.17.07.09,0,.18-.28.24C142.29,8.24,140.92,9,139.47,8.16Z" fill="#d9d9d9"/><path d="M80.14,74.94c-1.71.84-4.1-.22-5.34,2-.37.64-.33-.1-.34-.17-.46-2.19-1.19-2-2.12-.26L71.48,75a38.36,38.36,0,0,1-1-8c-.3-3.56,1.36-4.81,6.56-5.72a2.29,2.29,0,0,1,1.07.1c1.89,1.32.36,3.13.7,4.63-.24.5.54.22.06.09-.11,0-.07-.13,0-.36.24-.67.38-1.45,1.42-1.13,1.81,2.73.83,5.73.86,8.64A4,4,0,0,1,80.14,74.94Z" fill="#5b5b5b"/><path d="M80.14,74.94l.11-1.31a25.72,25.72,0,0,0,.15-9c-.13-1.23-.47-2.38.22-3.53.95-.88,1.88-1,2.75.12-1.58,1.89-.3,4-.49,6-.12,1.27,0,2.55,0,3.22.72-2.44-.85-5.59.18-8.61a.74.74,0,0,1,1-.34c1.21,2.61,1.1,5.41,1.1,7.88.07.8.83.17.37.38-.58-2.49-.43-5.07-.91-7.58a1.26,1.26,0,0,1,.93-1.29,3.76,3.76,0,0,1,.75,0c-.15.7,1.44.52.76,1.49-1.37.89-.37,2-.21,3C87.83,71.78,86.6,73.58,80.14,74.94Z" fill="#949494"/><path d="M77.33,61.57c-.37.31-.72.87-1.1.9-4.35.29-5.89,2.12-4.82,6.11.58,2.17,1.07,4.26.07,6.4l-.93.16c-1.69-2.55-.93-5.44-1.08-8.2a29.19,29.19,0,0,0-.27-4.38,3,3,0,0,1,.23-1.36C72.67,59.13,75.08,59.24,77.33,61.57Z" fill="#cfcfcf"/><path d="M62.38,72.14c-1.92-2.79-.54-5.85-.72-8.78l2.23-3.25,2,.72c.44.31,1,.43,1.27,1a1.75,1.75,0,0,1-.82,2.36,1.27,1.27,0,0,1-1-.25c-.3-1.26-.81-2.23-1.49-.25a11.17,11.17,0,0,0-.58,6.59C63.52,71.27,63.68,72,62.38,72.14Z" fill="#bababa"/><path d="M69.76,74.35c-1.52,0-2.73-.51-3-2.25l-.15-.61c0-2.87-.93-5.86,1.23-8.68,2.63,3,.47,6.79,2,9.78A1.5,1.5,0,0,1,69.76,74.35Z" fill="#737373"/><path d="M69.76,74.35c0-.54-.05-1.09-.08-1.63-1-3.39-1.3-6.78.24-10.12,1.51,4.12,0,8.38.63,12.54l-.51.8Z" fill="#6e6e6e"/><path d="M65.31,63.93a1.64,1.64,0,0,1,.73-.07c1.34,2.68.49,5.53.7,8.3l.05-.06c-2.12.55-1.73-1.35-1.78-2.19A50,50,0,0,1,65.31,63.93Z" fill="#737373"/><path d="M57.75,91.19a11.15,11.15,0,0,1,.77,4.68c-.07,8.56-.08,17.12-.11,25.68-.87.11-1.39-.11-1.39-1.14,0-9.32,0-18.63,0-27.94C57.07,92,57.51,91.62,57.75,91.19Z" fill="#0c0c0c"/><path d="M94.45,121.53H93.07q0-14.34-.08-28.67c0-1.4-.06-2.76,1.47-3.48Q94.46,105.45,94.45,121.53Z" fill="#0c0c0c"/><path d="M66.79,61.82c-.55-.1-1.05-.25-.9-1,7.36-5.2,12.59-5.19,19.61,0l-.79.81c-.2.32-.42.31-.65,0l-.81-.09h0c-.6-.93-1.5-.66-2.35-.58a3.29,3.29,0,0,1-2,.73l-.42-.11-1.16-.09c-2.53-1.43-5.06-1-7.59,0A2.26,2.26,0,0,1,66.79,61.82Z" fill="#161616"/><path d="M64.53,45.86c-1.73,1.42-3.16,1.22-4.4-.64Z" fill="#0d0d0d"/><path d="M50.33,77.28c-.16-1.74-.59-3.52.77-5C52,74.11,53.16,76,50.33,77.28Z" fill="#0c0c0c"/><path d="M6.15,8c4.2-1,6.57.38,9.29,2.24C11.73,11.5,9.77,8.82,6.15,8Z" fill="#2e2e2e"/><path d="M13.24,12.19c-3.59.23-5.36-1.68-7.47-2.69C8.23,9.57,10.39,10.45,13.24,12.19Z" fill="#525252"/><path d="M6.87,16.36c2.24-.71,3.64-1.89,5.42-.93C10.77,16.06,9.3,16.88,6.87,16.36Z" fill="#676767"/><path d="M114,81.89c-1.27,1.3-3.21.52-4.59,1.48l.15-4.48c.76-.32-.14,2.81,1.89.73C112.58,78.49,113.75,80.39,114,81.89Z" fill="#242424"/><path d="M139,11.43c2.39-.63,4.52-2,7-2.23C143.82,10.45,142.06,13.05,139,11.43Z" fill="#505050"/><path d="M144.55,16.36c-2.38.55-3.86-.3-6.26-.78C140.94,14.34,142.37,15.68,144.55,16.36Z" fill="#686868"/><path d="M138,13c-1.34.94-2.56,1.51-2.95-.85.48-1,1.33-.7,2.12-.56C137.39,12,137.67,12.48,138,13Z" fill="#a3a3a3"/><path d="M139.47,8.16a9.72,9.72,0,0,1,5.09-.24c-2.63,1.16-4.69,2.69-7.33,2.83-.31-.27-1.45-.24-.44-1A28.72,28.72,0,0,1,139.47,8.16Z" fill="#292929"/><path d="M78.5,61.67c.74-.44,1.43-1.07,2.4-.63.07,3.22.17,6.44.19,9.65,0,1,.56,2.29-.84,2.94-.69-3,.86-6.16-.68-9.09C78.52,63.84,79.4,62.42,78.5,61.67Z" fill="#f5f5f5"/><path d="M78.5,61.67c1.11.67.88,1.85,1.07,2.87-.08,1.58-.16,3.16-.26,5.3-2.26-2.93-.7-5.63-.82-8.18Z" fill="#151515"/><path d="M75.68,71.54c1.12-.06,1.37.55,1.42,1.38S77,74.77,76,75c-1.13.29-1-.76-1-1.41S74.6,71.84,75.68,71.54Z" fill="#f3f3f3"/><path d="M77.17,68.64c.06,1-.88,1.39-1.66,1.38s-.46-.91-.47-1.43c0-.71,0-1.54,1-1.57S77.18,67.74,77.17,68.64Z" fill="#0c0c0c"/><path d="M78.52,74.85c-1-1.74-.72-2.9-.43-4.46C79.84,71.8,79.71,73,78.52,74.85Z" fill="#d6d6d6"/><path d="M83.25,61.62V72.36l-.42,0c-.32-3.17-.63-6.34-1-9.5-.11-1.05.56-1.23,1.37-1.26Z" fill="#f0f0f0"/><path d="M84.06,61.71a.91.91,0,0,1,.65,0c1.55,2.94.47,6,.27,9.1Z" fill="#f0f0f0"/><path d="M66.79,61.82l2.95-.22.18,1-.24,10.12c-1.7.42-1.43-.82-1.44-1.75,0-2.45,0-4.9,0-8-1.56,3.37.08,6.5-1.49,9.18-1.53-2.65-.41-5.53-.7-8.3C66.76,63.36,66.7,62.56,66.79,61.82Z" fill="#e3e3e3"/></svg>