<svg xmlns="http://www.w3.org/2000/svg" width="120" height="120" viewBox="0 0 120 120"><title>cogwheel-22</title><path d="M119.07,50l-10.25-.38c-.26-1.15-.54-2.3-.87-3.42l8.8-5.25A60.2,60.2,0,0,0,114.4,35l-10,2.29c-.54-1-1.12-2.07-1.73-3.07l7.13-7.35A62.69,62.69,0,0,0,106,21.81l-9,4.78q-1.18-1.31-2.46-2.52l5-8.93a61,61,0,0,0-5-3.93l-7.51,7q-1.49-.95-3-1.8l2.51-9.94a58.08,58.08,0,0,0-5.83-2.5l-5.45,8.68c-1.11-.35-2.25-.66-3.4-.94L71.64,1.41A61.63,61.63,0,0,0,65.36.52l-3,9.8c-.59,0-1.17-.05-1.76-.06s-1.18,0-1.76,0L56,.41a59.53,59.53,0,0,0-6.3.75l-.38,10.25c-1.16.25-2.3.53-3.42.86l-5.25-8.8a60.27,60.27,0,0,0-5.89,2.36l2.29,10C36,16.37,35,17,34,17.56l-7.34-7.14a59,59,0,0,0-5.07,3.82l4.78,9c-.87.8-1.71,1.62-2.52,2.47l-8.93-5a62.89,62.89,0,0,0-3.93,5l7,7.5c-.63,1-1.24,2-1.8,3L6.2,33.76a62.71,62.71,0,0,0-2.5,5.83L12.38,45c-.36,1.12-.66,2.25-.94,3.4l-10.26.15a61.63,61.63,0,0,0-.89,6.28l9.8,3c0,.58-.05,1.17-.06,1.76s0,1.17,0,1.76L.18,64.2a58.91,58.91,0,0,0,.75,6.3l10.25.38c.25,1.16.53,2.3.86,3.43l-8.8,5.24A59.28,59.28,0,0,0,5.6,85.44l10-2.28c.54,1,1.12,2.07,1.73,3.07l-7.14,7.34A60.7,60.7,0,0,0,14,98.65l9-4.79q1.19,1.31,2.46,2.52l-5,8.93a63,63,0,0,0,5,3.94l7.5-7c1,.64,2,1.24,3,1.81L33.53,114a60.06,60.06,0,0,0,5.83,2.49l5.45-8.68c1.12.36,2.25.67,3.4,1L48.36,119a58.6,58.6,0,0,0,6.28.9l3-9.81c.58,0,1.17.06,1.76.07s1.17,0,1.76,0l2.8,9.88q3.18-.22,6.29-.75L70.65,109c1.16-.25,2.3-.53,3.43-.86l5.24,8.8a57.8,57.8,0,0,0,5.89-2.35l-2.28-10c1-.54,2.07-1.12,3.07-1.73L93.34,110a61,61,0,0,0,5.07-3.81l-4.78-9q1.31-1.19,2.52-2.46l8.93,5a61.09,61.09,0,0,0,3.94-5l-7-7.51c.64-1,1.24-2,1.8-3l10,2.52a59.2,59.2,0,0,0,2.49-5.84l-8.68-5.44c.36-1.12.67-2.26,1-3.41l10.25-.14a61.64,61.64,0,0,0,.9-6.28l-9.81-3c0-.58.06-1.16.07-1.75s0-1.18,0-1.76l9.88-2.8Q119.6,53.05,119.07,50ZM59.51,102.2A42,42,0,1,1,102,60.71,42,42,0,0,1,59.51,102.2Z" fill="#212121"/></svg>