<svg xmlns="http://www.w3.org/2000/svg" width="172.36" height="164.3" viewBox="0 0 172.36 164.3"><title>engine</title><path d="M54.49,91.27c-2,.5-2.91,2.14-4.08.59s1-2.25,1.21-3.36c-.89-.85-1.45-.38-2.12,0a1.62,1.62,0,0,1-2.35-.19c-.76-1,0-1.62.61-2.23.44-.42,1.06-.78.34-1.4a1.08,1.08,0,0,0-1-.08c-1,.51-2.07,1.82-3.21.27s1.62-2,1.14-3.6c-1.45-.79-2.91,2.11-4.27.23-1.1-1.53,1.31-2.12,1.32-3.5-1.53-1.42-3,2.36-4.45,0-1-1.62,1.27-2.16,1.43-3.34-1.67-1.52-3.2,2.29-4.63-.14-1-1.66,1.59-2,1.42-3.43-.78-.71-1.36-.26-2,.22-.87.64-1.79,1-2.58-.13s.13-1.55.69-2.21c.32-.38,1.27-.55.6-1.37-.37-.46-.74-.45-1.25-.12-1,.65-2.13,1.84-3.19.28s1.44-2,1.45-3.48c-1.51-1.56-3.27,2.55-4.69-.11-.88-1.65,1.76-1.93,1.49-3.48-1.61-1.2-2.9,2.48-4.46.36-1.28-1.74,1.59-2.26,1.28-3.83-1.59-.89-3.11,2.53-4.54.17-1-1.62,1.57-2,1.58-3.52-1.56-1-2.92,1.59-3.43.9-1.69-2.23-4.72-1.46-6.37-3.22-3.86-4.12-7.1-8.67-5.82-14.72.4-1.94-.31-3-1.22-4.3C1.11,29.23,1.34,27.35,4.54,25,14,18,23.42,11.05,32.84,4.06c2.44-1.81,5.16-2.43,6.83.36,2.07,3.46,5.52,3.69,8.61,4.6,3.81,1.1,9,8.16,8.39,12.13-.08.5-.89,1.21.32,1.31.86.07,1.53,1.59,2.58.31A36.27,36.27,0,0,0,62.08,20c12.09-18.14,39.62-18.84,52.61-.36a4.7,4.7,0,0,0,.51.49c2.58-6.57,6.38-11.82,14.07-12.5,2-.18,2.3-1.71,3.15-2.77,2.1-2.62,4.37-3.11,7.11-1.08l28.93,21.31c2.35,1.73,3.36,4.2,1.37,6.42-2.68,3-1.84,6.34-1.75,9.58.1,3.64-5.34,11.14-8.87,11.66-.36,0-.79-.2-1.1-.07-1.05.42-.69,2.52-2.52,2.12-1-.23-1.59-1.74-3-1.08-.59,1.64,2.89,2.19,1.23,4-1.52,1.62-2.74-1.07-4.1-.78-.66,1-.06,1.4.4,1.76.94.74,1.26,1.6.47,2.55s-1.55.28-2.32-.16c-.56-.32-1.08-1.25-1.85-.36-.4.45-.15.88.32,1.22.87.61,1.68,1.42.89,2.45-.92,1.22-2,.44-2.93-.21a1.05,1.05,0,0,0-1.42-.1c-.68.93.33,1.18.78,1.64.67.68,1.14,1.39.35,2.26-.94,1-1.77.32-2.64-.19-.46-.27-.83-1-1.56-.32s0,1,.38,1.41c.72.69,1.69,1.37.65,2.46-.89.94-1.79.45-2.64-.2-.51-.38-1.07-.67-1.72,0-.21,1.37,2.65,1.92,1.17,3.67s-2.7-1.56-4.3-.32c-.18,1.41,2.65,2.05,1.13,3.73s-2.53-1.1-4.06-.53c-1,1.58,2.76,2.34.85,4-1.42,1.25-2.42-.76-3.72-.68-.64.56-.46,1.08.08,1.55.77.7,1.56,1.39.57,2.48s-1.81.24-2.63-.26c-.56-.35-1-.72-1.51.07-.37.62.15.84.48,1.16.62.63,1.38,1.27.64,2.23s-1.74.69-2.62,0a1.27,1.27,0,0,0-1.73,0c-.07,1.27,2.21,1.81,1.12,3.46-.93,1.43-2-.12-3.12.22.26,1.16,1.41,2.36.56,3.42-3.3,4.08-4.25,9-5.63,13.88-.52,1.85-1,2.94.83,4.38a19,19,0,0,1,6.19,8.75c1.42,4,.45,7-3.27,8.74a3.77,3.77,0,0,0-2.28,3A31.59,31.59,0,0,1,110,145.88c-2.1,2.85-4.61,5.26-5.83,8.9s-5.11,5.08-8.86,5.2q-10.11.33-20.23,0c-5.41-.17-8-3-8.56-8.92-.14-1.39.1-3.1-2-2.64-1.75.39-4.39-1.7-5.15,1.68-.66,2.88-2.9,2.7-5,2.54s-2.49-1.81-3-3.63c-2.16-7.58-1.5-15.31-1.62-23,0-.7.23-1.95-.54-1.94-4,0-2.37-2.93-2.6-4.79a39.53,39.53,0,0,1,0-4.87c0-5.43,0-5.43,5.31-6.46.54-.11,1.77-.18,1.37-.69-2.79-3.6,5.3-4.09,2.09-7.93C53.57,97.27,51.09,94.85,54.49,91.27Z" fill="#0c0c0c"/><path d="M39.09,31.83l-4.42,3A10.5,10.5,0,0,0,30,37.73,2.59,2.59,0,0,1,27,38c-1.5-2-1.62-4.31-1.43-6.69C22.78,32,21.45,35.62,18,34.9a.8.8,0,0,1,0-1L21.1,31A22.58,22.58,0,0,1,31,23.62c5-3.58,10-7.1,14.84-10.77,1.92-1.44,3-1.8,4.72.6,4.57,6.44,4.7,6.29-1.52,11-2.87,2.15-6,4-8.5,6.61A1.58,1.58,0,0,1,39.09,31.83Z" fill="#fbfbfb"/><path d="M132,30.39c-4.11-3-8.17-6.09-12.33-9-1.69-1.21-1.88-2.27-.57-3.94,6.21-7.93,3.66-7.35,11.19-2.1,4.17,2.9,8.23,6,12.33,9,2.66.46,4.34,2.62,6.59,3.81,1.8,1.65,4.52,2.45,4.93,5.37a1.23,1.23,0,0,1-1.22.94c-2.65-.6-4.36-2.58-6.12-4a7.24,7.24,0,0,1-.58,6.61,3.57,3.57,0,0,1-2.82,1.64l-9.75-6.8C132.72,31.73,132.44,31,132,30.39Z" fill="#fafafa"/><path d="M75.17,13.83c10-4.45,19.66-4.18,29.07,1.58,2.18.32,4.19,1.5,4.88,3.34.78,2.06,1.46-.36,2,.31C118.91,28,121.2,37.83,116.23,49c-.74.11-1-.38-1.23-1-.33-1.6.32-3,.8-4.47,1.24-1.32.83-3,1-4.43-.4.89.4,2.18-.82,3.34-2.09-2.14-1.67-5.06-2.52-7.5-2-10.21-7.31-17.76-17.61-20.77C82.56,10.29,70,16.75,65,29.64a18.74,18.74,0,0,1-1.53,3.81c-2.9,2-3.15,1.92-3.49-1.86a25.77,25.77,0,0,1,6.25-12.53A4.94,4.94,0,0,0,69,17.15C70.92,15.83,72.68,14.15,75.17,13.83Z" fill="#f7f7f7"/><path d="M126.79,36.31l.6-1.5c.72-.41.79-1.24,1.19-1.86.74-1.17,1.78-1.89,3.14-1.43,1.65.56,1.83,1.83,1.12,3.3l0-.08c-.74,1-.31,2.36-1.11,3.32-.5.7-.9,1.57-2,1.3-.47-.61-.63-1.25-.51-1.4a30.17,30.17,0,0,1-.94,3.19,98.48,98.48,0,0,1-7.61,14.17c-1.29,1.66-2.42,3.42-3.62,5.13l-2.19,4.23c-1.26,1.72-2,3.74-3.06,5.53l-2.2,4.24c-1.26,1.69-1.91,3.72-3,5.48-.19.45-.37.89-.57,1.33-.31.7.12,2-1.11,1.94S103.64,82,103.51,81c-.54-1.2.19-2,.86-2.86l.72-1.33c.67-1,.48-2.31,1.53-3.07l-.06.06c1.39-1.55,1.53-3.81,3-5.29q1.11-2.22,2.23-4.44c1.32-2.28,2.38-4.69,3.78-6.92q4.88-8.93,9.73-17.85C125.87,38.31,126,37.17,126.79,36.31Z" fill="#242424"/><path d="M58,28.16c-3.33,13.41-.26,24.12,8.86,33.45-1.77.58-3-.48-4.25-.8a30.64,30.64,0,0,1-4.19-1.56A54.63,54.63,0,0,1,48.1,54.08c-4.19-2.88-4.75-4.8-2.52-9.46C48.46,38.62,52.75,33.65,58,28.16Z" fill="#ececec"/><path d="M135.13,41.6c1.47,0,2.66.69,2.23,2.18-.57,1.95-1.29,4.36-3.39,4.92A4.06,4.06,0,0,0,131.35,51C128.08,56.27,124,61.29,121.89,67a90.63,90.63,0,0,1-8.33,16.87c-.19.32-.36.66-.57,1-.6.88-1.11,2.45-2.4,1.62s.2-1.76.64-2.51q3-5.16,6.26-10.2c1.46-2.28,1.88-4-1.35-4,6.74-6.05,10.15-14.45,14.51-22.2C132.29,45.73,132.92,43.08,135.13,41.6Z" fill="#f5f5f5"/><path d="M65.36,139c2,4.17,1.83,4.55-2.35,4.55-5.66,0-5.67,0-5.84-5.51a22.27,22.27,0,0,0-.47-5.17c-.45,2.64-.89,5.27-1.33,7.91l-.44-.06c0-4.92,0-9.84,0-14.76,0-2.39,2.22-2,3.56-2.78a.81.81,0,0,1,1.09.1c1.47,3.16.57,6.53.8,9.8.09,1.22,0,2.45,0,3.68s-.07,2.81,1.4,3.56S64.25,139.69,65.36,139Z" fill="#f2f2f2"/><path d="M81.21,139.93l-2-1.62a8,8,0,0,1-3.85-3.69c.36-1.59-1.17-3.62,1.1-4.78,1,.46,1.54,1.46,2.2,2.28,5,6.55,12.31,4.54,15.81-.26.51-.7.85-1.55,1.65-2,.75,0,1,.48,1.28,1.19a19.35,19.35,0,0,0-1.08-8.45,3.26,3.26,0,0,1,.06-1.67,1.21,1.21,0,0,1,1.38-.81c1.51,1,1.8,2.55,2.08,4.14.65,6.21-1.1,11.28-6.82,14.49C89.28,141.21,85.24,140.51,81.21,139.93Z" fill="#111"/><path d="M65.36,139c-.36,1.25,1,3.5-2,3.19-2.16-.22-3.87-.56-3.85-3.34,0-5.2-.1-10.41-.16-15.61-.75-2.52-.19-5.1-.34-7.64-.09-1.56.91-1.81,2.15-1.7.71,2.84-.09,5.68,0,8.53A21.81,21.81,0,0,0,65,134.56C65.72,136,65.2,137.55,65.36,139Z" fill="#191919"/><path d="M77.15,64.74c-8.83-4-14.09-11.1-17.05-20.11a31.8,31.8,0,0,1-.38-5.15c.05-.88-.11-1.89,1.1-1.95s1.42.87,1.6,1.73c.61,3,1,6.09,2.65,8.79a5.43,5.43,0,0,1,1,1.94,8,8,0,0,0,3.64,5.24,33.73,33.73,0,0,0,11.74,7.3,4,4,0,0,1,1.35,1.71A1.79,1.79,0,0,1,81.55,66C80,66,78.59,65.24,77.15,64.74Z" fill="#131313"/><path d="M43.34,54.28c7,3.65,6.72,12.14,13.53,15.14-4.06.92-2.74,2.81-1.41,4.87,2.22,3.46,4.31,7,6.46,10.5.39.64,1,1.39.11,1.9s-1.41-.19-1.81-.86c-2.71-4.48-6.3-8.68-7.78-13.54a40.74,40.74,0,0,0-3.58-8.79C47.25,60.71,45.55,58,43.34,54.28Z" fill="#f2f2f2"/><path d="M99.19,124c-.58-1.23-1.16-2.47-1.75-3.7a10.35,10.35,0,0,1-1.61-.93C86.68,112,78.43,114.1,74.3,125c-.79,1.12-.07,3.13-2.08,3.51-.59-9.4,5.89-16.73,14.58-16.37a14.37,14.37,0,0,1,13.71,17.12C98.14,128,100.36,125.57,99.19,124Z" fill="#eee"/><path d="M25.66,12.39c2.4-1.76,4.79-3.53,7.21-5.28,4.12-3,4.74-2.78,7,2.18-1.88.13-1.6-1.83-2.53-2.54C35.87,7.84,34.44,8.94,33,10s-3.08,1.7-1.23,3.92c1.4,1.66-.81,2.08-1.58,2.55-1.15.68-2,3.11-3.92,1.23-.63-.62-1-1.42-2.11-.91-1.74.07-.79-1-.53-1.51C24.15,14.25,25.26,13.57,25.66,12.39Z" fill="#dfdfdf"/><path d="M105.08,86.46c.88-1.21,1.52,0,2.13.3,2.76,1.51,4.94,3.91,8,5.06,3.3,1.25,3.51,3.34,1.21,5.87a17.63,17.63,0,0,0-1.2,1.77c-.59-1.42-1.1-2.65-1.62-3.88a5,5,0,0,0,.31-.66,2.74,2.74,0,0,0-.2.73,6,6,0,0,1-3.9-2.72c-1.9-2.91-5.47-3.12-8.44-4.27a1.26,1.26,0,0,1-.37-.94,2.08,2.08,0,0,1,1.82-1.64C103.61,85.91,104.17,87.22,105.08,86.46Z" fill="#eaeaea"/><path d="M58.34,66.25C58,65,57,63.79,57.55,62c1.67.89,3.35,1.58,4.06,3.52,1.06.72.81,2.1,1.52,3,.82.25.08,1.06.52,1.44,1.73,2.06,2.67,4.59,4.08,6.83.57.29.62.81.61,1.37.66.33.29,1.16.76,1.59a18.73,18.73,0,0,1-.23,2.5c-.13.59-.59,1.19-1.28,1-.89-.25-.71-1.11-.72-1.81-1.23-1.74-1.61-4-3.3-5.45l-2-4.34C60.37,70,60,67.71,58.34,66.25Z" fill="#252525"/><path d="M31,23.62A78.49,78.49,0,0,1,21.1,31c-2.21-.8-3.08,1.36-4.6,2.06-1.91.89-3.12,3.45-5.82,2.49,1.33-2.77,3.9-3.91,6.52-5,1.69-2.76,4.34-4.32,7.16-5.66,1.41-.92,2.1-3,4.29-2.66Z" fill="#2f2f2f"/><path d="M116.36,43.77l-.94,4.31c-.87,4.5-3.89,7.6-6.93,10.69a43.77,43.77,0,0,0-3.42,3.39c-2.15,1-4.06,2.63-6.62,2.62-1-.06-1.76-.33-1.82-1.49,1.55-2.61,4.88-2.41,6.85-4.36,5.16-3.3,8-8.31,10.17-13.82C114.37,44.29,115,43.34,116.36,43.77Z" fill="#121212"/><path d="M18.77,45.2c-2.81,1.49-5.2,2.14-7.39-1.32-2.55-4,.49-5.21,2.87-6.91a.83.83,0,0,1,.95-.13,13,13,0,0,0,5.26,6C20.8,44.32,19.84,44.8,18.77,45.2Z" fill="#f3f3f3"/><path d="M147.07,16.7c-.77,1.78-2,2.26-3.25.66-.95-1.26-4.56-1.14-2.5-4.06.91-1.28.61-1.86-.49-2.59-1.42-1-2.78-2-4.17-3,.6-2.54,2.17.21,3.09-.56q3.65,2.61,7.3,5.21C146.94,13.82,151,15.24,147.07,16.7Z" fill="#ededed"/><path d="M165.13,28.83l-3.83-3.07c-.91-.79-1.69-.42-2.7,0a3.16,3.16,0,0,1-4.5-3.55c.41-1.92-.72-2.4-1.78-3.19l.05,0c-.62-.66-2.14-1.16-1.36-2.18.92-1.2,1.9.25,2.83.64,4.08,3,8.14,6.08,12.23,9.09,1,.76,2,1.5,2,2.94C166.81,30.52,166.08,29.23,165.13,28.83Z" fill="#111"/><path d="M79.82,72c2.63.22,5,.83,7.11.5,3.24-.51,2.63,2.14,3.39,3.57.34.63-.17,1.25-1.22,1.19-1.26-.07-1.81.72-1.34,1.94.3.8,1,1.68-.33,2A3.39,3.39,0,0,1,85,81.08c-1.19-.79.17-1.36.45-2.06.44-1.09.2-2.24-1.13-2.07-2,.27-2.46.33-1.26-1.85C85,71.49,80.77,73.83,79.82,72Z" fill="#e0e0e0"/><path d="M75.83,97.12,71.4,100c-2.35-1.53-4.21-3.41-4.51-6.38,1.93-1.48,3.93-2.8,6.52-2.68C74.59,92.88,76.93,94.33,75.83,97.12Z" fill="#101010"/><path d="M148.62,28.7l-6-4.41,1.48-2.09c2.76.1,4,2.92,6.46,3.58l5.31,4.43c1.58,1.44,4.06,1.84,4.83,4.2-.19.84-.82,1.05-1.57,1.1l-.51,0c-3.24-1.44-5.42-4.31-8.34-6.18C149.74,29,149.34,28.4,148.62,28.7Z" fill="#2e2e2e"/><path d="M101.38,100c-1.88-.36-2.5-2.7-4.5-2.87-.33-3.59,1.44-6.1,4.41-6.24l3.79,2.3A6.9,6.9,0,0,1,101.38,100Z" fill="#101010"/><path d="M11.41,25.76,7.63,28.68c-.76.42-1.52,1.63-2.4.53-.69-.86.35-1.46.9-2l12-8.82a6.25,6.25,0,0,1,1.55-1A1,1,0,0,1,21,17.5c.5.65.08,1.24-.47,1.52-1.64.82-2.15,1.83-1.87,3.82.32,2.3-2.22,3.85-4.48,3C13.15,25.41,12.33,25.1,11.41,25.76Z" fill="#101010"/><path d="M130,39.12l1.12-1.45c1.4-.05,1.43.69,1,1.7-4,3.86-3,10.06-6.53,14.14a27.19,27.19,0,0,0-1.69,2.4,2.17,2.17,0,0,1-1.94-1c-.66-1.67.42-2.85,1.18-4.11a66.65,66.65,0,0,0,5.48-11C129,39.26,129.37,38.88,130,39.12Z" fill="#a3a3a3"/><path d="M67.91,109c7-10.14,17.32-12.73,29.63-7.41,2.34.58,4.45,1.36,4,4.45-1.72.62-2.3-1-3.41-1.65a23,23,0,0,0-7.2-3,21.72,21.72,0,0,0-2.66-.58c-4.64-.41-8.79,1.62-13.15,2.62-2.75,1.38-4.55,3.8-6.62,5.94A.57.57,0,0,1,67.91,109Z" fill="#ddd"/><path d="M72.25,151.41c4.88-.94,9.9.17,14.78-1.07a37.16,37.16,0,0,0,9.06-3.15c2.44.72,1.7,2.86,2,4.52a1.76,1.76,0,0,1-.56,1c-4.57-2.61-9-.12-13.5.36-2.24.24-4.44.68-6.68.13-1.41-1.15-2.25,1.16-3.57.61A1.82,1.82,0,0,1,72.25,151.41Z" fill="#d8d8d8"/><path d="M159.09,35.51c1.34,2.1,3.64,3.05,5.46,4.59.49.41,1.43.74.31,1.5-1.06,3.13-2.25,6.15-5.73,7.41-1.73-2.19-5.28-.84-6.78-3.49-.48-.58-.11-.94.34-1.27a4,4,0,0,1,2.83.45c1.91.71,3.51.71,4.73-1.33s.56-3.66-1.3-4.93a5.08,5.08,0,0,1-1-1.06c-.41-.63-.79-1.26-.34-2a1.2,1.2,0,0,1,1.52.17Z" fill="#262626"/><path d="M60.75,90.07c2.46-1.35,4.15-4.27,7.55-3.7.61.09,1.15-.36,1.77-.23a2.42,2.42,0,0,1,1.54,1.69.89.89,0,0,1-.27.86c-4.07.73-7.2,3.26-10.49,5.48-1.09,0-1.18-.72-1.2-1.52C59.85,91.72,60.52,91,60.75,90.07Z" fill="#f0f0f0"/><path d="M101.38,100c1.07-2.36,3.26-4.11,3.7-6.81,2,1.22,4.64,1.62,6,3.88-2.37,2.09-4.17,5.4-8.24,3.84Z" fill="#d8d8d8"/><path d="M75.85,106a30.24,30.24,0,0,0,2.43,4.13c1.61,2,.5,2.92-1.12,3.9-2.24,1.37-1.88-1-2.57-1.8-.56-.61-.69-1.6-1.22-2.26-2.13-2.68-1.18-4.27,1.73-5.25C75.51,105.08,75.45,105.69,75.85,106Z" fill="#f5f5f5"/><path d="M100.57,108.25c-.77,1.38-1.46,2.81-2.33,4.13-.61.9-.56,3-2.74,1.56-1.56-1-2.31-1.8-1-3.66a49.4,49.4,0,0,0,3.09-5.8C99.53,105,101.19,105.71,100.57,108.25Z" fill="#f7f7f7"/><path d="M66.89,93.66,71.4,100c-1.53.47-3.51.24-3.9,2.49C65.27,101,63.59,98.81,61.64,97A12.14,12.14,0,0,1,66.89,93.66Z" fill="#d0d0d0"/><path d="M11.41,25.76c.88-1.24,1.65-1.16,3-.39,2,1.1,4.06-.93,3.69-2.06-1-3.07,1.29-3.92,2.7-5.46-1.14-.86-1.8.61-2.75.5,2.11-2.51,4.88-4.18,7.58-6,1.37,2.12-2.44,2.45-1.53,4.41-1,.84-2.1,1.67-3.14,2.52s-3,1.46-1.22,3.61c1.28,1.59-.83,2.07-1.64,2.56-1.17.72-2.08,3.08-3.9,1.4A3.05,3.05,0,0,0,11.41,25.76Z" fill="#aeaeae"/><path d="M97.6,152.88l.19-1.27A2.65,2.65,0,0,1,101,151a2.18,2.18,0,0,1,.36,2.68,4.54,4.54,0,0,1-4.55,3.21c-8,.13-16.11,1.1-24.12-.47.36-.91,1.28-1.12,2-1.59a2.1,2.1,0,0,1,2,.07,4.6,4.6,0,0,0,2.21.31c5-1,9.93-.11,14.89,0C95.32,155.23,97.57,155.64,97.6,152.88Z" fill="#959595"/><path d="M65.14,49.3c-2.46-1.24-2.25-3.81-2.86-5.92-.5-1.74-.75-3.55-1.23-5.91-1.88,2.59.08,5.08-.95,7.16a20.09,20.09,0,0,1-.17-13c.26,1.93.87,3.2,3,1.62,1.5,2.7.35,5.7,1,8.57C64.47,44.21,66.09,46.6,65.14,49.3Z" fill="#aeaeae"/><path d="M112.53,117.9c.36-.31.77-.93,1.06-.88,1.87.32,5.54,6.17,5.09,8.35-.58,2.88-2.81,3.37-5.35,3.13l-.49-.2a1.2,1.2,0,0,1-.43-.91,1.73,1.73,0,0,1,1.11-1c1.35-.44,3-.66,1.75-2.77-.68-1.45-2.27-1.09-3.37-1.7C111.2,120.42,111.19,119.05,112.53,117.9Z" fill="#f3f3f3"/><path d="M102.86,100.92c2.44-.53,5-.69,6.19-3.59.22-.57,1.32-.48,2-.25l0-.09c.86.61,1.54,1.32.9,2.44-1.2,2.07-1.9,4.49-4.09,5.87Z" fill="#202020"/><path d="M45.89,36.36c-.5,1.59-.78,3.29-2.27,4.37-1.93.17-1.88-1.69-2.72-2.65-.59-1-.31-2.36-1.08-3.34l0,.08c-.72-1.45-.5-2.66,1.08-3.25s2.57.33,3.34,1.54C44.93,34.14,45,35.44,45.89,36.36Z" fill="#252525"/><path d="M83.35,95.53a7.79,7.79,0,0,1,0-7.52c2.45-.62,4.78-.65,6.69,1.37a8.79,8.79,0,0,1,0,4.08c-1.91.66-3.76,2.29-5.84.38C83.72,94.33,84,95.14,83.35,95.53Z" fill="#323232"/><path d="M61.64,97c3.07.67,4.48,3.1,5.86,5.56a3.5,3.5,0,0,1-2,2c-1.25.93-1.64-.12-2.27-.9-.94-1.16-1.52-2.54-2.37-3.75S61.3,97.91,61.64,97Z" fill="#212121"/><path d="M101.26,106c.31-2.78-2.72-2.74-3.72-4.42,1-1.28-1.81-.73-.61-2.1a19.34,19.34,0,0,1,8.95,7.55c1,1.37,0,2.35-.13,3.5C103.15,110.1,102.38,107.86,101.26,106Z" fill="#343434"/><path d="M150.52,25.78c-2.86.08-4.07-2.81-6.46-3.58L128.42,10.46l.58-.81C136.24,14.93,143.67,20,150.52,25.78Z" fill="#c3c3c3"/><path d="M105.1,114.24l-4.9,4.43c-1.52-1.11-2-2.27-.53-4a47.12,47.12,0,0,0,3.28-4.91c1.94.37,2.47,1.82,2.69,3.5A1.76,1.76,0,0,1,105.1,114.24Z" fill="#f1f1f1"/><path d="M69.69,109.92c1.35,1.9,2.48,3.66,3.81,5.27a1.9,1.9,0,0,1-.16,2.88c-1.23,1.27-1.69-.25-2.22-.8C69.14,115.22,65.67,113.42,69.69,109.92Z" fill="#f1f1f1"/><path d="M18.77,45.2l1.46-2.06a13.31,13.31,0,0,1,7-5.52c1.17.68,2-.29,2.87-.69a1.05,1.05,0,0,1,.8,1c-3.06,2.34-6.11,4.7-9.19,7C20.84,45.56,19.86,46.11,18.77,45.2Z" fill="#565656"/><path d="M105.22,113.47a9.25,9.25,0,0,0-2.27-3.66l-2.38-1.56c.48-2.43-1.89-2.59-3-3.77l0,.08c-1.63-1.1-3.76-1-5.33-2.3l0,0c-.49-.52-1.13-.4-1.74-.43s-1.44-.15-1.23-.92,1-.59,1.6-.3A19.25,19.25,0,0,1,101.26,106c2.17.85,2.7,3.31,4.49,4.53a2.9,2.9,0,0,1,.12.57C106.11,112,106.92,113.08,105.22,113.47Z" fill="#3b3b3b"/><path d="M101.23,87.72l.12.94a7,7,0,0,0-3.6.28c-.66.18-1,1.89-2,.6-.58-.75.34-1.28.53-1.93,0-.11.16-.19.22-.29,3.44-5.93,4.35-6,8.53-.86-.76,1.36-1.55.23-2.33,0C101.38,85.82,101,86.32,101.23,87.72Z" fill="#dfdfdf"/><path d="M71.34,88.69c0-.22,0-.44,0-.66.1-1.08.57-2.51-1.46-1.52-.54.1-1.15.88-1.59-.14,1-1.74,2.29-4.15,4.37-3.4,2.39.87,3.12,3.91,4.39,6.09.34.58-.73,1.06-1.51.49A5.42,5.42,0,0,0,71.34,88.69Z" fill="#e0e0e0"/><path d="M86.33,147.28c-5,1.7-10.11,1.34-15,0-3.35-.9-1.78-4.39-2.11-6.81,1.49.9,3,1.79,4.41,2.8,1.13.45-2,2.14.65,2.15a4.61,4.61,0,0,1,1,.37c3.5,1,7.18-.05,10.65,1Z" fill="#aaa"/><path d="M55.33,110.7c-2,1-.86,2.87-1,4.33-.3,2.23.29,4.56-.69,7.77-1.56-3.72-.91-6.65-.88-9.45,0-2.64-.86-3.09-3-2-.68.2-1,0-.79-.75,2.34-1.63,5-.63,7.47-.79C56.47,110.6,56.13,110.9,55.33,110.7Z" fill="#f0f0f0"/><path d="M41.39,49.49c-3.59,0-4.68-2.47-5.88-4.76a1.85,1.85,0,0,1,.8-2.78c1.62-.9,1.52.73,1.93,1.34A18.26,18.26,0,0,1,41.39,49.49Z" fill="#f2f2f2"/><path d="M153.17,44.48l-.82,1c-3.12-2.13-6.64-3.76-9-6.9.23-1.24,1.85-.58,2.22-1.62,2.34,1.87,4.87,3.52,7.08,5.57A1.91,1.91,0,0,1,153.17,44.48Z" fill="#5b5b5b"/><path d="M113.33,128.5c-.14,6.6-2.78,12.2-6.93,17.18-1.14,1.37-1.54,1-1.42-.62,0-.18.09-.36.14-.53,2.56-4.57,5.24-9.08,6.41-14.29.18-.82.39-2.1,1.88-1.71Z" fill="#d3d3d3"/><path d="M28.65,22.25l-4.29,2.66c0-.25-.08-.63,0-.73Q33,17.6,41.67,11.07l.66.87Z" fill="#c4c4c4"/><path d="M60.75,90.07c.08,1,.44,2-.81,2.51a1.86,1.86,0,0,0-.47,2.91c-.64,1.28-1.28,2.56-1.93,3.84a1.48,1.48,0,0,1-.3-.23c-3.82-5.23-3.72-5.53,2.46-8.07C60.11,90.86,60.4,90.39,60.75,90.07Z" fill="#d8d8d8"/><path d="M105.22,113.47c.93-.6.34-1.62.65-2.39a8.12,8.12,0,0,1,1.86,7.85c-.51,2.11-.44,4.36-1.14,6.54,0-2,.08-4,0-5.93-.06-1.12,0-2.05-1.84-2.51s1.25-1.66.38-2.79Z" fill="#626262"/><path d="M113.39,127l-.75.68c-1.76,2.58-1.64,6.32-4.93,7.95a1.33,1.33,0,0,1-1-.35,25.79,25.79,0,0,0,4.48-16.73c-.13-1.63.39-1.45,1.33-.65-.3,1.32-1.37,2.67.14,3.93.85,1,0,2.26.54,3.31C113.41,125.74,113.77,126.34,113.39,127Z" fill="#b5b5b5"/><path d="M122.45,55a1.52,1.52,0,0,1,1.47.88l-4.54,7.78c-.18-1.06-.95-1.16-1.81-1.11l1.29-3.45a1.45,1.45,0,0,1,.13-1C119.91,56.87,120.31,55,122.45,55Z" fill="#a3a3a3"/><path d="M100.6,151a3.25,3.25,0,0,1-2.81.59c-1.8-1,0-3.38-1.7-4.42a3.79,3.79,0,0,1,2.38-1.35C102.08,147.48,102.37,148.17,100.6,151Z" fill="#3e3e3e"/><path d="M65,134.56a11.47,11.47,0,0,1-4-8.07,32.19,32.19,0,0,1,.55-12.2c.22-.3.45-.31.69,0a26.3,26.3,0,0,0,1.21,16.11C64,131.76,64.5,133.16,65,134.56Z" fill="#c1c1c1"/><path d="M75.1,103.43a19.68,19.68,0,0,1,13.43-3.29c-.33,1.83-1.82.67-2.72,1-.45.18-.69.31-.21.19a2.57,2.57,0,0,1,.1.32c-2.32,1.21-5.28.28-7.41,2.17-1.06-.33-2.14.82-3.19-.07L75,103.6Z" fill="#3f3f3f"/><path d="M69.12,17.45c-.23,1.91-1,2.76-2.94,1.61A23.74,23.74,0,0,1,78.79,10c.79-.37.87,0,.75.68l-5.1,2.5C73,15,70.83,15.94,69.12,17.45Z" fill="#cdcdcd"/><path d="M105.07,62.16c.14-1.91,2-2.4,3.05-3.44,3.2-3,5.28-6.81,7.3-10.64l.81.87A29.44,29.44,0,0,1,105.07,62.16Z" fill="#b3b3b3"/><path d="M67.73,76.8C65.58,75,64.88,72.33,63.65,70l4.61-2.39c-.07,2.27-4.83,2.75-2.15,5.24,2.26,2.11,3.42-2.14,5.83-1.95C71.27,73.4,66.92,73.37,67.73,76.8Z" fill="#a0a0a0"/><path d="M152.32,19c1.71.32,2.76,1,2.39,3.09-.44,2.56,1.61,4.08,4,2.89,1.37-.7,2-.29,2.62.76-.49,0-1.24-.29-1.42-.07-2.81,3.43-4.45.09-6.47-1.07-.71-.41-1.28-1.1-.56-1.73C154.77,21.23,152.55,20.29,152.32,19Z" fill="#b0b0b0"/><path d="M99.19,124c1.59,1.45,0,3.71,1.32,5.22a12.94,12.94,0,0,1-7.39,9.94c-.22-.19-.29-.38-.22-.56s.15-.28.22-.28C98.31,134.9,100.05,130,99.19,124Z" fill="#c2c2c2"/><path d="M153.84,17.52l-2.48-.37c.08.78,1.42.89,1,1.91-2.2.18-3-2.78-5.3-2.36,0-.72,2.07-1,.42-2.1a1.48,1.48,0,0,1-.44-2.22A31.79,31.79,0,0,1,153.84,17.52Z" fill="#b8b8b8"/><path d="M55.33,110.7l1-.92c1.67,3.87.28,7.85.4,11.8C54.94,118.12,56.71,114.2,55.33,110.7Z" fill="#c8c8c8"/><path d="M96.72,63.36l1.73,1.42c-1.46.81-2.5,2.91-4.68,1.56-.52-.94-2,.09-2.37-1.22.95-1.1-.83-.57-.71-1.18C92.47,61.42,94.65,63,96.72,63.36Z" fill="#626262"/><path d="M48.88,110.57l.79.75c-.19,3.4-.39,6.81-.59,10.21C48.35,117.87,47.25,114.22,48.88,110.57Z" fill="#c2c2c2"/><path d="M138.88,46c1.13-2.42.37-4.37-1.5-6.05l-.06.07c3.8,1.61,6.43,4.8,9.82,6.94-.52.75-.9.54-1.34.27-2.16-1.34-4-4.4-7-1.29Z" fill="#aaa"/><path d="M111.08,19.06c-.75,0-.87,2.09-2.23.45a37.69,37.69,0,0,0-4.61-4.1c.76-.08,0-2.63,1.78-1.09S110,16.86,111.08,19.06Z" fill="#6e6e6e"/><path d="M45.89,36.36c-1.21-.42-1.32-1.65-1.88-2.55-.64-1.05-1.16-2.27-2.73-1.94s-1.34,1.77-1.42,2.95c-1.59-.66-.59-2-.77-3,.19-.81.7-1,1.46-.8.49,0,1.14-.26,1.44,0,2,1.5,4,1.66,6.11-.11C47.36,32.91,44.08,33.6,45.89,36.36Z" fill="#959595"/><path d="M72.22,128.48c1.19-1,0-2.76,1.25-3.74,2,3,.93,6.66,2.41,9.73.61,1.71,2.42,2.39,3.32,3.84C74.35,136.83,73,132.86,72.22,128.48Z" fill="silver"/><path d="M30.15,55.33c1.91-1.57,3.81-3.16,5.74-4.72,1-.76,3.81.24,4.07,1.35.22.91-.58,1-1,1.3-.85.51-.92.52-.9-.75,0-1.77-1.37-.75-2.08-.28-1.81,1.2-3.55,2.51-5.32,3.78Z" fill="#9f9f9f"/><path d="M135.13,41.6c-1.28,2.17-1.63,5-4.48,6C130.34,44.4,132.23,41.85,135.13,41.6Z" fill="#202020"/><path d="M81.82,145.2c3.68.87,7.35.33,12-.57a11.79,11.79,0,0,1-7.51,2.65l.07,0c-1.67-1.11-3.74.31-5.39-.87C80.79,145.7,81.22,145.39,81.82,145.2Z" fill="#b2b2b2"/><path d="M132.84,34.82c-.14-1.15.4-2.62-1.39-3-1.59-.33-2.14.84-2.75,1.94-.28.52-.51,1.16-1.31,1,.19-2.06-2.43-2-2.86-4.17,2.8,2.6,5.07.76,7.43-.25.76.23,1.51.49,1.65,1.43C133.45,32.85,134.38,34.15,132.84,34.82Z" fill="#979797"/><path d="M100.6,151c2.27-3-1.49-3.42-2.13-5.18,2.57-2,3.73-1.33,3.73,1.9,0,2,.6,4.14-.85,6C101.81,152.61,100.81,151.93,100.6,151Z" fill="#eaeaea"/><path d="M75.1,155.07c-.41,1.17-1.39,1.32-2.42,1.38-2.57-.86-1.19-3.9-2.88-5.3-.2-.16.27-1,.86-.85s1.9-.44,1.59,1.11a3,3,0,0,0,1.3,1.85A3.66,3.66,0,0,0,75.1,155.07Z" fill="#e0e0e0"/><path d="M91.58,64.83c.45.9,1.94.3,2.19,1.51l-2-.06c-1.83.76-3.78,0-5.64.48-1.4-.5-3.31.67-4.24-1.32.24-.41.48-.82.73-1.23A11.28,11.28,0,0,1,91.58,64.83Z" fill="#303030"/><path d="M93.12,138.33v.84a11.62,11.62,0,0,1-11.91.76C85.18,139.39,89.4,140.71,93.12,138.33Z" fill="#949494"/><path d="M83.35,95.53c-.22-1.73-.65-3.62,2.09-1.6,1.55,1.13,2.87-1.59,4.53-.47C88.71,97.18,85.64,95.12,83.35,95.53Z" fill="#f7f7f7"/><path d="M17.2,30.57l-6.52,5L7.15,37.77C10.24,35,12.53,31,17.2,30.57Z" fill="#c1c1c1"/><path d="M9.17,41.3c-.4,3.34,1.64,5.05,3.52,6.83.26.26,1.2,0,.68.8-.32.47-1,1.12-1.52.52a55,55,0,0,1-4.54-6.33C6.79,42.24,8,41.82,9.17,41.3Z" fill="#d4d4d4"/><path d="M160.66,34.41c-1.36-1.69-3.7-2.24-4.83-4.2,4.19,1.14,6.71,4.62,10.28,6.64l-.57.88Z" fill="#c4c4c4"/><path d="M159.13,49c2-2.09,4.68-3.74,4.55-7.24,0-.58.77-.12,1.18-.17C165.6,44.56,161.91,49.32,159.13,49Z" fill="#d5d5d5"/><path d="M73.77,143.68c-2-.34-3.94-.8-4.54-3.17.25-1.13.88-.84,1.54-.4l5.08,3.44c0,.16,0,.32,0,.48-.25.82-.07,2-1.57,1.7l.08.05C73.54,145.27,73.89,144.41,73.77,143.68Z" fill="#d6d6d6"/><path d="M92.3,102.26c2.11,0,3.72,1.16,5.33,2.3-4.37-1.63-4.39,2.25-5.81,5C91.5,106.76,92.82,104.57,92.3,102.26Z" fill="#a6a6a6"/><path d="M79.54,10.65,78.79,10c4.3-2.39,8.91-1.28,13.45-1.08C88,9.32,83.64,9.15,79.54,10.65Z" fill="#9a9a9a"/><path d="M132.14,39.37a1.78,1.78,0,0,0-1-1.7,5,5,0,0,1,1.73-2.93c-.15,3.13,3.54,3,4.43,5.31l.06-.07C135.62,39.85,134,38.5,132.14,39.37Z" fill="#9e9e9e"/><path d="M86.27,66.15a6,6,0,0,1,5.45.13c-1.73,2.75-4.06,1.44-6.28.93C85.34,66.55,86.55,67,86.27,66.15Z" fill="#727272"/><path d="M106.72,135.28l1,.11c-1,3.15-2.25,6.26-2.58,9.6l-.14.07C102.29,141.22,103.13,138,106.72,135.28Z" fill="#bababa"/><path d="M115.62,57.14a14.83,14.83,0,0,1-3.78,6.92c.37-1.22-.77-1.9-1.14-3,2.1.29,3.54-.38,3.19-2.61C113.58,56.49,115,57.43,115.62,57.14Z" fill="#979797"/><path d="M117.28,89.92c-1.06.41-2.31.17-1.88-1,.3-.8.44-2.56,1.92-2.51,2,.06,1.1,1.93,1.37,2.89C119.22,91.23,117.59,89.23,117.28,89.92Z" fill="#4a4a4a"/><path d="M107.87,105.3c1-1.67,2.07-3.36,3.17-5,.77-1.13,1.18-2.2,0-3.31,1,.09,2,.8,1.74,1.55C111.78,101.19,111.12,104.24,107.87,105.3Z" fill="#aeaeae"/><path d="M139.75,7.17c-.73,1.85-2.41-1.52-3.09.56l-2.74.73C135.59,4.64,136.87,4.39,139.75,7.17Z" fill="#575757"/><path d="M39.82,34.74a4.56,4.56,0,0,1,1.59,2.93c.42.93-.13,1.38-.86,1.75l-3.66-.31C37.5,37.35,40.31,37.13,39.82,34.74Z" fill="#a3a3a3"/><path d="M109.61,68.5c-.6,2-1.3,4-3,5.29.87-2.66.87-2.66-2.37-6C106.18,67.41,107.62,70.77,109.61,68.5Z" fill="#9e9e9e"/><path d="M56.47,104.08c1.43.55,3.12-2.44,4.26.28a1.38,1.38,0,0,1-.74,2.06C57.65,107.55,58.33,104,56.47,104.08Z" fill="#dadada"/><path d="M131.39,55a4.41,4.41,0,0,1,2.23-3.74l-.05-.06c.29.82,1.5,1.19,1.13,2.28a13,13,0,0,1-1.63-.35c.5,1.6,2.47,1.69,2.82,3.38-1.81.17-2.71-2.25-4.58-1.57Z" fill="#a7a7a7"/><path d="M104.37,78.13c-.28,1-.57,1.91-.86,2.86l-.67.29c.78-3.22-2.68-3.71-4.34-6.61Z" fill="#9b9b9b"/><path d="M62.24,114.27l-.69,0c-1.87-.46-1.95.66-2,2,0,2.32-.16,4.63-.25,6.94l-.84-.06c0-2.46,0-4.92.08-7.37C58.67,113,59.32,112.73,62.24,114.27Z" fill="#c3c3c3"/><path d="M33.93,46c-3.79-2.65-3.79-2.65,1.13-5.83a4.77,4.77,0,0,0-1.21,5.89Z" fill="#a9a9a9"/><path d="M101.29,90.9c-3.32.77-3.83,3.53-4.41,6.24-2.45-2.45.38-3.88,1.17-5.64C98.72,90,99.94,89.67,101.29,90.9Z" fill="#b9b9b9"/><path d="M86.27,66.15c.69,1.12-.57.69-.83,1.06-2.94-.25-5.91-.35-8.29-2.47,1.68-.56,3,1.06,4.69.7C83.16,66.63,84.77,66.08,86.27,66.15Z" fill="#ababab"/><path d="M55,62.52c1.26.95,1.83,2.42.4,3.19s-1.76-.88-2-2c-.19-.64-.66-1.37.17-1.83C54.16,61.51,54.57,62.11,55,62.52Z" fill="#666"/><path d="M49.6,72.27C47,71,46.08,74.41,43.29,74.38c1.83-1.46,3.18-2.66,4.65-3.68,2.88-2,1.5.63,1.65,1.58Z" fill="#a4a4a4"/><path d="M85.7,101.67c-.13-.3-1.59-.12-.45-.8.92-.54,2.36.41,3.28-.73a3.06,3.06,0,0,1,2.45.52c-.31.12-.79.15-.9.38-.28.53.28.43.54.48.65.11,1.43-.1,1.73.79Z" fill="#6d6d6d"/><path d="M129,58.76c-1.87,3,1.11,4,2.59,5.84-5.55-1.69-5.78-2.26-2.52-5.77Z" fill="#a4a4a4"/><path d="M90,89.38c-2.11-.87-4.17-2.44-6.42-.17-.15.16-.29-.74-.27-1.2C86,86.27,88.34,86.21,90,89.38Z" fill="#d7d7d7"/><path d="M59.47,95.49c-1.12-.11-2.48-.11-2.21-1.75s1.55-1.3,2.68-1.16c.14.62.1,1.35.91,1.59Z" fill="#1e1e1e"/><path d="M126.79,36.31a3.74,3.74,0,0,1-1.44,3c-.11-2.81-3.42-2.91-4.42-5.19C123.29,34.05,124.25,37.34,126.79,36.31Z" fill="#a5a5a5"/><path d="M40.55,39.42l.86-1.75,2.21,3.06c.05.7.61,1.56-.17,2s-1-.38-1.36-.86C41.55,41.1,41.06,40.25,40.55,39.42Z" fill="#9f9f9f"/><path d="M49.59,72.28A4.51,4.51,0,0,1,51.86,76h0c-1.78-.75-2.67,1.62-4.55,1.29,1.17-1.61,4-2.37,2.3-5Z" fill="#989898"/><path d="M55.68,150.94c-4.16.13-2.65-2.69-2.74-5,2.39.79-.2,4,2.55,4.28a.46.46,0,0,1,.29.45C55.77,150.85,55.73,150.94,55.68,150.94Z" fill="#5f5f5f"/><path d="M138.8,46c1.07,1.9,3.3,2.59,4.66,4.35-4.44-1.23-5.92-2.64-4.58-4.29Z" fill="#adadad"/><path d="M33.85,46.05c1.07.41,1.38,1,.33,1.78a42.63,42.63,0,0,1-5.41,3.43c1.12-2.41,3.92-3,5.16-5.27Z" fill="#a5a5a5"/><path d="M69.12,17.45a14,14,0,0,1,5.32-4.3l.73.68C73.21,15.13,71.54,16.92,69.12,17.45Z" fill="#535353"/><path d="M109.81,111c-.87-2.58,1-3.95,2.77-6.22C112.3,107.64,110.82,109.21,109.81,111Z" fill="#c7c7c7"/><path d="M60.81,99.86c2.33.77,1.61,4.58,4.64,4.65-.66.51-1.28,2.06-2.16.48S60.73,102,60.81,99.86Z" fill="#b5b5b5"/><path d="M75.1,103.77c1.05.83,2.16-1.7,3.19.07-.1,1.19,1.12,2.23.43,3.56-2-2.76-2-2.76-2.87-1.37-.46-.31-.86-.64-.75-1.28Z" fill="#9a9a9a"/><path d="M55.68,150.94l-.19-.73c.51-.89-.57-2.37.86-2.82.72-.22,1.38.52,1.43,1.33C57.87,150.14,57.38,151.15,55.68,150.94Z" fill="#cdcdcd"/><path d="M30.92,37.89c-.57-.07-.88-.36-.8-1,1.17-1.46,2.26-3.08,4.55-2.11Z" fill="#c5c5c5"/><path d="M117.57,62.58c1.15-.52,2.11-.75,1.81,1.11-.35.91-.39,2.55-1.76,1.92A1.89,1.89,0,0,1,117.57,62.58Z" fill="#626262"/><path d="M39,54.3c-.79,2.41-2.77,3.42-5.13,4Z" fill="#aaa"/><path d="M165.13,28.83l3,.72a6.67,6.67,0,0,1-2.7,3.8C164,31.77,167.3,30.16,165.13,28.83Z" fill="#c5c5c5"/><path d="M6.13,27.17c.13.74-1.26,1.24-.47,1.89.33.27,1.3-.23,2-.38-.7.81-.39,2.6-2.24,2.28a1.32,1.32,0,0,1-1.07-1.31C4.18,28.32,4.44,27.2,6.13,27.17Z" fill="#909090"/><path d="M124.94,64.91l4.95,3.93C127.64,68.34,125.73,67.39,124.94,64.91Z" fill="#aeaeae"/><path d="M68.48,109.37c-.92,2-1.85,4-3,6.42-.13-3,1.08-4.92,2.42-6.82Z" fill="#9c9c9c"/><path d="M129.11,58.83A4.68,4.68,0,0,1,131.39,55l-.08-.06c1.13,1.32-1.89,3.35.72,4.55l-3-.77Z" fill="#b1b1b1"/><path d="M133.62,51.3c3.14-3,4.06,1,6,1.85-2.29.22-3.63-2.47-6-1.91Z" fill="#a7a7a7"/><path d="M53.83,90c.79-1.1,1.28-2.68,3-1.65.37.22.95.54.57,1.13C56.4,91,55,89.12,53.83,90Z" fill="#565656"/><path d="M75.83,97.12c.35-2.5-2.26-3.84-2.42-6.14C75.58,92.49,77.8,94,75.83,97.12Z" fill="#bfbfbf"/><path d="M81.82,145.2l-.89.66c-2.55,1-4.54.89-5.05-2.39l0,.08Z" fill="#bbb"/><path d="M15.42,37.14,14.25,37a8.45,8.45,0,0,1,3.8-3.06l.13,1.2C17.9,36.66,17.19,37.62,15.42,37.14Z" fill="#d9d9d9"/><path d="M106.62,73.73a3.67,3.67,0,0,1-1.53,3.07c.76-2.27-1.49-2.85-2.49-4.31C104.35,71.84,105.1,74.12,106.62,73.73Z" fill="#aaa"/><path d="M61.43,109.15a1.46,1.46,0,0,1,1.48,1.35c.22,1.14-.77.94-1.44,1S60,111.41,60,110.4,60.55,109.11,61.43,109.15Z" fill="#dbdbdb"/><path d="M51.86,76c2.88,3.21,2.88,3.21-1.56,4.77,2.5-1.7,2.12-3.22,1.55-4.76Z" fill="#9b9b9b"/><path d="M63.13,68.53a3.27,3.27,0,0,1-1.52-3l3.64-1.3C64.66,65.91,62.46,66.62,63.13,68.53Z" fill="#9e9e9e"/><path d="M55,62.52c-1.17-.48-2-.45-1.62,1.17L51,60.07C52.24,61.17,54.93,60,55,62.52Z" fill="#a7a7a7"/><path d="M121.85,80.23c-3.68-1-3.68-1-1.07-4.65C120.5,77.56,119.49,79.29,121.85,80.23Z" fill="#9b9b9b"/><path d="M43.61,58.29C44.8,60,46,60.92,45.68,62.44c-.07.35-1.87,1.19-1.52-.39C44.43,60.84,43.56,60,43.61,58.29Z" fill="#999"/><path d="M119.51,58.64l-.65.49-1.78,1.32a8.37,8.37,0,0,1,3-5.44C121,56.41,119.48,57.4,119.51,58.64Z" fill="#898989"/><path d="M93.37,95.6c-.4-1.3-.9-2.59,0-3.71.35-.45.94.15,1.16.5C95.46,93.94,93.9,94.56,93.37,95.6Z" fill="#d9d9d9"/><path d="M106.58,79.93a8.55,8.55,0,0,1,3-5.48A9.2,9.2,0,0,1,106.58,79.93Z" fill="#878787"/><path d="M63.57,76c2.31,1.08,2.66,3.36,3.3,5.45C65,80.09,64.59,77.87,63.57,76Z" fill="#888"/><path d="M69.1,79.76a1.21,1.21,0,0,1-.76-1.59l4.08-2.28.4.48Z" fill="#a0a0a0"/><path d="M111.83,70.21a8.63,8.63,0,0,1,3.06-5.53A9.83,9.83,0,0,1,111.83,70.21Z" fill="#898989"/><path d="M58.34,66.25c2.27,1.09,2.66,3.32,3.28,5.41C59.79,70.31,59.3,68.13,58.34,66.25Z" fill="#888"/><path d="M15.42,37.14a6.14,6.14,0,0,0,2.76-2l8-5.59a22.79,22.79,0,0,0,1.05,8.1c-2,2.3-4.61,3.78-7,5.52C17.23,42.25,14.77,40.94,15.42,37.14Z" fill="#0e0e0e"/><path d="M29.86,26.75a45.87,45.87,0,0,0,3.87-3c1.6-1.55,2.91-1.26,4.47.1,3.66,3.19,3.16,5.91-1.48,7.64-.65.24-1.1.4-1.43-.42C34.36,28.79,32.11,28.07,29.86,26.75Z" fill="#101010"/><path d="M48.85,22.61c.41-5.69.41-5.69-5.28-5.91,1.81-1.4,3.06-3.52,5.23-2.92s3.36,2.73,3.72,4.77S50.63,21.07,48.85,22.61Z" fill="#212121"/><path d="M152.48,43.12c-2.36-2-5.58-3-6.9-6.12a17.79,17.79,0,0,0,.89-7.19c2.73.91,4.37,3.07,6.62,4.22A7.7,7.7,0,0,1,158,37.34C158,41.51,156.35,43.19,152.48,43.12Z" fill="#0e0e0e"/><path d="M143.2,26.86c-2,.63-4,1.19-4.86,2.78-2.39,4.27-3.83.24-5.44-.58-2.74-1.41-.49-2.78.4-4,1.87-2.51,4-3.49,6.6-.79A29.5,29.5,0,0,0,143.2,26.86Z" fill="#101010"/><path d="M123.06,22.07c-1.91-1.55-4.33-2.72-1.8-5.87,2.88-3.58,3.43-3.64,8.49,1.1-2,.17-3.92-1.63-5.61,0-1.09,1.06-.52,2.59-.21,3.92C124.11,22,123.8,22.23,123.06,22.07Z" fill="#171717"/><path d="M159.12,35.53l-1.46,0c-2,.6-2.58-1.41-3.83-2.18l-5.21-4.62c2.08-1.19,2.67,1.12,3.83,1.81A25.87,25.87,0,0,1,159.12,35.53Z" fill="#0c0c0c"/><path d="M153.83,33.32c1.76-.12,2.32,1.86,3.83,2.18l.8,1.45a.87.87,0,0,1-1.3.1,12.33,12.33,0,0,1-4.07-3Z" fill="#b7b7b7"/><path d="M123.06,22.07l.87-.87c1.34,1.4,2.69,2.79,4,4.19A9.21,9.21,0,0,1,123.06,22.07Z" fill="#747474"/><path d="M96.72,63.36c-1.88,1.4-4.08-.83-6,.52-3.38,1.18-6.54.24-9.67-1A20.21,20.21,0,0,1,69.51,55.8a16.69,16.69,0,0,1-4.19-5.46l-.18-1C63,44.12,62,38.81,63,33.21c3.18-13.72,13.75-21.77,27.59-21A25.52,25.52,0,0,1,114.17,34.7c-.17,3.24,2.06,6.49,0,9.74-1.82,6.32-5.75,11.21-10.62,15.44Z" fill="#101010"/><path d="M113.38,44.55c2-3.15-.14-6.62.79-9.85.58,2.24,1.15,4.48,1.88,7.31l.51-5c.34,2.27,1.22,4.55-.2,6.72l-2.14,1.59C113.73,45.32,113.67,44.82,113.38,44.55Z" fill="#636363"/><path d="M119.51,58.64c-.81-1.37.73-2.36.6-3.63q3.73-7.07,7.46-14.12c.48-.7.9-1.48,1.93-1.43-1.32,4.27-3.85,7.93-5.89,11.84-.62,1.18-1.56,2.24-1.16,3.73C120.8,55.69,120.46,57.41,119.51,58.64Z" fill="#1f1f1f"/><path d="M129.5,39.46c-.64.48-1.28,1-1.93,1.43a13.05,13.05,0,0,1,2.74-5.46c.4,1.48-1.13,2.49-.27,3.69A2.15,2.15,0,0,1,129.5,39.46Z" fill="#898989"/><path d="M55.26,33.54c-1.32,3.27-.16,7.37-4.15,9.72-1.87,1.1-.49,4.06,2,4.75.84.24,1.92-.71,2.55.76,1.7,4,4.51,7.27,7.19,10.73-5.4-2-10.62-4.19-15-8a4.4,4.4,0,0,1-1.35-5.37C48.26,41.17,51.58,37.25,55.26,33.54Z" fill="#121212"/><path d="M54.84,44.22c1-.26.74.56.66,1a1.84,1.84,0,0,1-2.08,1.62c-.73,0-1.65-.23-1.38-1.19C52.41,44.35,53.7,44.38,54.84,44.22Z" fill="#202020"/><path d="M96.83,121.08c.11.51.23,1,.34,1.53a1.21,1.21,0,0,0-.12.35c-.08,3.76-.08,3.76-3.93,3.31a3.2,3.2,0,0,1-1.49-.38c-.84-.61-1.35-1.54-2.14-2.19-2-1.55-4-1.25-5.94.18-2.35,1.11-.9,3.82-2.24,5.35-.54.35-1,.12-1.32-.3a3.23,3.23,0,0,0-3.18-2.47c-2.27-2.22.41-4.45,0-6.68,2.38-4.28,6.49-5.32,10.79-5C91.63,115.07,95.27,116.73,96.83,121.08Z" fill="#f7f7f7"/><path d="M96.83,121.08c-5.64-6.78-13-7.79-18.56-2.54-.52.49-1.18.94-1,1.82.12,2.6-2.77,4.07-2.5,6.67-.18.51.49.37,0,.2-.09,0,0-.14,0-.36.11-.91.36-2.06,1.35-.83.85,1,1.71,2.55.36,4s1,3.13-.56,4.42c-2.63-2.79-2.4-6.29-2.41-9.73,1.39-5.73,4.82-9.52,10.73-10.47,5.63-.91,10.26.88,13.24,6Z" fill="#232323"/><path d="M93.1,125.52c1.42-.84,2.47-.18,3.18,1.09.93-1.4-1.85-3.18.89-4a13.79,13.79,0,0,1,.55,9.2c-1.39,0-.65-1.56-1.56-1.79a3.92,3.92,0,0,1-1,.63,3.18,3.18,0,0,1-2.69-.29C92.91,128.77,90.65,126.86,93.1,125.52Z" fill="#4b4b4b"/><path d="M76.44,130.05l-1-4.77-.5,4.06c-1-3.47-.59-6.56,2.24-9,1.67.26.62,1.14.39,1.8-.45,1.31-1.44,2.56-.39,4,1.08.67,2,1.53,3.06,2.28l1,.82c1.14-.06,1.67.42,1.39,1.6-1.2.88-3.6-1.1-4,1.68a1.43,1.43,0,0,1-1-.26Z" fill="#8f8f8f"/><path d="M77.66,132.3h1.1c1.07,0,1.78.76,2.62,1.24,4.44,2.53,8,2.06,11.58-1.68A26.22,26.22,0,0,1,95.23,130h.93c-1.18,4.21-4.15,6.41-8.29,7C83.49,137.72,80.1,136,77.66,132.3Z" fill="silver"/><path d="M81.08,62.86a34.23,34.23,0,0,0,9.67,1c.18.4,1.53-.22.83.95-3,0-6,.12-9-.62C81.87,64,80.89,64.07,81.08,62.86Z" fill="#b3b3b3"/><path d="M65.32,50.34c1.84,1.48,2.82,3.62,4.19,5.46C66.88,54.93,65.75,52.9,65.32,50.34Z" fill="#acacac"/><path d="M113.69,95.65c-.77-.9-2-1.8-.58-3a1.37,1.37,0,0,1,2.17.53c.9,1.77-.58,2-1.7,2.4Z" fill="#171717"/><path d="M101.23,87.72c-.92-.24-1.64-.62-1.52-1.76a1.28,1.28,0,0,1,1.23-1.18c1.28-.19,1.82.49,1.81,1.71Z" fill="#171717"/><path d="M113.38,44.55l.84.81c-1.82,6.11-5,11.22-10.66,14.52.19-1.87,2-2.37,3-3.49A25.87,25.87,0,0,0,113.38,44.55Z" fill="#a8a8a8"/><path d="M97.6,152.88l2,.85a6.43,6.43,0,0,1-5.11,2.51c-5.69-.24-11.38-.72-17.08,0-.52.06-1.29.15-1.39-.76.11-.45.08-.95.53-1.25-.25-1.86,1-1.85,2.29-1.86,4.83,0,9.6-.51,14.11-2.43,1.07-.45,1.84-.62,2.31.71A3.6,3.6,0,0,0,97.6,152.88Z" fill="#191919"/><path d="M76.58,154.22l-.53,1.25-.45-.82-.5.42c-1.07.67-2.19.8-2.8-.44-.47-1,1.11-.63,1.25-1.37C74.47,153.85,76.6,150.64,76.58,154.22Z" fill="#1a1a1a"/><path d="M157.16,37.05l1.3-.1c1.91,1.72,5.34,2.63,3,6.45-2.14,3.48-3.72,3.77-8.28,1.08l-.69-1.36C155.41,42.15,158,40.93,157.16,37.05Z" fill="#f8f8f8"/><path d="M69.89,86.51c.12-1.12.67-1.76,1.87-1.63A1.2,1.2,0,0,1,73,86c.14,1.2-.71,1.66-1.61,2.06Z" fill="#0d0d0d"/><path d="M105.12,145c-1.26-3.77-.14-6.9,2.58-9.6,2.43-2.07,2.11-5.9,4.94-7.71l.77.85c-2.15,3.95-2.59,8.6-5.18,12.38C107.26,142.33,106.76,144.09,105.12,145Z" fill="#1a1a1a"/><path d="M113.39,127c-.29-.49-.57-1-.85-1.48.64-1.43,1.08-3.14,3.3-2.45,1.89,0,1.46,1.44,1.18,2.36C116.47,127.21,114.94,127.25,113.39,127Z" fill="#1b1b1b"/><path d="M115.84,123.07c-1.74,0-1.33,2.81-3.3,2.45-1.66-1.29.26-2.45.13-3.69C114.28,120.82,115.51,120.8,115.84,123.07Z" fill="#5d5d5d"/><path d="M87.86,91a1.47,1.47,0,0,1-2.93,0c0-1,.67-1.49,1.65-1.47S87.82,90.15,87.86,91Z" fill="#f0f0f0"/><path d="M75.88,143.47c1,2.33,3.12,2.13,5.05,2.39,1.63,1.22,3.88.08,5.47,1.44l-9.9-.11c-1,0-2.32.33-2.18-1.46C75.74,145.6,74.58,143.69,75.88,143.47Z" fill="#0c0c0c"/><path d="M73.77,143.68c1,.47.43,1.4.63,2.1-1.09.68-2.19,1.14-3.5.31C71.15,144.46,73.08,144.78,73.77,143.68Z" fill="#1f1f1f"/><path d="M65.21,32.38A23.72,23.72,0,0,1,90.66,13.9,24.27,24.27,0,0,1,112.6,37.36c0,1.37-.08,2.75-.13,4.12a.6.6,0,0,1-.84,0c-.16-.2,0-.53-.11-.64s-.28-.11-.32.22c-.09.84-.08,1.75-1,2.18-1.88-.63-1.38-2.78-2.51-3.89-.75-2.38-.79-4.92-1.69-7.28C103,24.37,97.34,20,89.33,19.5c-7.41-.45-13.2,3.05-17,9.58-.75,1.3-1.24,2.73-2,4A4.17,4.17,0,0,1,67.9,35C67.11,34,64.91,34.49,65.21,32.38Z" fill="#fbfbfb"/><path d="M110.23,42.92c.3-1.39.6-2.78.93-4.33,1.23.93.39,2,.7,2.93-.06,5.28-3.34,9.09-6,13.17L101.58,58A23.12,23.12,0,0,1,86,61.59c-4.77-.15-8.67-2.52-12.55-4.94a24.19,24.19,0,0,1-8.75-17.32c-.09-1.63-.41-3.63,2.14-3.94,1,.27-.57,2.67,1.83,2.2.51-.1.57,2.14.66,3.34a8.94,8.94,0,0,0,1.85,5.16c1.36,1.72,2.31,3.71,3.66,5.43a10.61,10.61,0,0,0,4.71,3.58c.33.13.64.29,1,.44C86.87,58,93,58,98.91,54.2a8.85,8.85,0,0,1,.87-.59,16.66,16.66,0,0,0,6.82-8.53c.39-1,.56-2.17,1.46-2.94,2.14.56.85,2,1,2.92C109.38,44.54,109.3,43.45,110.23,42.92Z" fill="#0e0e0e"/><path d="M66.71,35.78C64,38,65.36,40.84,65.82,43.35c1,5.36,4.24,9.42,8.15,13a.68.68,0,0,1-1.11.15C66,51.7,62.28,41.09,65.21,32.38c0,1.55,2.61.61,2.34,2.42A1.09,1.09,0,0,1,66.71,35.78Z" fill="#b5b5b5"/><path d="M85.57,61.11c5.69.76,10.85-1.2,16-3.12a18,18,0,0,1-16,3.89c-.24-.17-.33-.34-.25-.52S85.49,61.11,85.57,61.11Z" fill="#848484"/><path d="M105.83,54.69c2.09-4.35,5-8.35,6-13.17a1.27,1.27,0,0,1,.61,0C111.91,46.71,110,51.27,105.83,54.69Z" fill="#b8b8b8"/><path d="M85.57,61.11v.77c-4.94-.12-9-2.29-12.72-5.36L74,56.37C77.57,58.6,81.25,60.66,85.57,61.11Z" fill="#ababab"/><path d="M83,130.86a2.82,2.82,0,0,0-1.75-1.58c-.22-2.36-1.17-5,2-6.19,2.29-.71,4.58-1,6.83.17a2.94,2.94,0,0,1,1.62,2.19c.51,2.43.69,4.75-2.12,6C87.35,132,85,133.06,83,130.86Z" fill="#151515"/><path d="M90.11,123.26l-6.83-.17C85.61,121.07,87.88,121.14,90.11,123.26Z" fill="#a0a0a0"/><path d="M80.28,128.46c-1.85.35-3.32.2-3.06-2.28C79.9,124.7,80.59,125.92,80.28,128.46Z" fill="#1e1e1e"/><path d="M88.64,130.78c3.29-.47,2.9-3.07,3.09-5.33l1.37.07c-2,1.15,1.15,3.27-.82,4.43C91.43,131.8,90.48,133.24,88.64,130.78Z" fill="#999"/><path d="M88.64,130.78c1.71,1.87,2.44-.52,3.64-.83l3,.07c-4.36,7.41-10.46,8.26-16.47,2.29-.11-1-1.87-1.76-.84-2.83.76-.79,1.86.13,2.73.53s1.36,1.12,2.35.85C84.89,131.34,86.77,131.65,88.64,130.78Z" fill="#0d0d0d"/><path d="M74,52l-3-5.18c-1.57-1.54-1.44-3.76-2.22-5.62.31-2.66-1.16-5.52.9-8,3.19-10.13,11.56-15.9,21.13-14.55,10.4,1.46,16.84,9.12,17.31,20.61a2.81,2.81,0,0,1-.15,2.61A19.78,19.78,0,0,1,99.82,54.3l.06,0c-6.49,4.32-13.28,4.55-20.32,1.5l.08,0C77.61,54.76,76,53.06,74,52Z" fill="#0d0d0d"/><path d="M69.67,33.21c-.72,2.74-.42,5.53-.5,8.31a.45.45,0,0,1-.73,0c.56-2.25-2.11-3.52-1.73-5.71l.84-1C68.46,34.54,68.5,33.13,69.67,33.21Z" fill="#bababa"/><path d="M107.53,41.58c.2-.77.39-1.54.58-2.31,2.4.23,1,2.69,2.12,3.65a7.68,7.68,0,0,1-1.8,4.22c-.68-1.68,1.49-3.32-.26-4.77A1.18,1.18,0,0,1,107.53,41.58Z" fill="#939393"/><path d="M79.56,55.75c4.94,1.07,9.82,2.42,14.93.69,1.85-.63,3.34-2.1,5.39-2.19C95.08,59.05,85.14,59.78,79.56,55.75Z" fill="#adadad"/><path d="M107.53,41.58l.64.79c-1.07,5.18-3.26,9.57-8.35,11.93C103.15,50.52,106.74,46.9,107.53,41.58Z" fill="#a9a9a9"/><path d="M74,52a11.06,11.06,0,0,1,5.61,3.81C77.06,55.57,75.54,53.78,74,52Z" fill="#adadad"/><path d="M68.44,41.49l.73,0c.61,1.76,1.21,3.53,1.82,5.29C68.56,45.8,69.09,43.36,68.44,41.49Z" fill="#8b8b8b"/><path d="M86.26,129.36c-1.67-.17-3.9.61-3.73-2.3s2.39-2,4-2,3.88-.56,3.88,2.14C90.38,130.28,87.83,129.06,86.26,129.36Z" fill="#f2f2f2"/><path d="M100.57,48.63,96.24,52C90.55,54.62,85,54.8,79.56,51.25l.07,0a15.62,15.62,0,0,1-5.31-6.2l-.47-1.26a12.16,12.16,0,0,1-1.13-8.23c1.49,0,1.24,1,1.19,1.73.34-.92.31-2.65,1.47-2.44,1.93.36.85,2.44,1.39,3.18-.66-3,1.93-5.11,3.8-7.44A9.77,9.77,0,0,1,89.2,27.1c7.2.39,10.88,6,9.83,14.9-.36.35.37.38.21,0a.92.92,0,0,1,.71-1.12c.85,0,1.68.16,2.4-.48,2.08,0,1.52,1.28,1.25,2.48C103.11,45.11,101.52,46.7,100.57,48.63Z" fill="#0d0d0d"/><path d="M102.22,40.91,100.9,44.3c-.19-1.51-.28-2.28-.43-3.44-.63,1.2-1.1,2.08-1.61,3-.24-.31-.48-.47-.48-.62,0-1.74.13-3.48.13-5.22a10,10,0,0,0-7.18-9.78,10.28,10.28,0,0,0-11.58,4.67c-2.44,4.14-2.44,4.14-2.64,6.84-1.19-1.48-.76-3.39-1.38-5.24-1.51,1.57-.73,3.55-1.52,5.14-1.07-1.06-.34-2.46-1-3.63-.93,2.8.15,5.27.66,7.79C69,35.47,75.46,23.56,85.66,22c9.27-1.43,17,4.12,18.81,13.43C104.87,37.72,105.57,40.14,102.22,40.91Z" fill="#fafafa"/><path d="M79.56,51.25A21.52,21.52,0,0,0,96.24,52,13.62,13.62,0,0,1,79.56,51.25Z" fill="#b2b2b2"/><path d="M102.22,40.91c2.84-1,1.86-3.51,2.25-5.49,1.36,5.19-.15,9.53-3.9,13.21.21-2.39,2.25-4,2.72-6.26C103.49,41.42,103.65,40.61,102.22,40.91Z" fill="#9e9e9e"/><path d="M74.32,45.1l5.31,6.2A7.7,7.7,0,0,1,74.32,45.1Z" fill="#a9a9a9"/><path d="M84.3,43.3c-3.69-3.48-4.18-6.92-1.83-10a6.87,6.87,0,0,1,9.06-1.64c.59.38,1.45.69,1.27,1.58-.07.34-.69.73-1.1.8C86.7,34.88,84,37.74,84.3,43.3Z" fill="#f7f7f7"/><path d="M92.45,47.58C89,49.23,86.32,49,83.7,47.22,86.39,47.73,89.11,47.53,92.45,47.58Z" fill="#5a5a5a"/><path d="M94,25.7c.62-.17,1.44-.84,1.45.55a1.44,1.44,0,0,1-1.65,1.55,1.33,1.33,0,0,1-1.36-1.39C92.27,24.59,93.41,25.85,94,25.7Z" fill="#454545"/></svg>