<svg xmlns="http://www.w3.org/2000/svg" width="2000" height="462" viewBox="0 0 2000 462"><title>footer-shape</title><path d="M1281.23,339c-.47-8.58-1.16-17.09-2.23-25.54l69.2-27.49a429.54,429.54,0,0,0-10.1-45l-74.38,4.82c-2.68-8.14-5.64-16.13-8.88-24l59.69-44.42a441.86,441.86,0,0,0-21.5-40.82l-70.44,23.85q-7-10.71-14.75-20.92L1254,81.12a443.69,443.69,0,0,0-31.21-34l-61.91,41.3q-9.52-8.55-19.65-16.44l29.53-68.44c-1.15-.82-2.31-1.62-3.48-2.43h-55l-29.65,33.77c-7.59-3.84-15.39-7.37-23.31-10.7l3.4-23.07H994.36l-1.24,2.51c-4.16-.88-8.32-1.78-12.55-2.5h-176l.82,12.76q-12.2,4-24,8.88L765.3,1.12H701.75L720,55q-10.72,7-20.93,14.74L640.78,23.63a440,440,0,0,0-34,31.22l41.3,61.9c-5.69,6.35-11.2,12.89-16.45,19.66l-68.43-29.54a435.08,435.08,0,0,0-24.62,38.95L594.54,195c-3.85,7.6-7.35,15.4-10.68,23.31L510.1,207.45a435.39,435.39,0,0,0-13.68,44l66.86,33c-.88,4.15-1.77,8.31-2.5,12.54s-1.29,8.45-1.86,12.65l-74.07,8.64a437.68,437.68,0,0,0-1.91,46.07L556,379c.48,8.58,1.16,17.11,2.23,25.56L489.06,432q2.64,15.47,6.34,30.64H631.8A303.16,303.16,0,0,1,618,307C646.72,141.22,804.91,29.7,970.66,58.39S1247.93,245.26,1219.24,411a306.22,306.22,0,0,1-13.67,51.67h127.55L1274,433.44c.9-4.14,1.78-8.3,2.52-12.53s1.29-8.45,1.85-12.65l74.08-8.65a445.81,445.81,0,0,0,1.9-46.06Z" fill="#ff2800" opacity="0.1"/><path d="M1999.56,408l-9.29-4.58c.73-3.39,1.46-6.8,2.06-10.26s1.06-6.91,1.51-10.35l5.72-.67V326.75l-3.35-.67c-.4-7-1-14-1.84-20.9l5.19-2.06V248.71l-17.69,1.14c-2.19-6.66-4.61-13.2-7.26-19.67l25-18.57v-49L1948.21,180c-3.81-5.84-7.85-11.56-12.07-17.12l37.76-47.71a361.08,361.08,0,0,0-25.54-27.81L1897.7,121.1q-7.8-7-16.08-13.46l24.16-56A352,352,0,0,0,1873.9,31.5l-40.21,45.79c-6.21-3.15-12.59-6-19.07-8.75l8.87-60.35q-10.44-3.85-21.19-7.07h-16.87l-25,50.59c-3.41-.72-6.82-1.45-10.27-2.05s-6.92-1-10.37-1.53l-5.48-47H1692l-8.93,44.66c-7,.38-14,.95-20.91,1.82L1643.74,1.12H1603l3.83,59c-6.66,2.19-13.21,4.63-19.67,7.27l-36.35-48.85a359.27,359.27,0,0,0-33.41,17.62L1537,93.75q-8.76,5.73-17.12,12.06l-47.72-37.74a358.91,358.91,0,0,0-27.81,25.54l33.8,50.65c-4.66,5.19-9.17,10.54-13.46,16.08l-56-24.17A356.89,356.89,0,0,0,1388.49,168l45.79,40.21c-3.15,6.21-6,12.59-8.74,19.07l-60.36-8.86a357.8,357.8,0,0,0-11.19,36l54.71,27c-.72,3.39-1.45,6.79-2,10.26s-1.06,6.91-1.53,10.35l-60.61,7.07a356.39,356.39,0,0,0-1.56,37.69l59.82,11.94c.39,7,1,14,1.82,20.91L1348,402.21a351.72,351.72,0,0,0,8.27,36.79l60.86-4c2.19,6.67,4.63,13.22,7.27,19.69l-10.67,7.94h67.16a248.31,248.31,0,0,1-27.35-162.78C1477,164.27,1606.42,73,1742.06,96.51S1969,249.41,1945.48,385a248.7,248.7,0,0,1-27.19,77.65h53q1.11-2.54,2.19-5.09l26.11,3.83Z" fill="#ff2800" opacity="0.1"/><path d="M1117.16,532l33.12-69.29a252,252,0,0,0,20.2-99.17c0-139.64-113.2-252.84-252.85-252.84S664.79,223.86,664.79,363.5A252,252,0,0,0,685,462.67L720.11,532" fill="none" stroke="#ff2800" stroke-miterlimit="10" stroke-width="35" opacity="0.1"/><path d="M1836.22,497.67l26.63-35A199.1,199.1,0,0,0,1903,342.46c0-110.46-89.55-200-200-200s-200,89.54-200,200a199.09,199.09,0,0,0,40.15,120.21l29.94,35" fill="none" stroke="#ff2800" stroke-miterlimit="10" stroke-width="35" opacity="0.1"/><path d="M413.89,231.69c-.55-9.8-1.33-19.53-2.56-29.19l79.11-31.42a490,490,0,0,0-11.55-51.39l-85,5.51c-3.07-9.31-6.46-18.45-10.15-27.49L452,46.94A501.89,501.89,0,0,0,427.86,1.12h-3L346.84,27.55q-8-12.26-16.86-23.92l2-2.51H238.72c82,77.65,125,193.57,104.3,312.92a346.58,346.58,0,0,1-63.85,148.63H393.32l-23.45-20.59c4.41-8.69,8.42-17.62,12.22-26.67l84.32,12.37a507.32,507.32,0,0,0,15.64-50.31L405.6,339.7c1-4.74,2-9.5,2.88-14.33s1.48-9.66,2.11-14.46L495.28,301a506.54,506.54,0,0,0,2.18-52.65Z" fill="#ff2800" opacity="0.1"/><path d="M154.18,494l36.53-31.35a278.71,278.71,0,0,0,93-208.1c0-112.25-66.2-209-161.69-253.45L102.52-7.83" fill="none" stroke="#ff2800" stroke-miterlimit="10" stroke-width="35" opacity="0.1"/></svg>