<svg xmlns="http://www.w3.org/2000/svg" width="120" height="120" viewBox="0 0 2000 2000"><title>Mono</title><circle cx="985.29" cy="1010.66" r="952.64" fill="#fff" stroke="#000" stroke-miterlimit="10" stroke-width="33"/>
  <defs>
    <filter id="iconfilter" primitiveUnits="objectBoundingBox" >
   <feFlood flood-color="#ff4200"/>
      
      
      <feOffset>
        <animate attributeName="dy" from="1" to="0" dur="3s" repeatCount="indefinite" />
      </feOffset> 
      
      <feComposite operator="in" in2="SourceGraphic" />
      <feComposite operator="over" in2="SourceGraphic" />
      
    </filter>
  </defs>
  <g id="cogwheel" filter="url(#iconfilter)">
  <path id="cog" d="M1542.84,1003.71,1449.3,985c-.61-11-1.49-21.87-2.86-32.68L1535,917.18a550.08,550.08,0,0,0-12.92-57.54l-95.18,6.18q-5.15-15.63-11.36-30.78l76.38-56.84A563.46,563.46,0,0,0,1464.39,726l-90.13,30.52q-9-13.71-18.88-26.77l59-74.63a566.47,566.47,0,0,0-39.94-43.5l-79.23,52.85q-12.19-10.94-25.15-21l37.79-87.58a554.43,554.43,0,0,0-49.85-31.51l-62.88,71.62c-9.72-4.92-19.7-9.43-29.83-13.69l13.87-94.38a562.11,562.11,0,0,0-56.34-17.5l-42.26,85.56c-5.33-1.12-10.65-2.27-16.06-3.2s-10.81-1.64-16.21-2.39l-11-94.78a556.31,556.31,0,0,0-58.93-2.44l-18.7,93.54c-11,.6-21.89,1.49-32.7,2.85l-35.14-88.57a552.85,552.85,0,0,0-57.55,12.93L840.44,569q-15.62,5.13-30.76,11.37L752.83,504a559.31,559.31,0,0,0-52.25,27.54l30.54,90.12q-13.71,9-26.77,18.87l-74.63-59a564.11,564.11,0,0,0-43.49,40l52.85,79.21c-7.29,8.13-14.34,16.5-21.05,25.16L530.47,688A551.48,551.48,0,0,0,499,737.89l71.61,62.88c-4.93,9.72-9.42,19.7-13.68,29.83L462.5,816.75A557.53,557.53,0,0,0,445,873.1l85.56,42.26c-1.12,5.31-2.26,10.63-3.2,16s-1.65,10.81-2.38,16.18l-94.79,11.07a561.51,561.51,0,0,0-2.44,59l93.55,18.66c.6,11,1.48,21.9,2.85,32.72l-88.57,35.14a552.27,552.27,0,0,0,12.93,57.55l95.18-6.2q5.15,15.64,11.36,30.79l-76.38,56.85a561.31,561.31,0,0,0,27.53,52.24l90.14-30.53q9,13.71,18.86,26.77l-59,74.62a558.62,558.62,0,0,0,40,43.49l79.21-52.84q12.21,11,25.15,21l-37.79,87.57A555.12,555.12,0,0,0,712.52,1497l62.87-71.62c9.72,4.91,19.7,9.45,29.83,13.69l-13.82,94.38A560.7,560.7,0,0,0,847.73,1551L890,1465.39c5.33,1.1,10.66,2.27,16.07,3.21s10.8,1.63,16.2,2.37l11,94.81a566.54,566.54,0,0,0,58.94,2.43l18.65-93.57c11-.58,21.9-1.49,32.71-2.83l35.15,88.57a548.44,548.44,0,0,0,57.54-12.94l-6.16-95.17q15.6-5.14,30.74-11.37l56.88,76.39a567.3,567.3,0,0,0,52.22-27.54l-30.54-90.12q13.71-9,26.78-18.87l74.65,59a571.79,571.79,0,0,0,43.47-40l-52.84-79.21c7.29-8.14,14.31-16.5,21-25.18l87.57,37.82a551.3,551.3,0,0,0,31.5-49.85L1400,1220.56c4.93-9.73,9.42-19.72,13.68-29.85l94.38,13.84a569,569,0,0,0,17.51-56.32L1440,1106c1.14-5.31,2.28-10.63,3.22-16s1.65-10.82,2.36-16.2l94.81-11.06A569.77,569.77,0,0,0,1542.84,1003.71Zm-624.1,391.62c-212.12-36.71-354.83-239.13-318.12-451.24S839.75,589.29,1051.87,626s354.81,239.13,318.1,451.23S1130.81,1432,918.74,1395.33Z" fill="#424242"/>
  </g>
    <path id="needle" d="M1576.78,359.79S1434.43,490.45,1419,505.7l-116.5,115.43Q1189.74,732.87,1077,844.62c-18.7,17.79-44.62,21-69.3,22.9-26.8,2.09-54.18,3.37-79.32,13.77-30.35,12.55-53.4,39.53-70,67.13-17.21,28.54-28,59.88-30.41,93.18-.89,12,14.93,17.37,22.8,9.57l83.12-82.35L1030.52,984q7.13,48.42,14.26,96.84l-83.12,82.35c-7.88,7.81-2.62,23.67,9.36,22.9,49-3.15,95.6-24.59,131.39-58,30.64-28.61,39.5-64.27,43-104.77,1.54-17.73,2.28-35.95,7.34-53.14s14.77-28.57,27.36-41l84.43-83.64,145.22-143.89L1481,631l34.1-33.78c8.93-8.85,148.26-135.93,148.26-135.93Z"/><path id="ending-red-line" d="M1584.79,560.54c31.61,35.27,50.7,70.31,78.59,106.12l58.88-52.26-81.65-104.19Z" fill="#ff2800"/><path id="reading-arc"d="M162.92,1010.67c8.55-364,257.33-681.53,610.9-776.3A823.29,823.29,0,0,1,1500.05,384.9l-40.94,37.71C1325.26,316,1164.57,261.46,987.65,261.46a771,771,0,0,0-199.5,26.4c-329.39,88.22-561.3,383.78-569.86,722.8"/><rect x="582.16" y="234.04" width="38.25" height="237.54" transform="translate(-95.85 347.9) rotate(-30)" fill="#ff2800"/><rect x="969.67" y="130.21" width="38.24" height="237.54" fill="#ff2800"/><rect x="298.49" y="517.72" width="38.24" height="237.53" transform="translate(-392.4 593.26) rotate(-60)" fill="#ff2800"/><rect x="1257.53" y="333.69" width="237.54" height="38.25" transform="translate(382.6 1368.31) rotate(-60)" fill="#ff2800"/><rect x="981.75" y="130.21" width="14.08" height="151.76" fill="#ff2800"/><rect x="572.8" y="239.79" width="14.08" height="151.76" transform="translate(-80.15 332.24) rotate(-30)" fill="#ff2800"/><rect x="273.43" y="539.16" width="14.08" height="151.76" transform="translate(-392.4 550.34) rotate(-59.99)" fill="#ff2800"/><rect x="1321.85" y="308.63" width="151.76" height="14.09" transform="translate(425.41 1368.23) rotate(-60)" fill="#ff2800"/><rect x="770.06" y="158.08" width="14.08" height="151.76" transform="translate(-34.07 209.12) rotate(-15)" fill="#ff2800"/><rect x="403.41" y="369.77" width="14.08" height="151.76" transform="translate(-194.9 420.75) rotate(-45)" fill="#ff2800"/><rect x="191.72" y="736.42" width="14.08" height="151.76" transform="translate(-637.3 793.99) rotate(-75)" fill="#ff2800"/><rect x="1124.6" y="226.92" width="151.76" height="14.09" transform="translate(663.79 1332.99) rotate(-75)" fill="#ff2800"/></svg>