<svg xmlns="http://www.w3.org/2000/svg" width="860" height="900" viewBox="0 0 860 900"><title>motorCog</title><g opacity="0.5"><path d="M777.21,309.11c4.61-.66,9.21-1.39,13.84-1.94,2.47-.3,5.24-1,7.39-.19,2.37.88,5.19,2.89,6,5.07s-.28,5.38-1.44,7.68c-.89,1.76-3.12,2.91-4.9,4.12-2.9,1.95-5.88,3.79-8.89,5.57-15.31,9.08-13.28,22.81-6.9,33.57,3.94,6.66,10.64,8.1,17.65,8.55,5,.32,10,.24,15,.68,4.12.36,7.32,2.15,8,6.81s-1.82,7.29-5.55,9c-5,2.31-10.17,4.18-15.12,6.54-9.78,4.68-13.49,11.45-12.48,22.18s6,16.7,16.4,19.5c5,1.33,10.1,2.12,15.12,3.32,4.31,1,8,3.06,8.07,8.16.12,5.41-3.72,7.49-8.16,8.63-5,1.29-10.12,2.1-15.09,3.48-10.33,2.89-15,8.76-16,19.79-1,10.18,2.9,17.19,12.46,21.73,5,2.35,10.19,4.12,15.2,6.36,3.9,1.75,6.74,4.44,5.92,9.28s-4.29,6.47-8.61,6.81c-4.81.37-9.64.5-14.46.8-11.77.71-18,5.68-20.92,16.56s-.16,18.26,9.67,24.85c4.14,2.79,8.55,5.18,12.65,8,3.47,2.41,5.87,5.51,4.08,10.19s-5.49,5.55-9.73,5.19c-6-.51-11.9-1.44-17.87-1.94-9.92-.85-15.93,4.65-19.9,13-4.49,9.37-3.54,16.8,3.28,23.94,3.9,4.08,8.37,7.62,12.45,11.54,3.3,3.18,5.62,6.79,2.81,11.5-2.66,4.46-6.82,4.29-11,3.13-4.81-1.32-9.51-3.07-14.33-4.36-10.69-2.88-18.06-.1-24.27,8.92s-6.27,16.43,0,25.42c3.06,4.36,6.58,8.38,9.72,12.69,2.5,3.44,3.78,7.13.68,11-3.24,4.06-7.24,3.54-11.28,1.62-4.65-2.22-9.13-4.83-13.82-7-10.07-4.62-17.87-3.08-25.45,4.75s-8.85,15.3-4.19,25.12c2.21,4.66,5,9.06,7.21,13.71,1.9,3.94,2.7,8-1.28,11.37s-7.84,1.94-11.43-.6c-4.08-2.88-7.87-6.17-12-9-12-8.29-27.62-4-34.13,9.21-2.56,5.18-1.82,10.39-.28,15.58s3.26,10.14,4.78,15.24c1.16,3.88.46,7.26-3.14,9.65-3.9,2.59-7.43,1.44-10.41-1.44-3.71-3.59-7-7.56-10.67-11.23-10.6-10.74-25.7-9.93-35.28,1.81-4.16,5.1-4.2,11.05-3.46,17.11.59,4.8,1.48,9.55,1.95,14.36.43,4.3-.7,8-5.33,9.59-4.47,1.58-7.48-.74-9.82-4-3.11-4.32-5.71-9-8.8-13.34-6.54-9.16-14-11.71-24.39-8.64-10.72,3.17-15.45,9-16.19,20.15-.35,5.15-.42,10.32-.72,15.48-.25,4.34-1.78,7.85-6.57,8.79s-7.61-1.78-9.43-5.67c-2.18-4.68-3.93-9.55-6.14-14.21-4.95-10.41-11.55-14.1-22.83-13-10.74,1-16.49,6.05-19.33,17.15-1.11,4.35-1.78,8.81-2.8,13.19-1.52,6.59-4.16,9.38-8.66,9.39s-7-2.67-8.75-9.35c-1.29-5-2.13-10.12-3.66-15-3-9.51-9-13.91-19.21-14.65-10.71-.78-17.19,2.59-21.59,11.76-2.37,4.95-4.07,10.21-6.28,15.23-1.75,4-4.13,7.34-9.34,6.66-5.52-.72-6.82-4.85-7.28-9.33-.59-5.8-.6-11.65-1.18-17.44-1-9.92-7.59-15-16.43-17.15-8.57-2.14-16.72-1.17-22.34,6.84-2.86,4.08-5.31,8.46-8.11,12.59-1.47,2.19-2.91,4.87-5.06,6s-5.69,1.67-7.76.67a8.84,8.84,0,0,1-4.3-6.45c-.17-5.61.77-11.26,1.4-16.87,1.31-11.58-2.46-18.61-12.73-23.49-10.08-4.78-17.74-3.4-25.79,4.88-3.7,3.82-7.06,8-10.77,11.81-2.86,2.95-6.24,4.41-10.34,2.14s-4.61-6-3.65-9.93c1.17-4.85,2.91-9.55,4.25-14.36,4.16-14.91-5.14-28.72-20.57-29.79-3.69-.26-7.9,1.32-11.25,3.18-4.32,2.4-8,5.9-12,9-6.59,5.15-10.47,5.91-14.24,2.73s-3.71-7,.13-14.56c1.89-3.71,4-7.34,5.61-11.16,4.17-9.63,2.55-17.14-5-24.53s-15.1-8.89-24.61-4.46c-5,2.32-9.69,5.2-14.6,7.65-3.8,1.9-7.66,2.57-11-1.11-3.45-3.86-2.3-7.76.24-11.42,2.94-4.23,6.31-8.18,9.21-12.44,6.29-9.21,6.11-17.08-.32-25.87s-13.44-11.29-24-8.41c-3.85,1-7.57,2.54-11.37,3.8-8,2.68-11.81,2.13-14.41-2.06s-1.42-7.74,4.83-13.63c3.26-3.09,6.61-6.1,9.78-9.29,7.08-7.15,7.26-15.39,3.17-24s-10.32-14-20.42-13c-5.79.57-11.54,1.6-17.33,2.23-4.37.48-8.46,0-10.28-5s.74-8,4.4-10.55c4.38-3,9-5.72,13.29-8.88,8.59-6.36,10.93-13.9,7.85-24.19s-8.8-15-19.37-15.8c-5.48-.41-11-.44-16.48-.73-4.16-.23-7.53-1.78-8.57-6.24-1.1-4.72,1.41-7.71,5.35-9.59,4.8-2.29,9.83-4.12,14.62-6.44,10.11-4.89,13.87-11.7,12.75-22.52s-6-16.68-17-19.45c-5-1.26-10.13-2-15.14-3.23-4.08-1-7.52-2.95-7.7-7.9-.2-5.22,3.22-7.41,7.49-8.6,5.45-1.51,11.07-2.46,16.46-4.14,9.71-3,14.23-9.17,14.95-19.56S66.64,407,57.41,402.66c-5-2.32-10.23-4-15.26-6.21-4-1.75-7.28-4.23-6.53-9.41s4.65-6.63,9-7.1c5.62-.61,11.32-.54,16.94-1.22,9.78-1.19,15.49-6.4,17.86-16.3,2.17-9.09.94-17.34-7.46-23-4.54-3.08-9.36-5.76-14-8.78-3.88-2.56-7.39-5.43-5.47-11,1.83-5.28,6.15-5.56,10.63-5.2,5.14.41,10.25,1.24,15.4,1.61,10.24.76,16.88-3.4,21.33-13.1,4.37-9.52,3.32-17.06-3.83-24.3-4-4-8.48-7.51-12.57-11.42-3-2.89-5.18-6.18-2.89-10.64,2.4-4.68,6.47-4.9,10.74-3.85,5,1.23,9.87,3,14.86,4.32,10.73,2.78,18.1-.07,24.21-9.14,6-8.85,6-16.73-.3-25.45-3-4.19-6.46-8.06-9.56-12.18-2.65-3.52-4.31-7.28-1.07-11.39,3.39-4.3,7.55-3.49,11.73-1.52,4.82,2.26,9.47,4.91,14.36,7,9.52,4.06,17.22,2.25,24.46-5.38s8.66-15,4.32-24.26c-2.39-5.12-5.37-10-7.93-15-2-3.85-2.36-7.64,1.34-10.9s7.45-2.21,11,.19c4.39,3,8.51,6.41,12.93,9.38,9,6.05,16.64,5.84,25.44-.43s11.47-13.47,8.57-24c-1.47-5.29-3.46-10.43-5.08-15.67-1.29-4.19-.82-8,3.34-10.46s7.75-.68,10.78,2.25c3.23,3.13,6.26,6.46,9.27,9.81,11.45,12.75,24.22,9.22,34.28.33,5.78-5.1,6-12,5-19-.57-4.29-1.44-8.54-2-12.83-.84-6.26.7-9.5,5.09-11.13,5.25-2,8.18,1.36,10.77,5,2.81,3.92,5.2,8.15,8,12,6.64,9.13,14,11.57,24.45,8.41,10.84-3.26,15.6-9.36,16.1-20.73.25-5.49.29-11,.69-16.46.29-4.09,2.5-6.81,6.73-7.53s6.76,1.45,8.49,4.76c1.84,3.53,3.41,7.22,4.94,10.91,6.75,16.31,13.2,18.72,30.74,16.41,15.26-2,19.18-6.68,22.25-21.94.82-4.07,1.75-8.14,3-12.1a7.81,7.81,0,0,1,14.92,0c1.41,4.78,2.33,9.7,3.45,14.56,3.4,14.77,11.72,20.61,26.79,19a17.55,17.55,0,0,0,14.56-10c2.06-4,3.56-8.25,5.36-12.36a72,72,0,0,1,3.23-6.75,7.45,7.45,0,0,1,8.42-3.94,7.28,7.28,0,0,1,6.29,6.84c.59,5.46.69,11,1,16.45.92,15,13.84,25,28.45,21.17,4.39-1.16,8.47-5,11.71-8.58,3.44-3.75,5.59-8.65,8.5-12.9,3.71-5.42,6.88-6.76,11.16-5,5,2.08,5.32,6.38,4.83,10.89-.53,5-1.43,9.9-1.86,14.87-.9,10.57,2.91,17,12.51,21.69s17.6,3.48,25.16-3.93c3.8-3.73,7.14-7.92,10.86-11.74,3.07-3.15,6.58-5.27,11.12-2.7s4.46,6.76,3.36,11c-1.48,5.63-3.49,11.12-5,16.73-2.6,9.6,1.62,16.64,9.13,21.93s15.48,7.07,23.71,1.48c3.44-2.33,6.66-5,10-7.46a73.78,73.78,0,0,1,6.55-4.57c3.15-1.84,6.34-1.8,9.27.69a7.32,7.32,0,0,1,2.12,9.05c-2.13,4.88-4.77,9.52-7.12,14.3-6.13,12.49-3.43,22.39,8,30.32,6,4.19,12.37,4.84,18.93,1.9,5.3-2.38,10.35-5.34,15.59-7.89,4.14-2,8.34-2.88,11.74,1.41,3.21,4.05,1.63,7.88-.94,11.44-3,4.19-6.41,8.11-9.32,12.36-6.1,8.9-5.89,16.72.35,25.44s13.07,11.38,23.42,8.77c3.87-1,7.59-2.49,11.43-3.61,2.38-.7,5-1.85,7.25-1.48a13.93,13.93,0,0,1,7.48,3.66c2.4,2.55,1.87,6.13-.5,8.67-3.74,4-7.85,7.67-11.81,11.47-10.2,9.79-11,20.16-2.76,31.61C764.21,306.9,769.93,309.43,777.21,309.11ZM583.34,449.93c0-84.49-68.73-153.25-153.29-153.29a153.33,153.33,0,0,0-153.4,153.12c-.13,84.57,68.36,153.33,153,153.58S583.31,534.67,583.34,449.93ZM165.42,551.77c1.5,5.74,2.17,11.87,4.64,17.16q43.58,93.6,136.48,138.91c13.22,6.44,26.66,5.48,39.15-2.28,13.2-8.2,19.91-20.53,19.5-36-.43-16.11-8.46-27.8-22.43-35.91-13.07-7.58-26.42-15-38.42-24.06C278.26,589.85,259,564.38,245,534.79c-8.62-18.28-27.49-27.33-46.77-23C179.85,515.93,166.6,532.42,165.42,551.77ZM694.55,347.59c-1.6-5.72-2.43-11.79-4.91-17.09q-43.41-92.78-135.41-138a41,41,0,0,0-55.32,18.65c-10.12,20.52-1.92,44.58,18.8,55.34,5.76,3,11.57,5.92,17.11,9.29,35.87,21.81,62.44,51.93,80.35,89.88a40.9,40.9,0,0,0,46.09,22.61C680.34,383.85,693.63,367.27,694.55,347.59ZM328,186.35c-8.52,0-13,1.28-26.41,8.13q-85.8,43.86-128.65,130.19c-8.11,16.32-5.75,34.18,5.84,47a41.09,41.09,0,0,0,67.32-8.95c9.38-18.35,20.41-35.48,34.43-50.62a207.72,207.72,0,0,1,64.59-47c18-8.49,27.41-27.66,23.19-46.27A41.25,41.25,0,0,0,328,186.35ZM692.83,556.08c-1.13-19.19-14-35.69-32.16-40.2-18.71-4.65-38.19,3.76-46.76,21.15-21.89,44.39-55.08,77-99.78,98.24a41.2,41.2,0,0,0,35.5,74.37q92.48-43.41,137.64-135.15C690.06,568.81,691,562.23,692.83,556.08ZM666.54,426.34a23.65,23.65,0,1,0,23.73,23.78A23.65,23.65,0,0,0,666.54,426.34ZM453.65,686.73a23.66,23.66,0,1,0-24,23.55A23.79,23.79,0,0,0,453.65,686.73Zm0-473.21a23.66,23.66,0,1,0-23.91,23.57A23.71,23.71,0,0,0,453.65,213.52ZM217.06,449.83a23.68,23.68,0,1,0-23.27,23.81A23.45,23.45,0,0,0,217.06,449.83Z" fill="#424242"/></g></svg>