<svg xmlns="http://www.w3.org/2000/svg" width="70.17" height="163.94" viewBox="0 0 70.17 163.94"><title>piston</title><path d="M66.6,36.68c0-9.33-.14-18.66.09-28C66.76,5.74,65.5,4.52,63,4.13c-4.8-.77-9.62-1.46-14.45-2C34.92.43,21.4,1.69,7.94,4.05c-2.71.48-4,1.72-3.89,4.78.24,6,0,11.94,0,17.91,0,12.87,0,25.74-.08,38.61,0,1.89.8,2.21,2.48,2.28,4.74.18,8.88-.37,12.64-4.07,4-3.88,4.52-3.39,5.79,1.9a25.3,25.3,0,0,1,.57,5.94V96.52c0,7.25,0,14.5,0,21.75,0,3.46-3.79,8.15-6.05,7.25s-5.94-1.5-6.31-.08c-.63,2.42-3.06,3.68-3.06,6.14,0,8.24-.34,16.51.12,24.73.3,5.31,4.94,6.59,9.32,3.2a4,4,0,0,1,4.5-.65,24.14,24.14,0,0,0,22.33.08c2-1,4.17-.43,4.7.64,1.49,3,4.33,2.33,5.66,1.55,1.68-1,3.89-2.57,3.88-5.28,0-7.88.16-15.76-.07-23.62-.14-4.71-4.94-8.91-8.26-7.24a3,3,0,0,1-3.81-.48,8.25,8.25,0,0,1-3.56-7c.12-15.25.06-30.49,0-45.74a28.92,28.92,0,0,1,.6-5.94c1.18-5.62,2-6.13,6.23-2.14,3.45,3.24,7.13,4,11.55,4,3,0,3.41-1,3.37-3.66C66.51,54.92,66.6,45.8,66.6,36.68ZM35.38,34.85c7.1,0,7.09,11,0,11S28.3,34.85,35.38,34.85ZM35,148c-9.84,0-9.82-15.26,0-15.26S44.86,148,35,148Z" fill="#0d0d0d"/><path d="M19.31,58.12l-1.42.65C16.46,55.5,17,52,16.77,48.6c-.17-2.72-.09-5.45,0-8.18,0,4.83-.16,9.65.32,14.47.15,1.58.27,3.24-.73,4.69C13.86,62,12.44,65.81,8,65.49A5.27,5.27,0,0,1,7,61.64q0-16,0-32.07A5.72,5.72,0,0,1,7.79,26c1.86-1.37,2.09,0,2.15,1.35.08,2,0,4.11,0,5.73a8.13,8.13,0,0,1,0-2.49c.18-1.76-1-4.33.91-5.11,2.69-1.09,5.74-2.78,8.76-.43,1.5,2.22.36,4.59.38,6.89.07,7.3,0,14.6,0,21.9C20.08,55.3,20.36,56.84,19.31,58.12Z" fill="#101010"/><path d="M26.89,122.29l0-.17c.95-1.05.13-3.23,2.26-3.52,1.78,2.82,4.15,4.42,7.65,3.69,7.76-.24,17.32,9.57,16.4,16.73-.4,1.48-1.13,2.08-2.53,1-1.1-3.3-1.92-6.73-4.37-9.4-2.84-3.07-6.18-5-10.52-4.83-8.39,0-13.23,3.68-15.37,11.85-.35,1.34-.5,2.75-2.12,3.24-2.79.32-2.32-1.53-2.23-3.2.09,3.14-.13,6.27,0,9.42,0-1.48,0-3,0-4.43s.89-1.84,2.16-1.74c1.7-.06,1.88,1.24,2.19,2.44.5,1.9.89,3.84,2.39,5.28a19.63,19.63,0,0,0,8.94,6.3c8.58,1.36,15.37-2.75,18-10.88.34-1,.31-2.26,1.29-3,1.27-.34,1.84.37,2.18,1.44.42,7.18-6.88,15.4-15.12,16.09-2.88.93-5.72.4-8.56-.24a10.84,10.84,0,0,1-3.16-1.09,7.09,7.09,0,0,0-6.67-1,14.78,14.78,0,0,1-4.46.06,2.29,2.29,0,0,1-2.5-2.58c-.05-7,0-13.94,0-20.9a3,3,0,0,1,2.92-3.22,34.05,34.05,0,0,0,4.35-1.06A10.07,10.07,0,0,0,26.89,122.29Z" fill="#0e0e0e"/><path d="M38.85,30.88c6.21.61,6.21.61,6.22,6.89,0,5.23,0,10.45,0,15.67,0,1.51,0,2.81-2.12,2.25-4-1-8.17-.54-12.26-.72-.34-3.57-.34-7.24-2.8-10.24-.16-2.08-.87-4.15-.13-6.25a1.27,1.27,0,0,1,1.31-.85c1.25,1.06.68,2.77,1.44,4,3.43,4.22,5.52,4.43,9.15.9A5.12,5.12,0,0,0,40.35,38c-.29-.93-.48-2,1.13-2,2,1.36,1.42,3.37,1.4,5,1-3.83-1.58-6.09-4.46-8.25C37,31.62,37.09,31.52,38.85,30.88Z" fill="#fbfbfb"/><path d="M38.13,157.88c8.35-2.1,13-7,14.29-15,1.89,1.78,1.89,1.78,1.52,5.21.71-1.93-.43-3.85-.17-5.71a49.93,49.93,0,0,0,.47-6.22c0,1,0,2-.05,3.08,0,.58,0,1.39-.87,1.24-.71-.12-.55-1-.85-1.49-1.09-8.75-6.43-14.09-15.84-15.84a1.11,1.11,0,0,1,.07-1.21c2.84-2,3.54-4.83,3.42-8.17-.18-4.87-.07-9.74,0-14.61,0-1.36-.14-2.76.58-4a.77.77,0,0,1,1.1-.3L42,96.23c1.39,4.25.31,8.62.64,12.91.36,4-.75,8,.69,11.92a13.38,13.38,0,0,0,6.82,6.7c1.75,1.31,4.13,1.42,5.78,2.94a2.82,2.82,0,0,1,.93,1.59,150.49,150.49,0,0,1,.08,21.55c-.17,2.91-2.92,2.48-4.93,2.79-.37.12-.74.25-1.11.4a5.42,5.42,0,0,0-5.77.34,11.54,11.54,0,0,1-7,1.88A.85.85,0,0,1,38.13,157.88Z" fill="#f5f5f5"/><path d="M52.32,58.75C50.26,58.46,50,57.13,50,55.29c.09-7,0-13.94,0-20.91,0-5.7-1-6.86-6.58-7.79-.73-.12-1.49-.14-2.23-.2-2.46-.57-4.95-.12-7.42-.27-.88-.05-1.81,0-2-1.14s.47-1.84,1.49-2.22a6.35,6.35,0,0,1,2.2-.36c4.35,0,8.7.05,13,.09a3.93,3.93,0,0,1,3.08,1.05h0a5.89,5.89,0,0,1,1.66,3.05c.63,9.69.24,19.4.22,29.11A3.76,3.76,0,0,1,52.32,58.75Z" fill="#f0f0f0"/><path d="M29,118.8c-.9,1-.72,2.66-2.13,3.32V65L28.92,67a2.32,2.32,0,0,1,.91,1.14c.67,4.07.33,8.18.3,12.27-.11,12.42.41,24.85-.27,37.26A2.44,2.44,0,0,1,29,118.8Z" fill="#3e3e3e"/><path d="M59.06,64.67l-2.22-2.94a7.12,7.12,0,0,1-1.05-4.25c0-9.54,0-19.07,0-28.61,0-1.55-.26-3.32,1.65-4.17,2.47-.09,3.33,1.45,3.36,3.56Q61,45.12,60.82,62C60.81,63.1,60.94,64.63,59.06,64.67Z" fill="#1a1a1a"/><path d="M52.32,58.75q0-16.45-.07-32.91C52.56,24,53.8,24.35,55,24.72c1.32.81,1,2.16,1.06,3.36,0,9.42.05,18.85,0,28.28,0,1.34.74,3.55-2.1,3.19Z" fill="#161616"/><path d="M34.39,3.38c5.67-.73,11.25,1,16.9.74.79,1.53,2.49,3,.58,4.82-3.82,2.48-8,1.19-12.06,1.16-1.58,0-3.18-.5-4.81-.53-2.74-.05-3.87-1.37-3.07-4.1l.75-.81A4.51,4.51,0,0,1,34.39,3.38Z" fill="#f4f4f4"/><path d="M53.13,11.43l1.37.15c.3.57-.07.88-.46,1.17-1.46.51-.81,2.31-1.88,3.07a5.5,5.5,0,0,1-2.11,1,60.21,60.21,0,0,1-15.23-.6c-2.07-.29-3.53-1.24-3.3-3.67a3.51,3.51,0,0,1,1.54-2.28A54.49,54.49,0,0,1,53.13,11.43Z" fill="#fbfbfb"/><path d="M54.63,18.17l1.44.22a2.17,2.17,0,0,1,1.38,1.33c.24.78.42,1.58.59,2.38a1.34,1.34,0,0,1-.48,1.3,7.28,7.28,0,0,0-3.68-.67c-.29-.31-.1-1.25-.66-1-5.49,2.16-10.95,1.07-16.35-.22-.91-.22-1.26.19-1.86.33-1.62.38-3,.19-3.62-1.62A3.22,3.22,0,0,1,32,17.24c2-1.15,4.09-.78,6.2-.72C43.74,16.7,49.25,16.82,54.63,18.17Z" fill="#fbfbfb"/><path d="M8.66,25.78c-1.15.84-.61,2.07-.61,3.11,0,12.2,0,24.4,0,36.6-1.59.3-2.14-.27-2.13-2q.11-17.52,0-35a3.08,3.08,0,0,1,1.42-2.8A1.16,1.16,0,0,1,8.66,25.78Z" fill="#fdfdfd"/><path d="M31.9,20.41c1.44,1.07,2.87,2.05,4.09-.29,0-.08-.17-.69.46-.26,4.54,3.1,9.77,1.52,14.69,2,.66.07,1.11-.42,1.46-1,.59-1,1.06-2.92,2.52-1.48,1.15,1.13-.1,2.45-1.24,3.31l-2.32.81c-5.18-.08-10.36-.21-15.53-.22-1.34,0-3.57-.8-3.69,1.16-.15,2.53,2.22,1,3.42,1.22,1.77.38,3.7-.27,5.43.69l-10,0c-.66-.53-1.73.15-2.27-.76,0-.38.1-.71.57-.76-.27-.5-.54,0-.77,0a4,4,0,0,1-1.83-.12,13.25,13.25,0,0,1-1.5-.64c-1.42-1-4.06.54-4.6-2.23,1.77-1.41,3.52-.47,5.28,0,.15-.86-2.8,0-1.12-1.82C27.31,19.23,29.65,18.94,31.9,20.41Z" fill="#6d6d6d"/><path d="M26.89,122.29c-.76,5.24-4.91,6.67-9.09,7.3-3.49.53-4.46,1.86-4.3,5.26.28,5.84.15,11.7,0,17.55,0,2.28.41,3.77,3,3.13,4.8-1.17,9.09.13,13.25,2.37.11.69-.06,1.06-.84.72-4.38-2.81-9.13-1.67-13.79-1.24-2.67.24-3.41-.83-3.35-3.4.14-6.6.2-13.21,0-19.81-.11-3.3,1.31-5.09,4.27-5.44A15.25,15.25,0,0,0,26.89,122.29Z" fill="#f0f0f0"/><path d="M29,25.66l2.15.71c-1,.08-2,.09-3,.23-6.48.91-7.4,2-7.4,8.54s0,13.21,0,19.82c0,1.18.78,2.94-1.47,3.16.6-11,.45-22.09.09-33.14-.78-.52-1.56-1.05-.36-1.94,2.36.12,4.75-.19,7.07.49l.62.59C26.65,25.91,28.69,24.51,29,25.66Z" fill="#e4e4e4"/><path d="M59.06,64.67c1.16-.65.67-1.77.68-2.67,0-11.17,0-22.34.06-33.51,0-1.78-.14-3.22-2.24-3.56-.23-.12-.31-.23-.23-.35s.14-.19.22-.19a9.27,9.27,0,0,1,5.32,1.23c2.23,5.37,1.35,11,1.36,16.53-.61,3.28-.2,6.6-.34,9.89-.07,1.57.26,3.22-.94,4.55-.05,2.23-.08,4.47-.16,6.7C62.7,66,61.93,66.31,59.06,64.67Z" fill="#b7b7b7"/><path d="M54.63,18.17c-2.21,1.52-4.21-.36-6.32-.4-5.42-.11-10.83-.17-16.25-.26-.92,1.55-2.07,1.89-3.52.67-1.53-2.27-4.05-1.71-6.2-2.05-1.68-.26-3.42-.05-5.45-.34,2.74-.06,2.37-1.85,2.39-3.41,1.89,0,2.77,2.76,5,1.85,2.42-.54,5.08-.27,7.12-2.11a1.29,1.29,0,0,1,1,.08c-.69,2,0,3,2.17,3.11a157.91,157.91,0,0,0,16.27.75,1.46,1.46,0,0,1,1.56.81Z" fill="#5e5e5e"/><path d="M53.13,11.43c-5.54.45-11-1.18-16.54-.65-1.22.12-2.45.11-3.67.16-3,1.63-6.41.27-9.51,1.24a5.46,5.46,0,0,1-3.67-.31c.35-1.1-2.49-2-.19-3.25,3.2-1,6.32,1.73,9.44.13-1.3-.62-3.48,2-4.28-1,2.49-.47,5.76,1.55,7.22-2.24,0,2.3.75,3.52,3.49,3.42,4.2-.15,8.42.15,12.62.38,1.71.09,3.21,0,4.22-1.61,1,.07,1.7.41,1.77,1.53-.6.8-1.69.1-2.34.76C51.06,11.52,53.06,10.53,53.13,11.43Z" fill="#5a5a5a"/><path d="M23.12,56.74c-1.76-2.79-1.28-5.63-1.33-8.42-.08-5.12,0-10.24,0-15.36,0-1.49-.16-3.18,1.66-3.79,7.86-2.67,15.72-2.89,23.54.36-2.28-.33-4.57-.6-6.84-1-4.65-.81-9.18,0-13.73.77-2.52.4-3.43,1.62-3.36,4.29C23.25,41.31,23.12,49,23.12,56.74Z" fill="#828282"/><path d="M18.92,9.27c-1.18.94,2.09,1.09.38,2.14-.62.76-1.49.36-2.25.48-1.49-.07-2.93,1.38-4.46.13.27-.5.86-1.09.35-1.58-.89-.87-1.74,0-2.59.33C7.76,10.16,6.25,9,8.13,6.22l-.06,0c3.14-1.19,6.51-1,9.76-1.54,3.09-.47,2.35,1.92,2.12,3.71A1.59,1.59,0,0,1,18.92,9.27Z" fill="#141414"/><path d="M57.55,24.39a.9.9,0,0,0,0,.54c-1.3,1.1-.62,2.57-.63,3.85-.09,11-.08,22-.09,32.95A4.51,4.51,0,0,1,54,59.55c1,.12,1.27-.4,1.27-1.3q0-16.38-.08-32.77c0-.17-.31-.35-.47-.52-.23-.69-.06-1,.71-.77Z" fill="#fcfcfc"/><path d="M28.12,44.54c3.59,2.8,4.14,6.36,2.58,10.43l-1,.09c-4,.52-4,.52-4-3.23.05-3.16-.32-6.34.26-9.51C27.67,42.34,27.9,43.43,28.12,44.54Z" fill="#151515"/><path d="M54.72,130.64c-1.68-.74-3.61-1.07-4.62-2.88,1.92.41,3.85.81,5.78,1.24a3.23,3.23,0,0,1,2.87,3c.13,8.33.88,16.68-.39,25-.85.18-1.16-.4-1.41-1-.22-7.22,0-14.44-.1-21.67C56.83,132.7,57,131,54.72,130.64Z" fill="#8d8d8d"/><path d="M63,56.59c-.06-4.78-.62-9.59.64-14.32l.32.55c.1,3.75,0,7.49.07,11.23V41.87c-.13-4.07.3-8.15-.32-12.21a3.61,3.61,0,0,1,.69-3.15c1,.5.84,1.45.84,2.29q0,17.39,0,34.78a1.64,1.64,0,0,1-.83,1.77C62.46,62.63,64.41,59.28,63,56.59Z" fill="#4a4a4a"/><path d="M38.85,30.88,38.5,31c-.12,0-.32.08-.34.15-.19.8.58.56.9.75,3.85,2.26,5.19,5.53,4,10.19-.81-2.14.12-4.56-1.93-5.92a12.64,12.64,0,0,1-3-1.64c-2-1.44-3.79-.92-5.63.5-1.14.88-1.87,2.27-3.34,2.73-.58-.14-.71.24-.8.68-1.94-.39-1.43-1.85-1.38-3.12a8.1,8.1,0,0,1,1.67-2.75c.47-.61,1.23-.51,1.85-.75C33.2,31.19,35.79,29,38.85,30.88Z" fill="#222"/><path d="M27.36,34.88c1.25.94-.9,2.79.94,3.57-.6,2,1.65,4.12-.18,6.09-.51-.47-1-.94-1.83-1.69,0,3.11.22,5.95-.06,8.74s.81,3.83,3.49,3.47c-4.22,1.57-4.38,1.48-4.38-2.68,0-5.74-.06-11.49,0-17.23.05-3.31,1.45-4.16,5.08-3.32L29.22,33C27.18,33.77,27.18,33.77,27.36,34.88Z" fill="#b2b2b2"/><path d="M43.28,121.06c-1.33.38-1.33-.42-1.32-1.39,0-3.34,0-6.68,0-10,.77-4.46-.2-9,.51-13.45l.25-13.38h.5Z" fill="#9a9a9a"/><path d="M18.92,9.27l.47-.72c.95-1.34-.36-3.1.82-4.39,2.85-.53,5.26-.5,4.5,3.55,1.35,2,3.45.23,4.95,1C26.24,10.85,22.54,9.33,18.92,9.27Z" fill="#f6f6f6"/><path d="M24.7,20.45c-.05,1.36,1.36.58,1.87,1.31l-5.75.38a.92.92,0,0,1-1.06-.29,3,3,0,0,1-.43-1.1c-.53-3.18,2.09-2.64,3.78-3.2,1.47.14,3.1-.75,4.38.67C26.78,19.24,25.37,19.38,24.7,20.45Z" fill="#f8f8f8"/><path d="M25.2,57.81a24.11,24.11,0,0,1,19.24,0A66,66,0,0,0,25.2,57.81Z" fill="#727272"/><path d="M18.71,23.57,19.4,25c-8.58.57-8.58.57-9.35,9.12-1.22-2.76.68-5.89-1.39-8.32l-1.33-.09c1.53-1.88,3.76-1.35,5.74-1.7C14.89,23,16.7,21.91,18.71,23.57Z" fill="#4c4c4c"/><path d="M16.33,59.58q0-9.54.07-19.06a1.59,1.59,0,0,1,.42-1.09c0,6.48.86,12.89,1.07,19.34Z" fill="#3f3f3f"/><ellipse cx="48.2" cy="43.75" rx="0.23" ry="18.4" fill="#d2d2d2"/><path d="M57.56,23.4V22.13c1.16-1.18,0-1.67-.68-2.32l-.81-1.42c2.32.18,4.7,0,6.77,1.4,1.4,2,.34,2.92-1.45,3.59Z" fill="#bfbfbf"/><path d="M17.13,11.57l2.17-.16H23a1.68,1.68,0,0,1,1.89.14,2.9,2.9,0,0,1-.28,3.72c-2.42.25-4.81.45-5.29-2.88l-2.14-.18c-.28-.14-.38-.28-.28-.42S17,11.57,17.13,11.57Z" fill="#f7f7f7"/><path d="M29.19,67.73,28.92,67a6.25,6.25,0,0,1,5.6-5.06,6.12,6.12,0,0,1,6.63,3.55c.42.74.41,1.36-.47,1.75a2.45,2.45,0,0,1-1.23-.74c-3.79-3.39-5.85-3.1-9.31,1.3A.78.78,0,0,1,29.19,67.73Z" fill="#c7c7c7"/><path d="M24.7,20.45c-.69-2.77,1.29-2.2,2.79-2.23l1.05,0c1.2-.12,2.49.28,3.52-.67-.06,1-.11,1.93-.16,2.9Z" fill="#101010"/><path d="M53.89,9.16l-1.63-1.5c0-.86.1-1.78-1-2.15-1.58-.51-.22-.93,0-1.39,1.18-.14,2.4-.52,3.31.66a2.82,2.82,0,0,1,1.26,3.77C55.5,9.43,54.85,10,53.89,9.16Z" fill="#1e1e1e"/><path d="M52.4,16.87l-1.56-.81a1.21,1.21,0,0,1,1.31-.82,3.13,3.13,0,0,0,2-.78c.64-1.59,1.2-3.29,3.51-2.29l1.44.2a.74.74,0,0,1,0,.89c-1.3,1.18-.72,2.07.45,2.86l.35.38a.83.83,0,0,1,0,.93Z" fill="#d6d6d6"/><path d="M64.35,26.51l0,15.74c-.23.34-.47.36-.72,0h0c.76-5.59-.83-11.08-.72-16.65Z" fill="#fafafa"/><path d="M18.71,23.57,13.07,24l-1.33-.54c0-1.1.88-1.31,1.7-1.55,2.22.18,4.45-1.19,6.66,0a3.49,3.49,0,0,0,.72.2c1.55,1.26,3.87-.38,5.29,1.39Z" fill="#323232"/><path d="M59.84,5.35c1,.27,2.19,0,3,.91a2.76,2.76,0,0,1,.06,3.68A.75.75,0,0,1,62,9.8c-.08.14.1.15.13.26.18.17.23.31.17.45s-.12.22-.17.22a11.17,11.17,0,0,1-6.87-.64,3.36,3.36,0,0,1,1.59-1.27c1.16-.18,2-.58,2-2C58.81,6.15,58.7,5.27,59.84,5.35Z" fill="#ababab"/><path d="M23.11,17.55c-1.6.76-3.6,1.18-3,3.71a.71.71,0,0,1-1,.06c-1.54-1.8-3.56-1.31-5.49-1.09-1.7.2-3.39.8-5.08,0l-.4-.39C12.92,17.71,18,17.84,23.11,17.55Z" fill="#aaa"/><path d="M59.84,5.35c-.91.61-.14,1.33-.06,1.94.33,2.65-.75,3-2.83,1.86C55.8,8,56,6.76,56.84,5.52S58.79,4.48,59.84,5.35Z" fill="#222"/><path d="M8.13,6.22c0,1.88-.55,4,2.22,4.55-4.32.6-5.29-.11-4.49-3.22C6.2,6.25,7.06,6.12,8.13,6.22Z" fill="#cdcdcd"/><path d="M41.76,94.79h-.61C40,93.76,40,92.33,40.08,91c.16-4.32-.58-8.67.47-13a.88.88,0,0,1,1.17-.47Q41.74,86.19,41.76,94.79Z" fill="silver"/><path d="M20.21,4.16c-.49,1.42.51,3.12-.82,4.39.19-2.5.07-4-3.44-3.22-2.49.57-5.17,1.46-7.88.94C11.91,4.38,16.12,4.59,20.21,4.16Z" fill="#818181"/><path d="M13.35,22.71l-1.61.74c-1.11,0-2.22.13-3.32,0-.93-.09-2.36.77-2.53-1.12-.14-1.64.44-2.62,2.23-2.57l-.07-.06c1.08,2.37,3.51,1.3,5.23,2a.67.67,0,0,1,.21.6C13.45,22.6,13.41,22.71,13.35,22.71Z" fill="#dfdfdf"/><path d="M59.09,13c0-.2,0-.4,0-.6,1.6.27,3.29.19,4.66,1.28.08,2.72-1,4-3.87,3.25a1.39,1.39,0,0,1-.21-.4A4.25,4.25,0,0,1,59.09,13Z" fill="#bcbcbc"/><path d="M43.22,82.81h-.5V66.61h.5Z" fill="#717171"/><path d="M9.53,13.59c-1.33.07-1.51.92-1.43,2s0,2.16-1.46,1.86-.81-1.63-.7-2.43c.3-2.14,2-2.07,3.66-2,.16.15.21.29.13.41S9.59,13.59,9.53,13.59Z" fill="#d2d2d2"/><path d="M56.84,5.52,57,9.15c-.29.82-1.1.69-1.7.94L51.69,10c.45-1,1.51-.41,2.2-.79,2.88-1,1-2.84.71-4.38Z" fill="#f1f1f1"/><path d="M57.5,156.14l.86.89a8.16,8.16,0,0,1-7.51,0,4.08,4.08,0,0,1-.09-.69A13.86,13.86,0,0,1,57.5,156.14Z" fill="#686868"/><path d="M29,158.62l.84-.72c2.78.53,5.56,1,8.34,0l0,1.37A14.43,14.43,0,0,1,29,158.62Z" fill="#bdbdbd"/><path d="M42.47,96.19c.13,4.5.55,9-.51,13.45V96.23Z" fill="#474747"/><path d="M41.72,77.56a3,3,0,0,1-.6,0c-1.84-3.44-1.19-7-.61-10.59l.64-1.49C42.5,69.43,41.73,73.52,41.72,77.56Z" fill="#888"/><path d="M59.87,16.9c2.42.26,2.89-1.79,3.87-3.25a2.45,2.45,0,0,1,.6,3.57c-1.16,1.48-3,.39-4.48.21A1.88,1.88,0,0,1,59.87,16.9Z" fill="#f3f3f3"/><path d="M62.13,10c1.26-1.07.4-2.54.72-3.78,2.84.24,1.81,2.45,1.71,3.84-.13,1.77-1.46,1-2.44.63a.64.64,0,0,0,0-.68Z" fill="#f6f6f6"/><path d="M9.53,13.59A.54.54,0,0,1,9.6,13c.7-1.22,2-.63,3-1,1.54.14,3-1,4.54-.45a1.9,1.9,0,0,0,0,.63C14.75,13.47,12,13,9.53,13.59Z" fill="#939393"/><path d="M34.39,3.38c-.45.59-.83,1.27-1.71,1.28-2-1.45-4.36,0-7.25-1.28Z" fill="#adadad"/><path d="M61.39,23.38c1-1,1.92-2,1.45-3.59,1.84.25,2.17,1.61,1.69,2.95C64,24.32,62.47,23.27,61.39,23.38Z" fill="#f8f8f8"/><path d="M57.64,12.17c-3.71-1.08-1.36,3.06-3.14,3.65a3.36,3.36,0,0,1-.68-3.5l.68-.74A3,3,0,0,1,57.64,12.17Z" fill="#5e5e5e"/><path d="M55.38,24.19l-.71.77c-.82.27-1.91-.22-2.42.88a2.16,2.16,0,0,1-.68-2.3A3.66,3.66,0,0,1,55.38,24.19Z" fill="#6d6d6d"/><path d="M12.77,40.77c2.12,3.71,1.32,7.43,0,11.15Z" fill="#313131"/><path d="M35.85,124.76c8.27.23,14.25,6.12,15.13,14.92a1.91,1.91,0,0,1,0,1.71c-1.35,10.69-10.26,17.16-19.53,14.18.58-.91,1.76-.92,2.48-1.63a9.42,9.42,0,0,1,3.59-2.15c6.29-2.39,8.59-5.4,8.57-11.19,0-7.59-6.11-12.39-13.59-10.78-1.55.33-3,1.3-4.71.52-1-1.6.55-1.88,1.34-2.4,1.34-.9,3-1.21,4.38-2C34.29,125.48,35.2,125.38,35.85,124.76Z" fill="#fafafa"/><path d="M34.51,154.81c-.76,1.21-2,.59-3,.76a14.25,14.25,0,0,1-8.87-6c-1.68-1.5-2.07-3.65-2.72-5.63-.32-1-.67-2.34.69-2.95s2.1.27,2.76,1.27c1.25,1.5,1.13,3.54,2,5.17,1.46,2.5,3.77,3.85,6.35,4.91C32.9,152.82,34.55,152.91,34.51,154.81Z" fill="#101010"/><path d="M23.29,143.62c-1.13-.47-.75-3.2-2.63-2.17-1.19.65-.29,2.24.11,3.36.57,1.6,1.23,3.17,1.85,4.76-3.38-1.8-2.47-5.65-4-8.34-.26-.13-.39-.3-.36-.5s.07-.34.14-.34c.8-.76.73-1.77.91-2.74,1.48-8.13,8.2-13.34,16.53-12.89l-1.41,1.54c-7.49.65-11.39,5.24-13.23,12.09.83-.28,1.6-2.07,2.56-.14C24.23,140.1,24.5,141.93,23.29,143.62Z" fill="#b4b4b4"/><path d="M51,141.39l0-1.71c1.15,1.07,1.24,0,1.49-.74.47-.14.66,1.54,1.1.35s.28-2.62.88-3.91v13.36c-1.49-1.85,0-4.5-2-5.91C52.19,142.13,52.31,141.07,51,141.39Z" fill="#828282"/><path d="M18.41,140.39l.22.84c-1.37,0-2.43.24-2.3,2a10.83,10.83,0,0,1-.57,4.76V136.71C17,137.87,15.24,141,18.41,140.39Z" fill="#5a5a5a"/><path d="M29,118.8l.23-.74a.78.78,0,0,1,1,0c1.23,2.83,4.25,3.15,6.46,4.61a1.09,1.09,0,0,1,0,.44C32.94,123.7,29.77,123.36,29,118.8Z" fill="#cfcfcf"/><path d="M38.85,36.93c-4.35-2.73-7.11-1.64-8.33,3.29-.18.71-.49,1.39-.74,2.08-1.4-1.33-.51-3-.68-4.53.9-2.36,3.24-3.38,4.93-4.94s3.26.37,4.78,1.21C39.12,35,39.8,36,38.85,36.93Z" fill="#8f8f8f"/><path d="M38.85,36.93c.18-1-.77-1.91,0-2.89a5.25,5.25,0,0,1,2.31,2.14c-.18,2.3,1.69,4.82-.73,6.87C39,41.23,40.29,38.74,38.85,36.93Z" fill="#636363"/><path d="M36.63,122.66c-3.45.17-6-1-6.89-4.62-.58-9.43-.2-18.88-.22-28.32,0-7.33-.35-14.66.22-22,.68-2.66,2.27-4.35,5.1-4.52a5.19,5.19,0,0,1,5.67,3.72c1,3.48-.06,7.08.61,10.59l0,17.25c0,6.84-.19,13.67-.1,20.51C41.09,118.78,40,121.34,36.63,122.66Z" fill="#121212"/><path d="M57.5,156.14l-6.74.2c.77-1.67,2.26-.71,3.35-.73,1.6,0,2.13-.49,2.12-2.12-.08-6.69-.06-13.39,0-20.08a2.85,2.85,0,0,0-1.48-2.77c2.8,0,2.87,0,2.87,2.87C57.6,141.06,57.54,148.6,57.5,156.14Z" fill="#0d0d0d"/><path d="M29.74,67.74V118h-.27l-.26,0q0-25.17,0-50.33A2,2,0,0,0,29.74,67.74Z" fill="#a5a5a5"/><path d="M53.82,12.32a3.87,3.87,0,0,1,.68,3.5c-.82-.06-1.82.64-2.35-.58C53.18,14.53,50.28,11.58,53.82,12.32Z" fill="#111"/><path d="M24.74,11.55,23,11.4c3.27-1.21,6.63-.59,10-.46,0,.49.06,1-.52,1.26l-.22,0-.19.13C29.55,12.21,27,13.34,24.74,11.55Z" fill="#cbcbcb"/><path d="M56.88,19.81c1.19-.43,2.51-.72,2.85.9.38,1.84-1.27,1.2-2.17,1.42C56.51,21.59,57,20.61,56.88,19.81Z" fill="#1e1e1e"/><path d="M29,25.66a9.34,9.34,0,0,1-2.16.16c-.74-.1-2,1.46-2.18-.48-.19-1.65,1.21-1,2-1.22l3.95.27C30.72,25.51,29.35,25,29,25.66Z" fill="#111"/><ellipse cx="61.33" cy="45.28" rx="0.54" ry="27.34" fill="#0c0c0c"/><path d="M24.74,11.55c2.39.47,5-.88,7.25.73a3.06,3.06,0,0,1-3.47,2.34,16.19,16.19,0,0,0-3.95.64Z" fill="#101010"/><path d="M63.6,42.26a3.47,3.47,0,0,1,.72,0,41.67,41.67,0,0,1-.72,12.53Z" fill="#bcbcbc"/><path d="M27.36,34.88c-.5,0-.9,1.46-1.08.56-.42-2.09.11-3.86,2.94-2.41C29,34.09,28.1,34.39,27.36,34.88Z" fill="#464646"/><path d="M13.35,22.71c0-.19,0-.37,0-.56,1.82-1.53,3.78-2,6-.88a1.43,1.43,0,0,0,.74,0v.68C17.86,22.31,15.67,23,13.35,22.71Z" fill="#eee"/><path d="M59.09,13c1.07,1,.65,2.31.57,3.53-1.3-.12-2.71.1-2.75-2C56.87,12.69,58.08,13.07,59.09,13Z" fill="#212121"/><path d="M62.12,10.05c-2.88-.65-1-2.34-1-3.62,1.29,1,.76,2.38,1,3.61Z" fill="#0d0d0d"/><path d="M19.36,21.27l-6,.88a8.08,8.08,0,0,0-2.17.23c-2.77,1.11-3.46-.13-3.14-2.64,3.13.5,6.1-.85,9.22-.79C19.11,19,19.84,19.43,19.36,21.27Z" fill="#232323"/><path d="M27.63,129.93a33,33,0,0,0-4.28,7c-1.28.66-.56,3.78-2.51,2.9-1.71-.78-.19-2.94.27-4.26a15.16,15.16,0,0,1,10.4-9.73c1-.29,2.16-1,2.93.46C32.43,128,29.53,128,27.63,129.93Z" fill="#111"/><path d="M24.37,147.22c3.68,3.38,7.63,6.13,13,5.42l-2.88,2.17c-2.08-1.94-5.3-1.69-7.28-3.85C26.16,149.8,24.82,148.85,24.37,147.22Z" fill="#acacac"/><path d="M37.26,94.39c0,6.62.05,13.25,0,19.87,0,1.67,1,4.43-1.86,4.45-3.17,0-2-2.93-2-4.65.12-6.23.71-12.46.69-18.69,0-7.49-.5-15-.72-22.46,0-1.52-.53-3.69,2-3.63s1.91,2.2,1.92,3.74C37.28,80.15,37.26,87.27,37.26,94.39Z" fill="#f3f3f3"/><path d="M36.92,65.13c2.26,1.13,2.64,3.05,2.64,5.07q0,22.44,0,44.88c0,1.92-.15,4-2.3,5.25,1.64-6.12.67-12.15.83-18.12.16-6.23.2-12.47,0-18.7C37.86,77.53,39.12,71.42,36.92,65.13Z" fill="#484848"/><ellipse cx="31.72" cy="92.87" rx="0.25" ry="35.86" fill="#818181"/><path d="M28.36,145.79c.07-1-1.21-1.64-.51-3,1.91,2.12,3.91,4,6.95,4a7.74,7.74,0,0,0,7.13-3.83c1.21.78,1.21.78-.12,3.08a7.46,7.46,0,0,1-11.33,4.17C28.88,149.13,29.83,146.87,28.36,145.79Z" fill="#161616"/><path d="M44,141.91a10.63,10.63,0,0,0-3.63-8.79c0-.43-.4-1.34,0-1.23,4,1.24,6.24,8.35,3.92,12.38A1.6,1.6,0,0,1,44,141.91Z" fill="#121212"/><path d="M44,141.91l.27,2.36L41.81,146c-.68-1.06,1.58-2,.12-3.08C42.58,142.51,42,139.49,44,141.91Z" fill="#919191"/></svg>