<svg xmlns="http://www.w3.org/2000/svg" width="94.47" height="131.11" viewBox="0 0 94.47 131.11"><title>tire</title><path d="M92.71,65.71C92.29,82.13,89.09,97.6,80,111.39c-6.24,9.49-14.39,16.63-25.9,18.83-14.69,2.8-26.49-2.6-35.84-13.7C8.37,104.76,3.9,90.71,2.39,75.68.51,56.82,3.33,38.8,13.56,22.5,20.25,11.84,29.27,4,42.16,2.08c14.64-2.12,26,4.11,35,15.23C88.47,31.47,92.27,48.17,92.71,65.71Z" fill="#0c0c0c"/><path d="M28.62,98.82c-7.08-12.48-8.6-26-7.49-40,.73-9.27,3.15-18.1,8.21-26,.71-1.11-.07-2.54,1.15-3.35,3.62-5.13,8.21-9,14.25-11,8.75-2.79,18.61,1,24.7,9.05a59.46,59.46,0,0,1,10.83,25.6c.17,1.85.88,3.63.76,5.52.21,5.17-.42,10.37.41,15.53.19,1.71-.42,3.3-.78,4.92-1.55,4.33-2.44,8.87-4.12,13.16a43.35,43.35,0,0,1-9.65,15.37c-10.19,10.13-24.16,9.66-33.84-1.14-1.36-2.11-3.27-3.83-4.43-6.09A2,2,0,0,1,28.62,98.82Z" fill="#fbfbfb"/><path d="M80,79.21c-.28-1.52.41-2.88.7-4.31,0-5.45.18-10.9-.14-16.34-.25-2-.38-4.06-.77-6.07C78,43.36,75.06,34.75,69.29,27.23c-7.43-9.68-18.53-13.71-30.17-6.07a3.29,3.29,0,0,1-1.69.72c-.63-.12-1.1-.37-.94-1.13,10.74-9.4,23.89-8.86,34.1,1.54C78.3,30.15,82,40,84.1,50.58c3.28,16.62,2.07,32.78-5.74,48.12-.69.1-.94-.34-1.13-.88C78.69,92,80.66,86.31,82,80.43c.11-.48.12-.85,0-.37,0,0-.21,0-.34,0a1.2,1.2,0,0,1-1.45-.47C80.1,79.49,80.06,79.35,80,79.21Z" fill="#fafafa"/><path d="M37.26,21.51c12.31-8.64,24.11-6.73,33,5.5a52.68,52.68,0,0,1,9.78,25.07c.4.79,0,1-.69.91C77.57,44.67,75,36.67,69.81,29.74c-5-6.67-11-11.62-19.88-11.25-6.78.28-11.89,3.9-16.42,8.6-.87.9-1.21,2.63-3,2.37l0-.8C32.38,26,34,23,37.26,21.51Z" fill="#121212"/><path d="M64.48,114.59c-7,5-14.29,5-21.82,1.56a27.43,27.43,0,0,1-11.4-9.92c-.28-.82.25-.91.84-.92a3,3,0,0,1,1.23,1.11c6.33,7.13,14.15,10,23.58,8.22a6,6,0,0,1,1.84,0C60.66,115.58,62.57,113,64.48,114.59Z" fill="#dedede"/><path d="M81.36,79.94c.32-.89-.11-2,.79-2.74,1.21,3.12.28,7.47-4.45,20.73-.82,3.57-3.33,6.17-5.2,9.13l0,0c-1.74,2.4-4.15,4.17-6.06,6.42a.44.44,0,0,1-.46.35c-2.68-1.69-.44-3,.54-3.93,5.65-5.51,9.06-12.25,11.36-19.67C79.6,86.94,78.91,82.91,81.36,79.94Z" fill="#262626"/><path d="M78.57,90.52a41.46,41.46,0,0,1-12,20.68c-.75.71-2.41,1.3-.52,2.58a1.68,1.68,0,0,1-1.55.81c-1.92-.56-3.4,2.74-5.49.62,0-2.19,2.26-2,3.39-3A47.13,47.13,0,0,0,76.3,92.67a6,6,0,0,1,1.27-2.24A1,1,0,0,1,78.57,90.52Z" fill="#d5d5d5"/><path d="M20.1,32.92,19.41,32c-.18-2.85,2.15-4.7,2.85-7.2,2.44-3.22,4.84-6.47,7.35-9.62.52-.65,1.17-2,2.24-1.26s.34,1.66-.41,2.51c-1.38,1.56-2.61,3.27-3.9,4.91A53.25,53.25,0,0,0,22,30.48C21.55,31.39,21.5,32.71,20.1,32.92Z" fill="#202020"/><path d="M22.26,24.83c.22,2.86-2.38,4.61-2.85,7.2l-3.66,8.38A33.25,33.25,0,0,1,22.26,24.83Z" fill="#a7a7a7"/><path d="M24.6,102.61a132.38,132.38,0,0,0,9.5,11.74C29.57,111.55,26.68,107.42,24.6,102.61Z" fill="#b6b6b6"/><path d="M20.1,32.92c2.49-3.84,3.66-8.53,7.44-11.55-2,4.69-5.37,8.64-7,13.53-.64.13-1,.05-.66-.73Z" fill="#aaa"/><path d="M18.74,112.76c2.92,3,5.6,6.23,8.72,9a24.73,24.73,0,0,1-9.23-8.59C18.21,112.85,18.38,112.7,18.74,112.76Z" fill="#a9a9a9"/><path d="M37.26,21.51q-3.4,3.57-6.79,7.15c.75-3.6,3.44-5.71,6-7.91Z" fill="#bdbdbd"/><path d="M72.5,107.06q2.59-4.56,5.2-9.13l.66.77C76.82,101.78,75.53,105,72.5,107.06Z" fill="#ccc"/><path d="M29.53,13.84,24.85,19c-.89-2.58-.83-2.44,1.2-3.33a13,13,0,0,0,2.82-2.33Z" fill="#464646"/><path d="M31.82,105.55l-.56.68a26.06,26.06,0,0,1-4.12-6.59c-.26-.5-.82-1.18,0-1.52.34-.14,1,.45,1.47.7s.63.52.38,1C29.23,102.08,31.92,103.13,31.82,105.55Z" fill="#bababa"/><path d="M19.92,34.17l.66.73L17.49,44A20.46,20.46,0,0,1,19.92,34.17Z" fill="#7a7a7a"/><path d="M15.52,33.94c-.83,2.7-1.67,5.39-2.5,8.09a17.48,17.48,0,0,1,2.42-9.37A1,1,0,0,1,15.52,33.94Z" fill="#8e8e8e"/><path d="M66.49,113.43c1.34-2.79,3.73-4.57,6.06-6.42C71.51,110.08,68.92,111.68,66.49,113.43Z" fill="#bebebe"/><path d="M18.23,113.22a13.36,13.36,0,0,1-3.72-7l4.23,6.53A4.41,4.41,0,0,1,18.23,113.22Z" fill="#a1a1a1"/><path d="M15.52,33.94l-.08-1.28a12.1,12.1,0,0,1,4.16-6.37Z" fill="#b3b3b3"/><path d="M16,26.47a12.8,12.8,0,0,1,5-6.08L16.56,27C16.13,27.07,16,26.89,16,26.47Z" fill="#a6a6a6"/><path d="M43.1,119.19,49.63,121a10.16,10.16,0,0,1-7.19-1.14A1,1,0,0,1,43.1,119.19Z" fill="#585858"/><path d="M16.56,27l-2.82,5.82c-.21-2.54.87-4.5,2.26-6.34Z" fill="#ababab"/><path d="M43.1,119.19l-.66.64a13.29,13.29,0,0,1-5.6-3C39.54,116.89,41,118.85,43.1,119.19Z" fill="#969696"/><path d="M23.2,66.5c.45-11.79,2.2-21,6.61-29.63a34.51,34.51,0,0,1,8.61-11.19c8-6.57,17.48-6.37,25.06.65s11.15,16.09,13,25.93C79.26,67,78.14,81.31,71.68,95a35.45,35.45,0,0,1-7.54,10.62c-8.5,8.07-18.94,8-27.29-.19-7-6.93-10.31-15.76-12.25-25.16A70.2,70.2,0,0,1,23.2,66.5Z" fill="#0c0c0c"/><path d="M77.92,90.52c-3.28,9-7.83,17.12-15.9,22.89-1,.71-2.42.6-3,1.8-10.79,3-19.42-.31-26.25-8.94-.41-.78,0-.82.62-.71,9.85,9.59,20.13,11.14,29.44,4.45a32.2,32.2,0,0,0,8.1-8.72,57.45,57.45,0,0,0,7.62-18.54c.29-1.24,0-2.78,1.5-3.54l0,.06C81.22,83.37,79.4,86.91,77.92,90.52Z" fill="#121212"/><path d="M80.92,58.19c.82,5.58,1.14,11.16-.2,16.71-1.36-2.92-.2-6-.35-8.93-.13-2.57-.17-5.15-.26-7.72C80.36,57.88,80.63,57.88,80.92,58.19Z" fill="#181818"/><path d="M33.36,105.56l-.62.71-.92-.72c-.79-2-3.11-3.21-2.82-5.73Z" fill="#454545"/><path d="M80.92,58.19l-.81.06L79.38,53l.69-.91C81,54,80.83,56.13,80.92,58.19Z" fill="#131313"/><path d="M83.25,61.87a39.43,39.43,0,0,1,0,12.55C81.39,70.26,83.45,66.05,83.25,61.87Z" fill="#5d5d5d"/><path d="M77.92,90.52c.68-3.75,2.57-7.28,2.06-11.25l1.38.67c-.59,3.62-1.06,7.26-2.79,10.58h-.65Z" fill="#c9c9c9"/><path d="M75.65,66.19c0,10.64-1.87,20.83-7.53,30-9.31,15.12-25.19,15.33-33.68-.25-10.09-18.51-10.67-37.82-1.37-57a28.17,28.17,0,0,1,8.8-10.53c7-5.14,14.81-4.74,21,1.34,7,6.81,10.1,15.54,11.85,24.89A59.53,59.53,0,0,1,75.65,66.19Z" fill="#424242"/><path d="M42.6,85.28c-1.52,3.58-4.45,6.17-6.46,9.61-2.15-1.62-2.45-3.23-.91-5.3a17.82,17.82,0,0,0,2.18-3.88c.62-1.52,2.53-2.53,1-4.9s-3.43-2.46-5.67-2.2a26.08,26.08,0,0,0-2.89.62c-.71-1.26-.85-2.29,1-2.55,2.16,1.34,4.67.75,6.8.48,4.26-.54,8.51-.33,13.19-.56.07,0-.65-.68-.45-.22.07.15,0,.25-.26.23-3.79-.28-7.6.44-11.39-.12C37.65,74.88,37.46,73,37,71.18a25.07,25.07,0,0,0-.54-3.56c.39,1.32.24,2.72.64,4a39.62,39.62,0,0,0,1.2,4.8c-2.08,1.77-4.54.23-6.77.77-1-1.08-.1-1.88.55-2.44,2.1-1.81,1.27-4.1,1.09-6.21-.21-2.37-2.29-1.1-3.52-1.5a2,2,0,0,1-.89-.59c-.49-1.88.14-3,2.16-2.86a15.92,15.92,0,0,0,3.32-.34c.55-.11,1.08-.3,1.62-.46,1.28-.28,2.54-1,3.85-.11a3.42,3.42,0,0,1,.52,1c.57,4.86,1.2,5.34,6.08,4.79,1.14-.13,2.33-.19,2.43-1.71a2.51,2.51,0,0,0-2-2.76c-1.79-.52-3.75.08-5.49-.82-1.08-2.46,1.34-2,2.32-2.61,1.73-1,4.23-.31,5.61-2.3,1.08-1.64,2.9-3.63,2.15-5.22s-3.36-.39-5.14-.59a30.55,30.55,0,0,0-3.69.16c-1.57-.6-2.93-1.41-3-3.35,1.16-.93,1-2.17.8-3.42-.47-3.7-.75-7.44-1.43-11.1a2.7,2.7,0,0,1,1.45-3.07c1-.63.59,1.14,1.39,1.13a1.61,1.61,0,0,1,.42,1.46c-.88,3.6.9,7,.77,10.55A1.21,1.21,0,0,0,44,46.12c.71.06,1.07-.5,1.38-1a28.16,28.16,0,0,1,1.73-2.83c.81-1.11,1.74-1.88,3.22-1.19,2.13,1.52,4.59,2.8,4.63,6a3,3,0,0,1,1.81-.53,31.09,31.09,0,0,0,4.1.38c1.48.3,3.16.1,4.16,1.63.2.44.3,1.18.6,1.28,5.47,1.66,2.52,6.64,3.94,9.87-.22,2.65,2.4,4.76,1.4,7.54-2.22,3.43-1.5,7.2.13,10.21,1.38,2.55.58,4.52.5,6.94-.32-.3-.55-.42-.66-.61-1-1.71-.3-5.1-3.13-4.82-2.38.24-2,3.4-2.56,5.29-1,3.74-3.59,6.87-4,10.8-.33,1-1.12,2-2.1,1.4-1.37-.89-.8-2.4-.34-3.7,1.14-2.42,2.55-4.72,3-7.59-1.3.12-1.63,1.46-2.61,1.81-2.44.38-1.83-2.71-3.57-3.13a5,5,0,0,0-5-1.13C51.45,85.33,53.7,86.86,55,89a4,4,0,0,1,.67,2.54,1.39,1.39,0,0,1-.67.8,2,2,0,0,1-1.57-.14c-2-1.69-3.37-4-5.06-5.93-.77-.9-1.5-2-2.41-.13-.49.68-.77,1.68-2,1.34-.49-.71.61-2.49-1.45-2.15a1.25,1.25,0,0,0-2.12.06C41.18,85.57,41.86,84.52,42.6,85.28Z" fill="#0d0d0d"/><path d="M49.14,39.33a38.41,38.41,0,0,0,1.86-4c.53-1.55,2.59-3.12,1.36-4.6a6.36,6.36,0,0,0-6.44-2c-.35.08-.72.09-1.16.15,5-3.67,11.43-2.81,16.6,2.16A1.93,1.93,0,0,1,61,33.93c-1.05.76-.48,1.43-.1,2.17A8.81,8.81,0,0,0,62,39.75c.42.72,1,1.34,1.48,2,.89,1.59.58,2.75-1.24,3.34-2-.19-3.73,1.2-5.73,1.17C53,45.2,54.2,43.07,55.27,41c1.27-.63,1.71,2.17,3.07.8s.08-2.46-.53-3.59a20.15,20.15,0,0,0-1.17-1.87c-1-1.14-1.6-2.37-1.23-3.48a15,15,0,0,1-.9,1.43c-1.55,2-1.33,5.13-4,6.38C49.59,40.64,48.87,40.48,49.14,39.33Z" fill="#131313"/><path d="M50,58.85c-.88,2.46-3.32,1.46-5,2.24-1.3.62-2.91.56-4,1.74-.08,1.08-.65,1.18-1.49.75,0-.22,0-.44,0-.66.2-.55-.29-1.05-.1-1.59.21-1.35-1.85-3.17.84-4,1,.69,1.81,1.75,3.33,1.37-.31-1.58-1.84-2.29-2.42-3.62-.57-.28.09-2.08-1.44-1.14-2,1.86-2,4.49-2.65,6.86a6,6,0,0,1-1.34,2.89l-.71.55c-.41-.34-1-.52-1.23-1a6.75,6.75,0,0,1,.16-5.06,8,8,0,0,0-1.48-8.9A3.5,3.5,0,0,1,31.36,47l1.85-4.47,6.3,6.79,2.87,3C45.24,54.06,46.66,57.53,50,58.85Z" fill="#131313"/><path d="M44,87.5,45.38,86c2.26,3.42.72,7.25,1.19,10.86.24,1.88-.73,4,1.17,5.52a6,6,0,0,0,3.68-.76c1.25-1,2.32-2.26,3.47-3.38s1.1-2.38-.14-3.49c-.87-1.11-.32-2,.51-2.76l0,0c2.51-.43,4,.18,3.4,3.15a3.77,3.77,0,0,0,.71,2.45c.19.42.16-.26.36-.27,1.61,0,3.37-1,4.74.67-5.54,8-13.51,10.07-20.67,5.35.1-5,.74-10.07.21-15.12C44,88,44,87.75,44,87.5Z" fill="#101010"/><path d="M31.36,47c3.26,3.16,6,6.38,3.5,11.43-.72,1.47-.56,3.38-.81,5.08-1.7,1-3.43.49-5.16.09-.77-3.34.83-6.49.79-9.77C31.14,51.73,30.45,49.15,31.36,47Z" fill="#424242"/><path d="M29.77,66.57c3-1.48,4.21-1.09,4.65,2.79.4,3.56-.68,5.64-3.28,7.48h0c-1.66.14-1.65,1.17-1.3,2.4-1.76-1.73-.18-4.29-1.53-6.12C29.52,71.09,27.33,68.31,29.77,66.57Z" fill="#424242"/><path d="M64.44,98c-1.76.58-4.7-1.66-5,2.36-1.59-2.88.45-7.32-4.24-8.36-.25-.75-.49-1.5-.74-2.25,1.19-1.84.07-4.3,1.6-6.06.8,0,2.65-1.73,1.7,1.05-.38,1.1.4,1.48,1.1,1.94,1.58,1.83.52,4,.84,6-.32,1-1.2,2.12-.48,3s1.09-1,2-.72a6.49,6.49,0,0,1,4.42,1.06C65.94,96.25,65.28,97.6,64.44,98Z" fill="#5c5c5c"/><path d="M62,44.73c1.69-.66,1.3-1.78.66-2.95-.85-3.87.07-5.67,3.13-6.09,2,1.49,1.76,3.41.58,5.11a9.93,9.93,0,0,0-1.49,4.79,1.91,1.91,0,0,1-3,.8A1.36,1.36,0,0,1,62,44.73Z" fill="#818181"/><path d="M65.81,35.69c-3,1.05-2.64,3.77-3.13,6.08a2.42,2.42,0,0,1-1.41-1.55.9.9,0,0,0,.19-.69c-.26-1.12,1.35-2.82-1-3.26-1.15-.85-3.89-1.59-.12-2.73,1.17-.35.85-1.59,1.06-2.49C63.45,32,64.54,33.94,65.81,35.69Z" fill="#363636"/><path d="M44,88.25c1.16,5.06,1.48,10.1-.21,15.12h-.3l-.29-.09a.56.56,0,0,1-.25-.55c0-.21.1-.31.17-.31Q43.54,95.34,44,88.25Z" fill="#0d0d0d"/><path d="M49.14,39.33a1.59,1.59,0,0,0,1.52.9A.75.75,0,0,1,51,41c-.18.44-.64.53-1,.79-1.17-1-1.49.41-2.17.78-1.7-2.93-5.17-4.5-6.12-8,0-.57,0-1.14,0-1.71C44.83,34.27,46.29,37.59,49.14,39.33Z" fill="#494949"/><path d="M71,67.2c-.77-2.45-1.82-4.86-1.4-7.54.93,1.92,1.11,4.19,3.93,4.91,1.34.34.39,2.4.51,3.75C72.82,68.26,72.21,66.85,71,67.2Z" fill="#565656"/><path d="M70.36,47c2,1.59.41,3.39,1.12,4.84.09.18-.88,0-1.39-.4C67.85,49.58,70.77,48.71,70.36,47Z" fill="#0d0d0d"/><path d="M29.68,53.79c.7,3.28-.87,6.4-.63,9.65a.41.41,0,0,1-.68.16A25.72,25.72,0,0,1,29.68,53.79Z" fill="#b7b7b7"/><path d="M28.37,63.6a2.69,2.69,0,0,0,.68-.16l5,0c.49.06.86.25,1,.78-1.55-.16-3,.75-4.66.23s-1.17,1-1.25,1.92c-.24.35-.49.36-.76,0C28.34,65.5,28.36,64.55,28.37,63.6Z" fill="#696969"/><path d="M61.88,46.11l3-.52c0,1,.09,1.94.13,2.92l-4-.87C60.75,46.82,60.93,46.25,61.88,46.11Z" fill="#131313"/><path d="M43.1,102.43c0,.29,0,.58.08.86-2.56-.54-3.48-2.89-4.78-4.89Z" fill="#bbb"/><path d="M28.33,66.44l.76,0a2.26,2.26,0,0,1,.68.17c-1.72,1.9.18,4.62-1.47,6.54Z" fill="#adadad"/><path d="M48.72,103.35c-2.44,1.43-3.64.91-3.56-2.09.13-5.09.15-10.17.22-15.26.49-.92-.54-2.51.94-2.86,1.1-.26,1.5,1.1,2.1,1.82,1.89,2.28,3.7,4.63,5.55,7C53.83,96.46,51.36,100,48.72,103.35Z" fill="#424242"/><path d="M65.52,74c.12.52.2.66.17.74-1.12,2.62-2,5.86-5.43,5.89-3.59,0-4.71-3.28-5.73-6.06a25.78,25.78,0,0,1,0-17.93c1-2.78,2.16-6.08,5.84-5.86s4.42,3.44,5.76,7.08c-2.42-2-4.17-4-6.83-2.65s-3.51,3.65-4.19,6.26a17,17,0,0,0,.42,9.94C57.39,76.88,61,77.83,65.52,74Z" fill="#f8f8f8"/><path d="M64.27,65.61A11,11,0,0,1,63,71.76c-1.15,2.1-2.66,2.34-3.85.15a12.75,12.75,0,0,1,0-12.48c1.16-2.25,2.62-1.86,3.81.16A10.53,10.53,0,0,1,64.27,65.61Z" fill="#f9f9f9"/><path d="M39.53,63.58,41,62.83c2,0,4,0,6,0a2.7,2.7,0,0,1,3,2.6c.39,2.64.22,4.78-3.41,4a8.34,8.34,0,0,0-1.5,0C39.48,69.45,39.48,69.45,39.53,63.58Z" fill="#f8f8f8"/><path d="M41.71,34.53c1.57,1.65,3.11,3.33,4.72,4.94.87.87,1.8,1.65,1.4,3.06-.64,1.33-1.32,2.65-1.91,4a1.7,1.7,0,0,1-2,1.16c-1-.1-1.64-.34-1.79-1.42-.56-3.85-1.19-7.69-1.66-11.56C40.42,34.14,41.26,34.46,41.71,34.53Z" fill="#424242"/><path d="M50,58.85c-2.82.2-6-2.56-7.57-6.6,3.44-1.53,7-.23,11-.85C52.13,54.15,51.88,56.85,50,58.85Z" fill="#f8f8f8"/><path d="M56.09,83.71c-.54,2,1.67,4.76-1.6,6.06l-6-7.6C51.12,82.36,54.41,79.21,56.09,83.71Z" fill="#424242"/><path d="M50,41.75l.66-.74c2.2.35,3.31-.41,2.91-2.8-.26-1.57.52-3.11.19-4.68-.08-1.23,1.66-.92,1.88-2.13.19,1.68.32,3.36,1.82,4.41-.17,1.84.28,3.87-1.53,5.23-.39,1.71-2.28,3.73,1,4.65a1,1,0,0,1-.28,1.38c-1.58-.18-1.32,1-1.4,2.24C55,45.5,52.23,43.81,50,41.75Z" fill="#676767"/><path d="M59.73,92.73c-1.17-1.89-.92-4-.84-6,.82-1.86,1.65-3.69,4.42-3.31A30.58,30.58,0,0,1,59.73,92.73Z" fill="#424242"/><path d="M48.72,103.35,54,91.91l1.29.08c.41.76-1,1.51,0,2.27.23,3.38-2.07,5.59-3.73,8.09Z" fill="#5c5c5c"/><path d="M31.14,76.84,38,76.29c.25-.44.52-.45.81,0,4.21.49,8.5-1,13.3.35-2.06.59-3.92-.08-4.81,1.8-.12.25-.58.74-.8.22-1.32-3.25-3.74-1.13-5.63-1.1-3.27.06-6.57,1-9.71-.69Z" fill="#555"/><path d="M44.66,73.53c-1.23-.69-4.26,1.31-4.25-1.35s2.91-.67,4.45-1.15a6.86,6.86,0,0,1,3,0c.93.14,2.63-.71,2.61.95,0,1.49-1.57,1.63-2.88,1.57C46.68,73.5,45.81,73.53,44.66,73.53Z" fill="#fafafa"/><path d="M53,45.94l-6,3.22c.7-2.46,1.05-4.76,2.81-5.75C50.94,42.73,51.77,44.77,53,45.94Z" fill="#424242"/><path d="M56.64,47.07c.09-.46.19-.92.28-1.38,1.77,0,2.93-3.16,5.1-1-.05.46-.09.92-.14,1.38L61,47.64C59.55,47.46,57.94,48.44,56.64,47.07Z" fill="#424242"/><path d="M42.6,85.28c-1.68,0-2,2.07-3.71,2.4a4.5,4.5,0,0,1,2-4.13c1.26-.71,1.2,1,1.61,1.8Z" fill="#b7b7b7"/><path d="M36.59,71.7c-.11-2.37-1.29-4.75.48-7.16l.3,6.35C37.66,71.68,37.3,71.85,36.59,71.7Z" fill="#eee"/><path d="M39.55,61.82c.61.4.54.76-.06,1.1l-3.77.78a5,5,0,0,1,.63-3.29c.57.41.66.9.23,1.59.69-.74-.19-2,1.06-2.42C38.87,59.82,38.82,61.15,39.55,61.82Z" fill="#696969"/><path d="M36.59,71.7l.78-.81,1.41,5.36-.81,0A10.79,10.79,0,0,1,36.59,71.7Z" fill="#a7a7a7"/><path d="M55.93,41c.72-1.68,0-3.79,1.53-5.23.32.52.63,1,.95,1.58,2.71,4.46,2.71,4.46-2.3,6.59Z" fill="#424242"/><path d="M53.76,33.53c1.44,3.23.52,6.4.21,9.68-1.79-.25-2.28-1.59-3.31-2.2v-.78Z" fill="#424242"/><path d="M60.42,36.27c2.69.4,2.69.4.85,3.95C61,38.91,59.55,37.83,60.42,36.27Z" fill="#7d7d7d"/><path d="M39.55,61.82c-2,.41-1.43-1.18-1.67-2.14-.89-2.42-.09-4.33,1.78-5.92,1.91-2.2,1.46.41,2,1-.17,1.11,0,2.42-1.54,2.76-.81.82-1.08,2.15-.2,2.59C42.76,61.5,39.15,61.16,39.55,61.82Z" fill="#0d0d0d"/><path d="M40.14,57.5c.67-.83.47-2.15,1.54-2.76,1.08,1.75,3.82,2.31,3.58,5.36C43.73,58.65,40.06,62.42,40.14,57.5Z" fill="#f3f3f3"/><path d="M39.66,53.76a15.07,15.07,0,0,0-1.78,5.92c-.32.86-.63,1.71-1,2.59-.84-.48-.3-1.29-.57-1.86a18.07,18.07,0,0,1,2.25-7C39.41,52,39.5,53,39.66,53.76Z" fill="#c2c2c2"/><path d="M51.53,102.35c1.24-2.7,2.49-5.39,3.73-8.09,2.27.89,2.79,2.18,1,4C54.75,99.78,53.62,101.62,51.53,102.35Z" fill="#424242"/></svg>