<svg xmlns="http://www.w3.org/2000/svg" width="120" height="120" viewBox="0 0 120 120"><title>wrench</title><path d="M3.81,89.92c2.09-3.46,5-6.84,8.77-8.41,3.15-1.3,6.58-1.46,9.94-1.73,3.09-.24,6.33-.64,8.68-2.86l28.24-28L74,34.47c1.93-1.91,4.14-3.65,5.07-6.28,1-3,1-6.2,1.33-9.27C81,14,82.7,10.22,86.46,7A26.72,26.72,0,0,1,102.07.46a1.69,1.69,0,0,1,1.17,2.87L92.83,13.64q.9,6.06,1.79,12.13l12.11,1.9,10.41-10.32a1.69,1.69,0,0,1,2.86,1.2,26.32,26.32,0,0,1-3.81,11.67c-2,3.34-4.8,6.64-8.42,8.26-5.72,2.57-12.93.44-18.19,4.05a28.18,28.18,0,0,0-3.51,3.4L81.8,50.16,72.88,59,54.69,77,44.12,87.49a11.6,11.6,0,0,0-3.43,5.15,33.81,33.81,0,0,0-.92,6.65c-.44,5.07-1.55,9.54-5.39,13.12a26.86,26.86,0,0,1-16.45,7.27,1.69,1.69,0,0,1-1.17-2.87L27.17,106.5q-.9-6.07-1.79-12.13l-12.11-1.9L2.86,102.78A1.69,1.69,0,0,1,0,101.58,26.28,26.28,0,0,1,3.81,89.92Z" fill="#0c0c0c"/></svg>